<svg width="24" height="24" viewBox="0 0 24 24" fill="none" xmlns="http://www.w3.org/2000/svg">
<g clip-path="url(#clip0)">
<path d="M21 3H20.0001V0.999939C20.0001 0.448059 19.552 0 18.9999 0H18C17.4479 0 17.0001 0.448059 17.0001 0.999939V3H6.99994V0.999939C6.99994 0.448059 6.55206 0 6 0H5.00006C4.448 0 3.99994 0.448059 3.99994 0.999939V3H3C1.34601 3 0 4.34601 0 6V21C0 22.654 1.34601 24 3 24H21C22.654 24 24 22.654 24 21V6C24 4.34601 22.654 3 21 3ZM21.9999 21C21.9999 21.551 21.551 21.9999 21 21.9999H3C2.44904 21.9999 2.00006 21.551 2.00006 21V10.04H21.9999V21Z" fill="#12211B"/>
</g>
<defs>
<clipPath id="clip0">
<rect width="24" height="24" fill="white"/>
</clipPath>
</defs>
</svg>
