<svg width="32" height="32" viewBox="0 0 32 32" fill="none" xmlns="http://www.w3.org/2000/svg">
<rect width="32" height="32" rx="5" fill="#12211B"/>
<path fill-rule="evenodd" clip-rule="evenodd" d="M12.977 8.7105C13.759 8.6745 14.0083 8.6665 16.0003 8.6665C17.9923 8.6665 18.2417 8.67517 19.023 8.7105C19.8043 8.74584 20.3377 8.8705 20.8043 9.05117C21.293 9.23584 21.7363 9.5245 22.103 9.89784C22.4763 10.2638 22.7643 10.7065 22.9483 11.1958C23.1297 11.6625 23.2537 12.1958 23.2897 12.9758C23.3257 13.7592 23.3337 14.0085 23.3337 15.9998C23.3337 17.9918 23.325 18.2412 23.2897 19.0232C23.2543 19.8032 23.1297 20.3365 22.9483 20.8032C22.7643 21.2926 22.4758 21.736 22.103 22.1025C21.7363 22.4758 21.293 22.7638 20.8043 22.9478C20.3377 23.1292 19.8043 23.2532 19.0243 23.2892C18.2417 23.3252 17.9923 23.3332 16.0003 23.3332C14.0083 23.3332 13.759 23.3245 12.977 23.2892C12.197 23.2538 11.6637 23.1292 11.197 22.9478C10.7076 22.7638 10.2642 22.4753 9.89766 22.1025C9.52458 21.7363 9.23587 21.2931 9.05166 20.8038C8.87099 20.3372 8.74699 19.8038 8.71099 19.0238C8.67499 18.2405 8.66699 17.9912 8.66699 15.9998C8.66699 14.0078 8.67566 13.7585 8.71099 12.9772C8.74633 12.1958 8.87099 11.6625 9.05166 11.1958C9.23614 10.7066 9.52507 10.2634 9.89833 9.89717C10.2644 9.52417 10.7073 9.23547 11.1963 9.05117C11.663 8.8705 12.1963 8.7465 12.9763 8.7105H12.977ZM18.9637 10.0305C18.1903 9.99517 17.9583 9.98784 16.0003 9.98784C14.0423 9.98784 13.8103 9.99517 13.037 10.0305C12.3217 10.0632 11.9337 10.1825 11.675 10.2832C11.333 10.4165 11.0883 10.5745 10.8317 10.8312C10.5884 11.0679 10.4011 11.356 10.2837 11.6745C10.183 11.9332 10.0637 12.3212 10.031 13.0365C9.99566 13.8098 9.98833 14.0418 9.98833 15.9998C9.98833 17.9578 9.99566 18.1898 10.031 18.9632C10.0637 19.6785 10.183 20.0665 10.2837 20.3252C10.401 20.6432 10.5883 20.9318 10.8317 21.1685C11.0683 21.4118 11.357 21.5992 11.675 21.7165C11.9337 21.8172 12.3217 21.9365 13.037 21.9692C13.8103 22.0045 14.0417 22.0118 16.0003 22.0118C17.959 22.0118 18.1903 22.0045 18.9637 21.9692C19.679 21.9365 20.067 21.8172 20.3257 21.7165C20.6677 21.5832 20.9123 21.4252 21.169 21.1685C21.4123 20.9318 21.5997 20.6432 21.717 20.3252C21.8177 20.0665 21.937 19.6785 21.9697 18.9632C22.005 18.1898 22.0123 17.9578 22.0123 15.9998C22.0123 14.0418 22.005 13.8098 21.9697 13.0365C21.937 12.3212 21.8177 11.9332 21.717 11.6745C21.5837 11.3325 21.4257 11.0878 21.169 10.8312C20.9323 10.5879 20.6441 10.4006 20.3257 10.2832C20.067 10.1825 19.679 10.0632 18.9637 10.0305V10.0305ZM15.0637 18.2605C15.5868 18.4783 16.1692 18.5076 16.7116 18.3437C17.254 18.1797 17.7226 17.8324 18.0374 17.3613C18.3522 16.8902 18.4937 16.3244 18.4377 15.7606C18.3817 15.1967 18.1317 14.6698 17.7303 14.2698C17.4745 14.0142 17.1651 13.8184 16.8245 13.6966C16.484 13.5748 16.1206 13.5301 15.7607 13.5656C15.4007 13.6011 15.0531 13.716 14.7429 13.9019C14.4326 14.0879 14.1675 14.3403 13.9665 14.6411C13.7656 14.9418 13.6338 15.2834 13.5807 15.6411C13.5276 15.9989 13.5544 16.364 13.6594 16.7102C13.7643 17.0563 13.9446 17.3749 14.1875 17.643C14.4303 17.9111 14.7295 18.122 15.0637 18.2605ZM13.335 13.3345C13.685 12.9845 14.1005 12.7068 14.5579 12.5174C15.0152 12.328 15.5053 12.2305 16.0003 12.2305C16.4953 12.2305 16.9855 12.328 17.4428 12.5174C17.9001 12.7068 18.3156 12.9845 18.6657 13.3345C19.0157 13.6845 19.2933 14.1001 19.4828 14.5574C19.6722 15.0147 19.7697 15.5048 19.7697 15.9998C19.7697 16.4948 19.6722 16.985 19.4828 17.4423C19.2933 17.8996 19.0157 18.3152 18.6657 18.6652C17.9588 19.3721 17 19.7692 16.0003 19.7692C15.0006 19.7692 14.0419 19.3721 13.335 18.6652C12.6281 17.9583 12.231 16.9995 12.231 15.9998C12.231 15.0001 12.6281 14.0414 13.335 13.3345V13.3345ZM20.6057 12.7918C20.6924 12.71 20.7618 12.6116 20.8099 12.5025C20.8579 12.3933 20.8835 12.2757 20.8853 12.1565C20.887 12.0372 20.8648 11.9189 20.82 11.8084C20.7752 11.6979 20.7086 11.5975 20.6243 11.5132C20.54 11.4289 20.4396 11.3623 20.3291 11.3175C20.2186 11.2727 20.1003 11.2505 19.981 11.2522C19.8618 11.254 19.7441 11.2796 19.635 11.3276C19.5259 11.3757 19.4275 11.4451 19.3457 11.5318C19.1865 11.7005 19.0994 11.9246 19.1028 12.1565C19.1062 12.3883 19.1998 12.6098 19.3638 12.7737C19.5277 12.9377 19.7492 13.0313 19.981 13.0347C20.2129 13.0381 20.437 12.951 20.6057 12.7918V12.7918Z" fill="white"/>
</svg>
