<svg width="32" height="32" viewBox="0 0 32 32" fill="none" xmlns="http://www.w3.org/2000/svg">
<rect width="32" height="32" rx="5" fill="#12211B"/>
<path d="M23.7623 11.2912C23.2057 11.5379 22.6077 11.7046 21.979 11.7799C22.6277 11.3918 23.113 10.7809 23.3443 10.0612C22.7349 10.4232 22.0679 10.678 21.3723 10.8146C20.9046 10.3151 20.285 9.98411 19.6099 9.87287C18.9347 9.76164 18.2417 9.87642 17.6385 10.1994C17.0353 10.5224 16.5555 11.0355 16.2738 11.659C15.992 12.2826 15.924 12.9817 16.0803 13.6479C14.8455 13.5859 13.6374 13.2649 12.5346 12.7058C11.4318 12.1467 10.4589 11.362 9.679 10.4026C9.41233 10.8626 9.259 11.3959 9.259 11.9639C9.2587 12.4752 9.38462 12.9787 9.62559 13.4297C9.86655 13.8807 10.2151 14.2652 10.6403 14.5492C10.1472 14.5335 9.66492 14.4003 9.23367 14.1606V14.2006C9.23362 14.9177 9.48169 15.6128 9.93579 16.1679C10.3899 16.723 11.022 17.1038 11.725 17.2459C11.2675 17.3697 10.7879 17.3879 10.3223 17.2992C10.5207 17.9163 10.907 18.4559 11.4272 18.8425C11.9475 19.2291 12.5756 19.4433 13.2237 19.4552C12.1236 20.3188 10.7649 20.7873 9.36633 20.7852C9.11859 20.7853 8.87105 20.7708 8.625 20.7419C10.0447 21.6547 11.6972 22.1391 13.385 22.1372C19.0983 22.1372 22.2217 17.4052 22.2217 13.3012C22.2217 13.1679 22.2183 13.0332 22.2123 12.8999C22.8199 12.4605 23.3443 11.9165 23.761 11.2932L23.7623 11.2912V11.2912Z" fill="white"/>
</svg>
