<?xml version="1.0" standalone="no"?>
<!DOCTYPE svg PUBLIC "-//W3C//DTD SVG 20010904//EN"
 "http://www.w3.org/TR/2001/REC-SVG-20010904/DTD/svg10.dtd">
<svg version="1.0" xmlns="http://www.w3.org/2000/svg"
 width="272.000000pt" height="272.000000pt" viewBox="0 0 272.000000 272.000000"
 preserveAspectRatio="xMidYMid meet">
<metadata>
Created by potrace 1.14, written by Peter Selinger 2001-2017
</metadata>
<g transform="translate(0.000000,272.000000) scale(0.100000,-0.100000)"
fill="#000000" stroke="none">
<path d="M1205 2703 c-86 -11 -240 -49 -320 -79 -253 -94 -441 -236 -634 -480
-5 -6 -33 -52 -64 -102 -83 -139 -151 -330 -174 -492 -15 -104 -6 -421 12
-450 2 -4 7 -22 10 -41 20 -118 103 -310 195 -449 65 -98 213 -257 290 -312
25 -18 47 -35 50 -38 10 -13 138 -86 205 -118 183 -88 352 -126 560 -126 192
-1 258 7 400 49 318 93 555 267 763 561 31 44 100 181 131 262 23 58 59 190
66 243 36 250 21 444 -51 655 -118 352 -370 635 -707 794 -88 42 -241 93 -317
105 -25 4 -54 9 -65 12 -26 6 -311 11 -350 6z"/>
</g>
</svg>
