<svg width="24" height="25" viewBox="0 0 24 25" fill="none" xmlns="http://www.w3.org/2000/svg">
<g clip-path="url(#clip0)">
<path d="M12 0.5C7.038 0.5 3 4.566 3 9.565C3 16.668 11.154 24.002 11.501 24.31C11.644 24.437 11.822 24.5 12 24.5C12.178 24.5 12.356 24.437 12.499 24.311C12.846 24.002 21 16.668 21 9.565C21 4.566 16.962 0.5 12 0.5ZM12 14.5C9.243 14.5 7 12.257 7 9.5C7 6.743 9.243 4.5 12 4.5C14.757 4.5 17 6.743 17 9.5C17 12.257 14.757 14.5 12 14.5Z" fill="#371E10"/>
</g>
<defs>
<clipPath id="clip0">
<rect width="24" height="24" fill="white" transform="translate(0 0.5)"/>
</clipPath>
</defs>
</svg>
