<svg width="352" height="56" viewBox="0 0 352 56" fill="none" xmlns="http://www.w3.org/2000/svg">
<path d="M351.559 30.6586C351.057 29.9917 350.555 29.3249 349.886 28.8247C349.216 28.3246 348.547 28.1578 347.71 27.9911C346.371 27.8244 345.033 28.3245 344.029 29.3249V29.1581C343.694 28.4913 342.857 28.658 342.355 28.9914C341.853 29.3248 341.351 29.9918 341.184 30.4919C341.017 31.1588 340.849 31.8256 340.682 32.4925C329.805 35.3268 318.425 35.8269 307.381 33.993C306.377 33.8263 305.373 33.6596 304.368 33.3261C308.887 32.1591 313.238 30.6586 317.589 28.658C318.593 28.1578 319.429 27.8244 320.433 27.3242C320.601 27.4909 320.768 27.6577 320.935 27.8244C321.27 27.9911 321.605 28.1578 322.107 28.3245C322.943 28.658 323.78 28.9914 324.617 28.9914C325.454 29.1581 326.29 28.9914 326.792 28.3245C326.96 27.9911 327.127 27.491 326.792 27.1575C327.796 27.3242 328.8 27.3242 329.805 26.9908C331.143 26.4906 332.649 25.657 333.151 24.1565C333.653 22.6561 332.817 20.9889 331.645 19.9886C330.474 18.9882 328.8 18.6548 327.294 18.9882C326.458 19.1549 325.621 19.6551 324.952 20.1553C324.282 20.6554 323.948 21.4891 323.446 22.1559C323.278 21.9892 323.111 21.9892 323.111 21.8225C322.441 21.6558 321.939 21.8225 321.437 22.3226C320.935 22.8228 320.768 23.3229 320.433 23.9898C320.099 24.6567 319.931 25.4903 319.931 26.3239C319.931 26.4907 319.931 26.4906 320.099 26.6573C314.576 29.4916 308.719 31.659 302.528 32.9927C298.679 31.9924 294.997 30.8253 291.316 29.4916C286.295 27.6577 281.275 25.657 276.088 24.1565C271.904 22.9895 267.72 22.3226 263.37 22.4893C264.206 21.8225 264.708 20.8222 265.378 19.9886C265.545 19.8218 265.545 19.6551 265.712 19.4884C267.218 20.9889 269.394 20.4887 270.9 19.4884C273.075 18.1547 275.251 16.4874 277.259 14.987C277.426 14.8202 277.426 14.4868 277.259 14.3201C275.083 13.1531 272.239 12.1527 269.729 13.153C267.386 14.1534 266.214 16.3207 265.378 18.6548C265.21 18.8215 265.21 18.8215 265.043 18.9882C264.206 19.9885 263.704 21.1556 262.7 21.9892C262.533 22.1559 262.533 22.4893 262.7 22.4893C262.031 22.4893 261.361 22.6561 260.859 22.6561C256.508 23.1562 252.492 24.6567 248.476 26.4906C245.631 25.8237 242.619 25.3236 239.774 24.8234C241.448 24.49 242.954 23.8231 244.46 22.9895C246.301 24.3233 248.643 23.8231 250.317 22.4893C252.325 20.9889 253.496 18.4881 254.668 16.3208C254.835 15.9873 254.668 15.6538 254.333 15.6538C251.99 15.4871 249.647 15.9873 247.639 17.1544C246.803 17.6545 245.966 18.3214 245.464 19.3217C244.962 20.322 244.794 21.3223 243.958 21.9892L243.79 22.1559C241.782 23.323 239.607 24.1565 237.097 23.9898C236.929 23.9898 236.762 24.1565 236.762 24.1565C227.391 22.9895 217.852 22.9895 208.481 24.3233H208.314C209.15 23.4897 209.987 22.6561 210.824 21.8225C211.661 22.1559 212.665 22.3226 213.669 22.3226C215.677 22.1559 217.685 21.4891 219.358 20.322C220.362 19.6551 221.032 18.8215 221.701 17.988C222.371 17.1544 223.04 15.8206 222.873 14.6536C222.873 14.4868 222.538 14.3201 222.371 14.3201H222.203C219.526 14.8203 216.848 14.1534 214.338 15.1537C212.497 15.9873 209.82 17.1543 209.485 19.4884C209.318 20.322 209.653 20.8222 209.987 21.3223C208.983 22.3227 208.146 23.4897 206.975 24.1565C206.808 24.1565 206.808 24.3233 206.808 24.49C202.624 25.1569 198.441 25.9905 194.257 26.9908C194.09 26.8241 194.09 26.4907 193.922 26.3239C193.42 25.4903 192.918 24.6567 192.249 23.8231C192.918 23.8231 193.588 23.4897 194.257 23.3229C194.759 23.9898 195.596 24.49 196.6 24.6567C197.939 24.8235 199.11 24.49 200.281 23.8231C202.457 22.4894 204.13 20.4887 205.134 18.3214C205.804 17.1543 206.138 15.8206 206.473 14.4868C206.473 14.1534 206.306 13.9867 205.971 14.1534C203.628 14.987 201.118 15.1537 198.775 15.8206C196.767 16.4874 194.592 17.8212 193.922 19.9886C193.755 20.4887 193.588 21.1556 193.755 21.6558C193.755 21.9892 193.922 22.4894 194.257 22.6561V22.8228C193.588 22.9895 192.918 23.1562 192.249 23.3229H192.082C191.914 23.1562 191.747 22.9895 191.747 22.8228C190.91 21.9892 190.073 21.3223 189.237 20.8222C189.237 20.8222 189.404 20.8221 189.404 20.6554C191.747 18.8215 192.751 15.9873 192.751 13.153C192.584 9.81865 191.077 6.81771 189.069 4.1502C188.567 3.48332 188.065 2.81647 187.396 2.14959C187.061 1.81615 186.894 1.4827 186.559 1.14926C186.225 0.815824 186.057 0.482385 185.723 0.315665C185.388 -0.0177738 184.886 -0.0177738 184.551 0.315665C184.384 0.649105 184.216 1.14923 184.049 1.48267C183.714 2.31627 183.547 2.98319 183.38 3.81679C183.045 5.48398 183.045 7.15118 183.212 8.81837C183.38 10.3189 183.547 11.986 183.882 13.4865C184.384 15.4871 185.053 17.4878 186.225 19.3217C185.22 18.9882 184.384 18.6548 183.38 18.4881C180.033 17.6545 176.519 17.4878 173.005 17.8212C170.996 17.9879 168.821 18.3214 166.813 18.9882C167.817 17.321 168.486 15.3204 168.821 13.4865C169.156 11.986 169.323 10.4856 169.49 8.81837C169.658 7.15118 169.49 5.48398 169.323 3.81679C169.156 2.98319 168.988 2.14955 168.654 1.48267C168.486 1.14923 168.319 0.649105 168.152 0.315665C167.817 -0.184493 167.482 -0.0177738 166.98 0.315665C166.645 0.649105 166.478 0.982544 166.143 1.14926C165.809 1.4827 165.641 1.81615 165.307 2.14959C164.805 2.81647 164.303 3.48332 163.633 4.1502C161.625 6.81771 160.119 9.81865 159.952 13.153C159.784 15.8206 160.788 18.4881 162.797 20.322C161.29 20.9889 159.617 21.6557 158.111 22.3226C157.107 21.489 156.438 20.322 155.936 19.155C157.274 18.4881 158.111 17.1543 158.446 15.8206C158.948 13.6532 158.278 11.4859 157.442 9.65197C156.94 8.48494 156.27 7.48458 155.601 6.48426C155.434 6.31754 155.266 6.15086 155.099 6.31758C153.593 8.1515 151.919 9.81869 151.25 12.1528C150.915 13.3198 150.915 14.4868 151.083 15.4872C151.25 16.4875 151.752 17.4878 152.589 18.3214C152.923 18.8215 153.425 19.155 154.095 19.3217C154.429 19.3217 154.597 19.3217 154.764 19.3217C154.764 19.3217 154.931 19.4884 155.099 19.4884H155.266C155.434 19.8219 155.601 19.9886 155.601 20.322C156.103 21.1556 156.605 21.9892 157.442 22.6561C156.27 23.323 155.266 23.8231 154.095 24.49C153.76 24.6567 153.425 24.9902 153.091 25.1569L152.923 25.3236C152.756 25.4903 152.421 25.4903 152.254 25.657C149.911 25.1569 147.568 24.8234 145.226 24.3233C145.226 24.1566 145.226 24.1565 145.058 23.9898C143.887 23.1562 143.05 22.1559 142.046 21.1556C142.381 20.6555 142.715 20.1553 142.548 19.3217C142.381 17.1543 139.536 15.8206 137.695 14.987C135.185 13.9867 132.508 14.6535 129.83 14.1534H129.663C129.495 14.1534 129.161 14.3201 129.161 14.4868C128.993 15.6539 129.663 16.8209 130.332 17.8212C131.001 18.8215 131.838 19.4884 132.675 20.1553C134.348 21.3223 136.356 21.9892 138.365 22.1559C139.369 22.1559 140.373 22.1559 141.209 21.6558C142.046 22.4893 142.715 23.3229 143.72 24.1565H143.552C134.181 22.8228 124.81 22.8228 115.271 23.9898C115.271 23.8231 115.104 23.8231 114.937 23.8231C112.594 23.8231 110.251 23.1562 108.243 21.9892C108.243 21.9892 108.243 21.8225 108.076 21.8225C107.239 21.1556 107.071 19.9886 106.569 19.155C106.067 18.1546 105.398 17.4878 104.394 16.9876C102.386 15.8206 100.043 15.3204 97.7003 15.4872C97.3656 15.4872 97.1983 15.8206 97.3656 16.154C98.537 18.3214 99.7084 20.8221 101.717 22.3226C103.39 23.6564 105.733 24.1566 107.574 22.8228C109.08 23.6564 110.586 24.3233 112.259 24.6567C109.247 25.1569 106.402 25.6571 103.557 26.3239C99.5411 24.49 95.5248 22.9895 91.1739 22.4893C90.5046 22.4893 89.8352 22.3226 89.3332 22.3226C89.5005 22.1559 89.5005 21.9892 89.3332 21.8225C88.3291 21.1556 87.8271 19.8219 86.9904 18.8216C86.823 18.6548 86.823 18.6548 86.6557 18.4881C85.819 16.3207 84.4802 13.9867 82.3048 12.9864C79.7946 11.986 77.1172 12.9863 74.7744 14.1534C74.607 14.3201 74.4397 14.6535 74.7744 14.8202C76.9498 16.3207 78.9579 17.9879 81.1334 19.3217C82.8068 20.322 84.9823 20.6554 86.321 19.3217C86.4883 19.4884 86.4883 19.6551 86.6557 19.8218C87.3251 20.6554 87.8271 21.6557 88.6638 22.3226C84.3129 22.1559 80.1293 22.8228 75.9458 23.9898C70.7581 25.3236 65.7379 27.4909 60.7176 29.3249C57.036 30.6586 53.3545 31.8257 49.5056 32.826C43.4813 31.4922 37.6243 29.1581 31.9346 26.4906C32.102 26.4906 32.102 26.3239 32.102 26.1572C32.102 25.3236 31.9346 24.6567 31.6 23.8231C31.4326 23.1563 31.0979 22.6561 30.5959 22.1559C30.0939 21.6558 29.5918 21.489 28.9225 21.6558C28.7551 21.6558 28.5878 21.8225 28.5878 21.9892C28.2531 21.3223 27.7511 20.6554 27.0817 19.9886C26.4123 19.3217 25.5756 18.9883 24.7389 18.8216C23.2328 18.4881 21.5594 18.8215 20.388 19.8218C19.2166 20.8221 18.2125 22.4893 18.8819 23.9898C19.3839 25.4903 20.89 26.3239 22.2288 26.8241C23.2328 27.1575 24.2369 27.1575 25.2409 26.9908C25.0736 27.3242 25.0736 27.8244 25.2409 28.1578C25.743 28.8247 26.5797 28.9914 27.4164 28.8247C28.2531 28.658 29.0898 28.4912 29.9265 28.1578C30.2612 27.9911 30.7632 27.8244 31.0979 27.6577C31.2653 27.4909 31.4326 27.3242 31.6 27.1575C32.604 27.6577 33.4407 28.1578 34.4448 28.4913C38.6283 30.4919 43.1466 31.9924 47.6649 33.1594C46.6608 33.3261 45.6567 33.4929 44.6527 33.8263C33.6081 35.827 22.2288 35.3267 11.3515 32.3258C11.1842 31.6589 11.1842 30.9921 10.8495 30.3252C10.6821 29.6583 10.1801 29.1582 9.67807 28.8247C9.17604 28.4913 8.33933 28.4912 8.00464 28.9914V29.1581C7.00059 28.1578 5.66185 27.6577 4.32311 27.8244C3.48639 27.8244 2.81702 28.1578 2.14765 28.658C1.47828 29.1582 0.808911 29.6583 0.474226 30.4919C-0.362487 31.9924 -0.0278034 33.8263 0.976252 34.9933C2.64968 36.8272 5.66185 36.994 7.66996 35.4935C7.50262 35.8269 7.50262 35.9937 7.66996 36.3271C8.00464 37.1607 9.0087 36.6605 9.51073 36.1604C10.0128 35.6602 10.5148 35.1601 10.8495 34.4932C11.0168 34.1597 11.1842 33.8263 11.3515 33.4929C11.3515 33.3261 11.5188 33.3261 11.5188 33.1594C12.6902 33.4928 13.8616 33.8263 15.033 33.993C25.9103 36.3271 37.2896 36.3271 48.1669 33.8263C48.6689 33.6596 49.0036 33.6596 49.5056 33.4929C53.1872 34.3265 56.8687 34.8266 60.5502 34.9933C65.0685 35.3268 69.7541 34.9933 74.2723 34.1597C79.1253 33.3261 83.8109 31.9924 88.4965 30.6586C93.5167 29.3248 98.537 27.9911 103.557 26.9908C105.733 27.9911 107.908 28.9914 109.916 29.9917C110.753 30.3252 111.59 30.8253 112.594 31.1588C111.757 31.1588 110.92 31.3255 110.084 31.4922C110.084 31.4922 110.084 31.3255 109.916 31.3255C107.741 29.9918 105.733 31.4922 103.725 32.4925C102.553 33.1594 101.382 33.8263 100.21 34.4932C99.5411 34.8266 99.039 35.4935 99.8758 35.9936C100.88 36.4938 102.051 36.6605 103.223 36.6605C104.394 36.6605 105.398 36.6605 106.569 36.1604C108.243 35.4935 109.749 34.1597 110.251 32.3258C111.757 31.9924 113.263 31.9924 114.602 32.1591C117.949 33.4929 121.463 34.6599 125.144 35.3268C126.316 35.4935 127.655 35.6602 128.826 35.8269C128.157 35.9936 127.655 36.3271 126.985 36.4938C126.985 36.4938 126.818 36.4938 126.818 36.3271C124.475 35.6602 122.3 36.8273 120.961 38.6612C119.455 40.6618 119.12 43.3293 117.447 45.33C117.279 45.4967 117.279 45.9968 117.614 45.9968C119.957 46.6637 122.467 45.8301 124.308 44.3296C126.316 42.4957 127.153 39.9949 127.153 37.3274C127.153 37.3274 127.153 37.3274 127.153 37.1607C128.157 36.4938 129.328 36.1604 130.667 35.9936C130.834 35.9936 131.001 35.8269 131.001 35.6602C134.348 35.8269 137.863 35.6602 141.209 34.9933C141.544 34.9933 141.879 34.8266 142.213 34.8266C141.209 35.8269 140.373 36.8273 139.536 37.9943C139.536 37.9943 139.369 37.9943 139.369 37.8276C139.201 37.8276 139.201 37.8276 139.034 37.8276C135.185 36.994 133.177 41.6621 132.508 44.6631C131.671 48.1642 131.504 52.1655 129.328 55.3331C129.161 55.6666 129.328 56 129.663 56C134.014 55.3331 137.36 51.9987 139.536 48.3309C140.707 46.497 141.879 44.3296 142.046 41.9956C142.046 40.6618 141.544 39.1613 140.373 38.3277C141.377 36.994 142.381 35.6602 143.887 34.6599L144.054 34.4932C150.079 33.1594 155.768 30.8253 161.625 28.658C163.801 29.1582 165.809 29.6583 167.984 30.3252C166.311 31.1588 164.805 31.9924 163.299 33.1594C162.964 32.4925 162.462 31.9924 161.793 31.6589C160.956 31.3255 160.119 31.4922 159.282 31.6589C158.446 31.9924 157.776 32.3258 156.94 32.826C156.27 33.3261 155.601 33.8263 155.099 34.3265C152.756 36.6605 151.083 39.6615 150.581 42.9959C150.246 44.8298 150.246 46.6637 150.581 48.4976C150.748 49.3312 150.915 50.3315 151.25 51.1651C151.25 51.3319 151.417 51.6653 151.417 51.832C151.417 51.9987 151.585 52.3322 151.752 52.4989C152.087 52.999 152.756 52.6656 153.091 52.3321C154.764 51.4985 156.103 50.3315 157.442 49.1645C158.78 47.9974 159.952 46.6637 160.956 45.1632C161.96 43.6627 162.462 41.9956 162.797 40.1616C163.131 38.3277 163.299 36.4938 163.299 34.6599C163.299 34.3265 163.299 34.1598 163.299 33.8263C163.633 33.6596 163.968 33.3261 164.303 33.1594C165.641 32.1591 167.147 31.3255 168.821 30.6586L168.988 30.4919C169.825 30.6586 170.829 30.9921 171.666 31.1588V31.3255C172.502 32.1591 173.339 33.1594 173.841 34.1597C172.837 34.8266 172.168 35.8269 171.833 36.8272C171.331 37.9943 171.331 39.4947 171.331 40.6618C171.498 43.3293 172.67 45.9968 173.674 48.3309C174.343 49.6646 175.013 51.1651 175.515 52.6656C175.682 52.999 176.017 52.9991 176.184 52.8323C178.025 50.4983 179.364 47.664 179.698 44.6631C180.033 41.8289 179.363 38.6612 177.69 36.3271C177.188 35.6602 176.686 34.9933 176.017 34.4932C175.515 34.1597 175.013 33.993 174.511 33.993C174.511 33.8263 174.343 33.6596 174.343 33.4929C173.841 32.6593 173.339 31.9924 172.67 31.3255C173.507 31.4922 174.343 31.8257 175.013 31.9924H175.18C175.682 32.1591 176.351 32.3258 176.853 31.9924C177.021 31.9924 177.188 31.8256 177.188 31.6589C177.857 31.4922 178.527 31.3255 179.196 31.1588C179.029 31.8257 179.196 32.4925 179.196 33.1594C179.196 33.1594 179.196 33.3261 179.029 33.3261C177.857 34.8266 178.192 36.994 179.196 38.4944C179.698 39.328 180.368 39.8282 181.204 40.1616C182.041 40.4951 182.71 40.6618 183.547 40.8285C184.384 40.9952 185.388 41.1619 186.225 41.6621C186.392 41.8288 186.727 41.6621 186.727 41.4954C187.396 39.8282 186.727 37.9943 185.723 36.6605C185.22 35.9936 184.718 35.4935 184.049 34.9933C183.38 34.4932 182.71 33.993 182.041 33.6596C181.372 33.3261 180.702 33.1594 179.866 33.1594C179.698 32.6592 179.698 31.9924 179.698 31.4922C179.698 31.3255 179.698 31.3255 179.698 31.1588C180.702 30.8253 181.539 30.6586 182.543 30.3252C182.543 30.3252 182.543 30.4919 182.71 30.4919C184.216 31.1588 185.723 31.9924 187.229 32.9927C187.563 33.1594 187.898 33.4929 188.233 33.6596C188.233 33.993 188.233 34.1597 188.233 34.4932C188.233 36.3271 188.4 38.161 188.735 39.9949C189.069 41.8288 189.739 43.496 190.575 44.9965C191.58 46.497 192.751 47.8307 194.09 48.9978C195.428 50.1648 196.934 51.3319 198.441 52.1655C198.775 52.3322 199.445 52.8323 199.779 52.3321C199.947 52.1654 199.947 51.832 200.114 51.6653C200.114 51.4986 200.281 51.1651 200.281 50.9984C200.616 50.1648 200.783 49.1645 200.951 48.3309C201.118 46.9971 201.285 45.4967 201.118 44.1629C201.453 44.4963 201.955 44.9965 202.457 45.1632C202.959 45.4967 203.461 45.6634 203.963 45.8301C204.465 45.9968 204.967 46.1635 205.302 46.497C205.636 46.9971 205.804 47.4973 205.804 48.1642C205.804 48.4976 206.306 48.4976 206.473 48.3309C207.644 46.1635 208.146 43.6628 207.644 41.162C207.31 38.6612 205.971 36.3271 203.963 34.8266C202.624 33.8263 200.951 33.3262 199.277 33.8263C199.11 33.8263 199.11 34.1597 199.11 34.1597C198.775 33.993 198.441 33.6596 198.106 33.3261C197.102 32.4925 196.265 31.4922 195.763 30.3252C199.612 31.6589 203.294 32.9927 207.31 33.8263C207.31 33.8263 207.31 33.993 207.477 33.993C208.983 34.9933 209.987 36.3271 210.991 37.6608C209.82 38.4944 209.318 39.8282 209.318 41.3287C209.318 43.496 210.657 45.8301 211.828 47.664C214.003 51.3318 217.35 54.6663 221.701 55.3331C222.036 55.3331 222.371 54.9997 222.036 54.6663C219.86 51.6653 219.693 47.664 218.856 43.9962C218.187 41.1619 216.012 36.4938 212.33 37.1607C212.33 37.1607 212.163 37.1607 211.995 37.1607C211.995 37.1607 211.828 37.1607 211.828 37.3274C211.159 36.1603 210.155 35.16 209.15 34.1597C209.485 34.1597 209.82 34.3265 210.155 34.3265C213.501 34.8266 216.848 35.16 220.362 34.9933C220.362 35.16 220.53 35.1601 220.697 35.3268C222.036 35.4935 223.207 35.8269 224.211 36.4938C224.211 36.4938 224.211 36.4938 224.211 36.6605C224.379 39.1613 225.215 41.8288 227.056 43.6628C228.897 45.33 231.407 45.9968 233.75 45.33C234.085 45.1632 234.085 44.8298 233.917 44.6631C232.244 42.8292 231.742 40.1617 230.403 37.9943C229.064 35.9937 226.889 34.8266 224.546 35.6602C224.546 35.6602 224.379 35.6602 224.379 35.8269C223.877 35.4935 223.207 35.3268 222.538 35.16C223.709 34.9933 225.048 34.8266 226.219 34.6599C229.901 33.993 233.415 32.9927 236.762 31.4922C238.268 31.3255 239.774 31.3255 241.113 31.6589C241.615 33.4928 243.121 34.8266 244.794 35.4935C245.799 35.8269 246.97 35.9936 248.141 35.9936C249.145 35.9936 250.484 35.8269 251.488 35.3268C252.325 34.8266 251.823 34.1598 251.154 33.8263C249.982 33.1594 248.811 32.4925 247.639 31.8257C245.799 30.6586 243.623 29.1581 241.448 30.6586C241.28 30.6586 241.28 30.8253 241.28 30.8253C240.444 30.6586 239.607 30.4919 238.77 30.4919C239.607 30.1585 240.444 29.6583 241.448 29.3249C243.623 28.3245 245.631 27.3242 247.807 26.3239C252.827 27.3242 257.847 28.658 262.867 29.9917C267.553 31.3255 272.239 32.6593 277.092 33.4929C281.61 34.3265 286.128 34.4932 290.814 34.3265C294.495 34.1597 298.177 33.6596 301.858 32.826C302.36 32.9927 302.695 32.9927 303.197 33.1594C314.074 35.4935 325.454 35.6602 336.331 33.3261C337.502 32.9927 338.674 32.826 339.845 32.4925C339.845 32.6592 339.845 32.6593 340.012 32.826C340.18 33.1594 340.347 33.4929 340.514 33.8263C340.849 34.4932 341.351 34.9933 341.853 35.4935C342.355 35.8269 343.359 36.4938 343.694 35.6602C343.861 35.3267 343.694 35.16 343.694 34.8266C345.702 36.1603 348.714 36.1604 350.388 34.3265C352.061 33.993 352.396 32.1591 351.559 30.6586ZM323.613 23.4897C323.613 23.323 323.613 23.1562 323.613 22.8228C323.613 22.8228 323.78 22.8228 323.78 22.6561C324.115 21.9892 324.45 21.3223 325.119 20.8222C325.621 20.322 326.123 19.9886 326.792 19.6551C328.131 19.155 329.47 19.3217 330.641 19.9886C331.813 20.6554 332.817 21.9892 332.649 23.3229C332.482 24.6567 331.143 25.4903 330.139 25.9905C329.303 26.3239 328.298 26.4906 327.294 26.4906H327.127C326.625 26.4906 326.123 26.3239 325.621 26.1572C326.123 25.9905 326.625 25.657 326.792 25.1569C326.96 24.8234 326.96 24.49 326.792 24.1565C326.625 23.8231 326.29 23.8231 326.123 23.6564C325.454 23.4897 324.784 23.4897 324.282 23.6564C324.115 23.6564 323.78 23.8231 323.613 23.8231C323.446 23.9899 323.613 23.8231 323.613 23.4897ZM320.601 26.3239C320.601 25.3236 320.935 24.1565 321.605 23.1562C321.772 22.8228 322.107 22.4893 322.609 22.4893C322.776 22.4893 322.944 22.4894 323.111 22.6561C323.278 22.8228 323.111 23.1562 323.111 23.3229C322.944 23.9898 322.776 24.49 322.441 24.9901C322.274 25.3236 322.609 25.6571 322.943 25.4903C323.613 24.8235 324.617 24.49 325.621 24.49C325.956 24.49 326.458 24.6567 326.29 24.9901C326.123 25.1569 325.956 25.3236 325.788 25.4903C325.454 25.6571 325.286 25.8237 324.952 25.8237C324.282 26.1572 323.78 26.3239 323.111 26.4906C322.609 26.6573 322.776 27.3242 323.278 27.1575C323.948 26.9908 324.617 26.9908 325.286 27.1575C325.621 27.1575 325.788 27.3242 326.123 27.4909C326.29 27.6577 326.29 27.8244 326.29 28.1578C325.956 28.658 325.286 28.658 324.784 28.4913C324.115 28.3245 323.446 28.1578 322.776 27.9911C322.441 27.8244 322.107 27.6577 321.772 27.4909C321.605 27.3242 321.27 27.3242 321.103 26.9908C321.103 26.8241 320.935 26.8241 320.768 26.8241C320.768 26.8241 320.768 26.8241 320.601 26.8241C320.601 26.4906 320.601 26.4907 320.601 26.3239ZM273.912 14.6536C271.569 14.6536 269.394 15.4871 267.386 16.8209C267.218 16.9876 267.051 17.1543 266.716 17.321C267.386 15.9873 268.39 14.8202 269.729 14.1534C271.737 13.1531 274.079 13.9867 276.088 14.987C274.414 16.154 272.741 17.3211 271.067 18.4881C269.729 19.3217 267.888 20.322 266.382 19.4884C266.549 19.4884 266.716 19.3217 266.716 19.155C266.716 18.9882 266.549 18.8216 266.382 18.8216C266.716 18.4881 267.051 18.3214 267.386 17.988C269.227 16.6542 271.402 15.8206 273.745 15.8206C274.414 15.4871 274.414 14.6536 273.912 14.6536ZM249.647 18.9882C249.982 18.6548 249.48 17.9879 249.145 18.3214C248.141 19.3217 246.97 20.322 245.799 21.3223C245.799 21.1556 245.966 20.9889 245.966 20.8222C246.301 19.8218 246.97 18.9882 247.974 18.3214C249.647 17.1543 251.823 16.6542 253.831 16.8209C252.994 18.4881 251.99 20.322 250.651 21.6558C249.313 22.9895 247.137 23.8231 245.297 22.8228C246.803 21.6558 248.309 20.322 249.647 18.9882ZM221.199 18.1546C220.697 18.8215 220.028 19.4884 219.358 19.9886C218.02 20.9889 216.346 21.8225 214.673 21.9892C213.836 22.1559 212.33 22.1559 211.493 21.8225C211.661 21.6558 211.828 21.4891 211.995 21.1556C213.501 19.6551 215.342 18.4881 217.35 17.6545C217.35 17.6545 217.35 17.6545 217.518 17.6545C219.024 16.9876 220.697 16.4874 222.203 15.8206C222.203 16.6542 221.534 17.4878 221.199 18.1546ZM210.657 19.8218C210.824 18.8215 211.828 18.1546 212.497 17.6545C213.334 17.1543 214.338 16.4875 215.342 16.154C216.681 15.6539 218.187 15.6538 219.693 15.6538C219.024 15.9873 218.187 16.154 217.518 16.4874C215.342 17.1543 213.501 18.3214 211.828 19.8218C211.493 20.1553 210.991 20.6554 210.657 20.9889C210.657 20.9889 210.489 20.4887 210.657 19.8218ZM194.592 20.6554C194.926 19.8218 195.596 18.9882 196.265 18.4881C197.939 17.1543 200.281 16.6542 202.457 16.3208C203.628 16.154 204.632 15.8206 205.804 15.4872C205.302 17.4878 204.465 19.4884 203.126 20.9889C202.457 21.8225 201.62 22.6561 200.616 23.3229C199.612 23.9898 198.608 24.6567 197.437 24.6567C196.6 24.6567 195.763 24.3233 195.094 23.6564C197.437 22.6561 199.277 20.6554 201.285 19.155C202.122 18.4881 202.959 17.8212 203.796 17.321C204.13 17.1543 203.796 16.4874 203.461 16.6542C200.449 18.4881 198.106 21.4891 194.926 22.9895C194.926 22.8228 194.926 22.6561 194.759 22.4893C194.592 22.4893 194.592 22.3226 194.424 22.3226C194.424 22.1559 194.257 21.9892 194.257 21.8225C194.257 21.489 194.424 20.9889 194.592 20.6554ZM155.936 19.3217C155.768 18.9882 155.768 18.8215 155.601 18.4881C155.266 17.4878 154.931 16.6542 154.764 15.6538C154.429 14.6535 154.262 13.6532 154.429 12.4862C154.429 11.4859 154.764 10.3188 155.266 9.48524C155.434 9.1518 154.931 8.81835 154.764 9.15178C153.593 10.9857 153.593 13.3198 154.095 15.3204C154.262 16.3207 154.597 17.3211 154.931 18.4881C155.099 18.8215 155.099 19.155 155.266 19.3217C155.266 19.3217 155.266 19.3217 155.266 19.4884C155.099 19.8219 154.597 19.8219 154.429 19.6551C154.095 19.4884 153.76 19.155 153.425 18.8216C152.756 18.1547 152.421 17.321 152.254 16.4874C151.752 14.4868 152.589 12.3195 153.76 10.819C154.429 9.98538 155.099 9.15178 155.768 8.31819C156.27 8.98506 156.772 9.81865 157.107 10.6522C157.609 11.4858 157.944 12.4862 158.278 13.4865C158.446 14.4868 158.613 15.4871 158.446 16.4874C158.278 17.321 157.944 17.9879 157.442 18.6548C156.94 18.6548 156.438 18.9882 155.936 19.3217ZM137.863 21.9892C136.189 21.6558 134.516 20.9889 133.177 19.9886C132.508 19.4884 131.838 18.8215 131.504 18.1546C131.169 17.6545 130.499 16.8209 130.332 15.9873C131.838 16.6542 133.512 17.1543 135.018 17.8212C135.018 17.8212 135.018 17.8212 135.185 17.8212C137.193 18.4881 139.034 19.6551 140.54 21.3223C140.707 21.4891 140.875 21.6558 141.042 21.9892C140.205 22.1559 138.699 22.1559 137.863 21.9892ZM141.711 21.3223C141.377 20.9889 140.875 20.4887 140.54 20.1553C138.867 18.6548 137.026 17.4878 134.85 16.8209C134.181 16.4875 133.344 16.3207 132.675 15.9873C134.181 15.9873 135.687 15.9873 137.026 16.4874C138.03 16.8209 139.034 17.3211 139.871 17.988C140.707 18.4881 141.544 19.155 141.711 20.1553C142.213 20.4887 142.046 20.9889 141.711 21.3223ZM102.219 21.489C100.88 20.1553 99.8758 18.3214 99.039 16.6542C101.047 16.4874 103.223 16.9876 104.896 18.1546C105.9 18.8215 106.402 19.6551 106.904 20.6554C106.904 20.8221 107.071 20.9889 107.071 21.1556C105.9 20.322 104.729 19.1549 103.725 18.1546C103.39 17.8212 102.721 18.3214 103.223 18.8216C104.561 20.1553 106.067 21.489 107.741 22.4893C105.733 23.6564 103.557 22.8228 102.219 21.489ZM85.9863 19.3217C84.4802 20.322 82.6395 19.3217 81.3007 18.3214C79.6273 17.1543 77.9539 15.9873 76.2804 14.8202C78.1212 13.9866 80.6313 13.153 82.6395 13.9866C84.1455 14.6535 84.9823 15.8206 85.6516 17.1544C85.4843 16.9876 85.3169 16.8209 84.9823 16.6542C83.1415 15.3204 80.7987 14.6535 78.4559 14.4868C77.9539 14.4868 77.9539 15.3204 78.4559 15.3204C80.7987 15.3204 82.9742 16.154 84.8149 17.4878C85.1496 17.8212 85.4843 17.9879 85.819 18.3214C85.6516 18.3214 85.4843 18.4881 85.4843 18.6548C85.6516 19.155 85.819 19.3217 85.9863 19.3217ZM25.743 26.4906H25.5756C24.5716 26.6573 23.5675 26.4906 22.7308 25.9905C21.5594 25.4903 20.388 24.6567 20.2207 23.3229C20.0533 21.9892 21.0574 20.6554 22.2288 19.9886C23.4002 19.3217 24.9062 19.155 26.0776 19.6551C26.747 19.9886 27.249 20.322 27.7511 20.8222C28.2531 21.3223 28.5878 21.9892 29.0898 22.6561C29.0898 22.6561 29.0898 22.8228 29.2572 22.8228C29.2572 22.9895 29.2572 23.323 29.2572 23.4897C29.2572 23.6564 29.4245 23.8231 29.4245 23.9898C29.2572 23.8231 28.9225 23.8231 28.7551 23.8231C28.0858 23.6564 27.4164 23.6564 26.9144 23.8231C26.5797 23.8231 26.4123 23.9898 26.245 24.3233C26.0777 24.6567 26.0777 24.9902 26.245 25.3236C26.4123 25.8238 26.9144 25.9905 27.4164 26.3239C26.747 26.3239 26.245 26.4906 25.743 26.4906ZM32.102 26.6573C31.9346 26.6573 31.9346 26.8241 31.7673 26.8241C31.7673 27.1575 31.4326 27.1575 31.0979 27.3242C30.7632 27.4909 30.4286 27.6577 30.0939 27.8244C29.4245 27.9911 28.7551 28.3245 28.0858 28.3245C27.5837 28.3245 26.747 28.3246 26.5797 27.9911C26.4123 27.8244 26.5797 27.4909 26.747 27.3242C26.9144 27.1575 27.2491 26.9908 27.5837 26.9908C28.2531 26.8241 28.9225 26.8241 29.5918 26.9908C30.0939 27.1575 30.2612 26.4907 29.7592 26.3239C29.0898 26.1572 28.4204 25.9905 27.9184 25.657C27.5837 25.4903 27.4164 25.4903 27.0817 25.3236C26.9144 25.1569 26.747 25.1569 26.5797 24.8234C26.4123 24.49 26.9144 24.3233 27.249 24.3233C28.2531 24.3233 29.2572 24.6567 29.9265 25.3236C30.2612 25.657 30.7632 25.1569 30.4286 24.8234C30.0939 24.3233 29.7592 23.8231 29.7592 23.1562C29.7592 22.9895 29.5918 22.6561 29.7592 22.4893C29.7592 22.3226 30.0939 22.3226 30.2612 22.3226C30.5959 22.3226 30.9306 22.6561 31.2653 22.9895C31.9346 23.8231 32.102 24.9902 32.2693 26.1572C32.102 26.4906 32.102 26.4906 32.102 26.6573ZM5.32716 35.9936C4.15576 35.9936 2.81702 35.4935 2.14765 34.4932C1.64562 33.993 1.47828 33.3261 1.47828 32.4925C1.47828 31.8256 1.81297 31.1588 2.14765 30.6586C2.98437 29.6583 4.32311 28.8247 5.66185 28.8247C6.83325 28.8247 8.00464 29.3249 8.67402 30.3252L8.84136 30.4919C9.0087 30.8254 9.17604 31.1588 9.34338 31.4922C9.51073 31.6589 9.67807 31.9924 9.67807 32.1591C9.0087 32.1591 8.50667 32.3258 8.00464 32.6593C7.50262 32.9927 7.16793 33.6596 7.50262 34.1597C7.66996 34.3264 8.00465 34.4932 8.17199 34.4932C8.33933 34.4932 8.50667 34.4932 8.84136 34.4932C7.8373 35.4935 6.49856 35.9936 5.32716 35.9936ZM10.8495 34.6599C10.5148 35.1601 10.1801 35.4935 9.84541 35.8269C9.67807 35.9936 9.51073 36.1604 9.17604 36.1604C9.17604 36.1604 9.17604 36.1604 9.0087 36.1604C9.0087 36.1604 9.0087 36.1604 9.0087 35.9936C9.0087 35.8269 9.17604 35.6602 9.34338 35.4935C9.51073 35.3268 9.67807 35.16 9.84541 34.9933C10.1801 34.6599 10.6821 34.4932 11.0168 34.3265C11.0168 34.3265 10.8495 34.4932 10.8495 34.6599ZM11.5188 33.3261C11.3515 33.6596 11.3515 33.8263 11.3515 33.8263C11.3515 33.6596 11.1842 33.4929 10.8495 33.4929C10.1801 33.6596 9.67807 33.8263 9.0087 33.8263C8.67402 33.8263 8.50667 33.8263 8.17199 33.6596C8.00465 33.6596 7.8373 33.6596 8.00464 33.4929C8.00464 33.3261 8.33933 33.1594 8.50667 32.9927C8.67401 32.826 9.0087 32.826 9.34338 32.6593C9.67807 32.6593 9.84541 32.6593 10.1801 32.6593H10.3474C10.5148 32.826 10.5148 32.826 10.6821 32.9927C10.8495 33.1594 11.1842 33.1594 11.1842 32.826C11.3515 32.3258 11.0168 32.1591 10.6821 31.9924C10.3474 31.6589 10.1801 31.3255 9.84541 30.8253C9.67807 30.4919 9.51073 30.3252 9.51073 29.9917C9.51073 29.825 9.34339 29.4916 9.51073 29.3249C9.51073 29.3249 9.67807 29.3249 9.67807 29.1581C9.84541 29.1581 9.84542 29.1581 10.0128 29.1581C10.1801 29.1581 10.3474 29.3249 10.5148 29.4916C11.1842 30.1585 11.3515 31.1588 11.5188 32.1591C11.3515 32.826 11.3515 33.1594 11.5188 33.3261C11.5188 33.1594 11.5188 33.3261 11.5188 33.3261ZM86.6557 30.9921C81.9701 32.3258 77.2845 33.4928 72.4316 34.1597C67.9133 34.8266 63.2277 34.8266 58.7095 34.3265C56.3667 34.1597 54.1912 33.8263 51.8484 33.3261C61.3869 30.6586 70.2561 26.1572 79.962 24.1565C85.3169 22.9895 90.6719 22.9895 95.8595 24.3233C98.2023 24.9902 100.545 25.8238 102.721 26.8241C97.533 28.1578 92.0107 29.4916 86.6557 30.9921ZM101.884 35.9936C101.717 35.9936 101.382 35.8269 101.214 35.8269C101.214 35.8269 101.047 35.8269 101.047 35.9936L101.382 35.8269C101.884 35.6602 102.219 35.3268 102.721 35.16L105.231 33.8263C106.737 32.9927 108.243 31.8256 109.749 32.4925C108.243 32.826 106.737 33.4929 105.398 34.3265C104.896 34.6599 105.398 35.3268 105.9 34.9933C107.239 34.1597 108.578 33.4928 110.084 33.1594C108.745 36.1603 104.729 36.8272 101.884 35.9936ZM124.642 44.1629C123.136 45.4967 121.128 46.3303 119.287 45.9968C120.459 44.4963 120.961 42.4957 121.965 40.8285C122.969 38.8279 124.642 37.3274 126.985 37.6608C126.316 38.161 125.647 38.6612 125.144 39.328C123.638 41.162 122.969 43.6628 120.794 44.6631C120.292 44.8298 120.794 45.6634 121.296 45.33C123.304 44.3296 124.14 42.329 125.312 40.4951C125.814 39.6615 126.651 38.9946 127.32 38.3277C126.985 40.4951 126.149 42.6624 124.642 44.1629ZM141.544 44.1629C141.042 45.9968 140.038 47.8307 138.867 49.3312C137.026 52.1654 134.348 54.6662 131.001 55.6665C132.508 53.1657 132.842 50.1648 133.512 47.1639C133.846 45.4967 134.348 43.8294 135.185 42.329C136.022 40.8285 137.528 38.9946 139.536 39.4948H139.703C137.193 43.8295 136.022 49.1645 132.842 53.1657C132.508 53.4992 133.177 54.1661 133.512 53.6659C136.858 49.6647 137.863 44.1629 140.54 39.8282C141.879 40.6618 142.046 42.6624 141.544 44.1629ZM163.131 34.1597V34.3265C162.462 34.8266 161.793 35.4935 161.123 36.1604C158.78 38.4945 156.94 41.1619 155.434 43.9962C154.597 45.6634 153.927 47.3306 153.258 49.1645C153.091 49.6646 153.76 49.8314 153.927 49.3312C154.931 46.3303 156.27 43.3293 158.111 40.6618C159.45 38.6611 161.123 36.8273 162.964 35.3268C162.964 38.4944 162.797 41.6621 161.458 44.4964C160.788 45.9968 159.784 47.3306 158.613 48.4976C157.442 49.6647 156.103 50.8317 154.764 51.832C154.429 51.9987 154.095 52.3322 153.593 52.4989C153.425 52.6656 153.258 52.6656 153.091 52.8323C152.923 52.8323 152.923 52.9991 152.756 52.9991H152.589V52.8323C152.589 52.6656 152.589 52.6656 152.421 52.4989C152.421 52.3322 152.254 51.9987 152.254 51.832C152.087 51.3318 151.919 50.9984 151.919 50.4983C151.585 48.8311 151.417 46.9972 151.585 45.33C151.752 42.1623 153.091 39.1613 155.099 36.6605C156.103 35.4935 157.274 34.4932 158.446 33.6596C159.617 32.9927 161.458 32.1591 162.629 33.1594C162.964 33.6596 163.131 33.8263 163.131 34.1597ZM174.511 35.8269C174.678 35.8269 174.678 35.8269 174.845 35.6602C175.18 36.1603 175.347 36.8272 175.515 37.3274C176.351 39.4947 176.519 41.9956 176.519 44.3296C176.519 45.6634 176.519 47.1639 176.351 48.4976C176.351 48.9978 177.021 48.9978 177.021 48.4976C177.188 45.9968 177.355 43.3293 177.021 40.8285C176.853 38.9946 176.351 37.1607 175.515 35.6602C175.849 35.6602 176.017 35.8269 176.351 35.9936C176.853 36.3271 177.355 36.994 177.69 37.4941C178.527 38.6612 179.029 39.8282 179.363 41.162C180.033 43.8295 179.698 46.6637 178.694 49.1645C178.192 50.4982 177.523 51.6653 176.686 52.6656C175.849 50.3315 174.678 48.1642 173.841 45.8301C173.005 43.496 172.335 40.8285 173.005 38.3277C173.005 37.6608 173.507 36.4938 174.511 35.8269C174.343 35.8269 174.343 35.8269 174.511 35.8269ZM212.163 39.8282C214.84 44.1629 215.844 49.6647 219.191 53.6659C219.526 53.9994 220.195 53.4992 219.86 53.1657C216.681 49.1645 215.51 43.8295 212.999 39.4948H213.167C215.175 38.9946 216.681 40.8285 217.518 42.329C218.354 43.8294 218.856 45.4967 219.191 47.1639C219.86 49.9981 220.195 52.999 221.701 55.6665C218.354 54.6662 215.677 52.1654 213.836 49.3312C212.832 47.664 211.661 45.9968 211.159 44.1629C210.657 42.6624 210.824 40.6618 212.163 39.8282ZM232.076 44.4964C229.901 43.496 229.064 40.9952 227.726 39.1613C227.224 38.4944 226.554 37.9943 225.885 37.4941C228.06 37.1607 229.901 38.6611 230.905 40.6618C231.742 42.329 232.411 44.3296 233.583 45.8301C231.574 46.1635 229.566 45.4966 228.228 43.9962C226.721 42.4957 225.885 40.3283 225.717 38.161C226.554 38.8279 227.224 39.4948 227.726 40.3284C228.897 41.9956 229.734 44.1629 231.742 45.1632C232.076 45.4967 232.578 44.8298 232.076 44.4964ZM247.472 34.1597C246.133 33.3261 244.627 32.6592 243.121 32.3258C244.794 31.6589 246.301 32.826 247.639 33.6596L250.149 34.9933C250.651 35.16 250.986 35.4935 251.488 35.6602L251.823 35.8269C251.823 35.8269 251.656 35.8269 251.656 35.6602C251.488 35.6602 251.153 35.8269 250.986 35.8269C247.974 36.6605 244.125 35.9937 242.954 32.826C244.46 33.1594 245.799 33.8263 247.137 34.6599C247.472 35.1601 247.974 34.4932 247.472 34.1597ZM194.257 28.4913C194.592 28.9914 194.759 29.6583 195.094 30.1585C194.09 29.825 193.086 29.3248 192.082 28.9914C192.751 28.8247 193.42 28.658 194.257 28.4913ZM190.241 23.1562C191.245 24.1565 192.249 25.1569 193.086 26.3239C193.42 26.8241 193.588 27.1575 193.922 27.6577C192.918 27.9911 191.747 28.1578 190.743 28.4913C188.902 27.8244 187.061 27.1575 185.22 26.4906C185.388 26.3239 185.723 25.9905 185.89 25.8237C185.89 25.8237 186.057 25.8237 186.057 25.657C187.229 24.6567 188.065 23.323 188.735 21.9892V21.8225C189.237 22.3226 189.739 22.6561 190.241 23.1562ZM184.384 13.153C184.049 11.6526 183.882 10.1521 183.882 8.65164C183.882 7.15117 183.882 5.48394 184.216 3.98347C184.384 3.31659 184.551 2.48301 184.886 1.81613C184.886 1.64941 185.053 1.64939 185.053 1.48267L185.22 1.6494C185.555 1.98284 185.723 2.14956 186.057 2.483C187.061 3.65004 188.065 4.81709 189.069 6.15085C190.743 8.65165 192.082 11.8193 191.914 14.8202C191.747 16.9876 190.743 18.9883 189.237 20.322C189.906 18.1547 189.906 15.9873 189.571 13.82C189.069 10.4856 187.898 7.4846 186.727 4.31693C186.727 4.15021 186.559 3.98348 186.225 4.1502C186.057 4.1502 185.89 4.48367 186.057 4.65038C186.727 6.31758 187.396 7.98474 187.898 9.81865C188.735 12.6529 189.404 15.6539 188.902 18.4881C188.735 19.3217 188.567 20.1553 188.233 20.9889C188.065 20.9889 187.898 20.8222 187.898 20.8222C187.731 20.6554 187.396 20.6555 187.229 20.4887C185.723 18.3214 184.886 15.6538 184.384 13.153ZM171.498 19.4884C174.845 18.9883 178.359 18.9883 181.706 19.6551C183.38 19.9886 185.053 20.322 186.727 20.9889C187.061 21.489 187.396 21.8225 187.731 22.3226C187.229 23.3229 186.559 24.3233 185.723 25.1569C185.723 25.1569 185.555 25.1569 185.555 25.3236L184.384 26.4906C184.049 26.3239 183.714 26.3239 183.38 26.1572C182.376 25.8238 181.372 25.4903 180.2 25.1569C180.2 24.9902 180.368 24.8234 180.368 24.8234C180.535 24.49 180.702 24.1565 180.535 23.9898C180.368 23.6564 180.033 23.6564 179.698 23.4897C178.527 22.9895 177.355 22.4894 176.017 22.8228C174.678 23.1562 173.674 23.9898 172.837 24.8234C172.67 24.9901 172.67 24.9902 172.67 25.1569C171.498 25.4903 170.16 25.8238 168.988 26.1572C168.654 26.3239 168.319 26.3239 167.984 26.4906L166.813 25.3236C166.813 25.3236 166.645 25.3236 166.645 25.1569C165.809 24.3233 165.139 23.3229 164.637 22.3226C165.139 21.8225 165.474 21.1556 165.976 20.4887C167.984 20.1553 169.825 19.6551 171.498 19.4884ZM178.192 24.8234C177.523 24.8234 177.021 24.8234 176.519 24.8234C175.682 24.6567 174.678 24.8234 173.841 24.9901C174.511 24.49 175.18 23.8231 175.849 23.6564C176.853 23.323 177.857 23.4897 178.861 23.8231C179.196 23.9899 179.364 23.9898 179.698 24.1565C179.866 24.1565 179.866 24.3233 180.033 24.3233C179.866 24.49 179.866 24.8234 179.698 24.9901C179.196 24.8234 178.694 24.8234 178.192 24.8234ZM179.029 25.4903C178.527 25.9905 177.857 26.1572 177.021 26.1572C176.519 26.1572 175.849 25.9905 175.347 25.8237C175.013 25.8237 174.678 25.6571 174.511 25.4903C175.18 25.3236 175.849 25.3236 176.519 25.4903C177.021 25.4903 177.523 25.6571 178.192 25.4903C178.359 25.4903 178.694 25.4903 179.029 25.4903ZM164.805 21.489C164.805 21.3223 164.805 21.3223 164.805 21.489C164.637 21.3223 164.47 21.3223 164.47 21.3223C164.805 21.1556 164.972 21.1556 165.307 21.1556L165.139 21.3223C164.972 21.1556 164.972 21.3223 164.805 21.489ZM160.956 14.987C160.788 11.8193 161.96 8.81837 163.801 6.31758C164.637 4.98382 165.641 3.81677 166.813 2.64973C167.147 2.31629 167.315 2.14957 167.65 1.81613L167.817 1.6494C167.817 1.81612 167.984 1.81614 167.984 1.98286C168.319 2.64974 168.486 3.48332 168.654 4.1502C168.988 5.65067 169.156 7.3179 168.988 8.81837C168.988 10.3189 168.821 11.8193 168.486 13.3198C167.984 15.6538 167.148 18.1547 165.976 20.1553C165.474 20.322 164.972 20.4887 164.47 20.6554C164.303 19.9885 164.135 19.3217 163.968 18.6548C163.466 15.6539 164.135 12.8196 164.972 9.98538C165.474 8.31818 166.143 6.48426 166.813 4.81706C166.813 4.65034 166.813 4.48364 166.645 4.31693C166.478 4.31693 166.311 4.31694 166.143 4.48366C164.972 7.48461 163.801 10.6522 163.299 13.9866C162.964 16.154 163.131 18.4881 163.633 20.4887C161.96 19.155 160.956 16.9876 160.956 14.987ZM137.695 35.4935C132.173 35.9937 126.483 35.3268 120.961 33.8263C119.455 33.3262 117.949 32.826 116.443 32.3258C116.443 32.1591 116.275 31.9924 116.108 31.9924C115.773 31.9924 115.606 31.9924 115.271 31.8257C112.259 30.4919 109.247 28.9914 106.235 27.6577C105.9 27.4909 105.565 27.3242 105.231 27.1575C109.414 26.3239 113.431 25.657 117.614 25.1569C127.487 24.1566 137.193 24.49 146.899 26.1572C151.417 26.9908 155.936 27.9911 160.454 28.9914C153.258 31.8256 145.895 34.8266 137.695 35.4935ZM162.127 28.4913C159.282 27.8244 156.605 27.1575 153.76 26.4906H153.927C154.095 26.4906 154.095 26.3239 154.095 26.3239C156.605 24.6567 159.45 23.1562 162.295 21.9892C162.797 21.8225 163.299 21.6557 163.801 21.489C163.968 21.489 163.968 21.6558 164.135 21.6558C164.135 21.8225 164.303 21.9892 164.303 22.1559C164.972 23.4897 165.809 24.8234 166.98 25.8237C166.98 25.8237 167.147 25.8238 167.147 25.9905C167.315 26.1572 167.65 26.4906 167.817 26.6573C165.809 27.1575 163.968 27.8244 162.127 28.4913ZM180.702 36.1604C181.372 37.3274 182.376 38.3277 183.547 39.1613C184.216 39.6615 184.886 40.1617 185.555 40.4951C185.89 40.6618 186.225 40.1616 185.89 39.9949C183.882 38.6612 181.706 37.1607 180.87 34.9933C182.041 34.9933 183.38 35.6602 184.216 36.4938C184.718 36.9939 185.388 37.4941 185.723 37.9943C186.225 38.4945 186.559 39.1613 186.894 39.9949C187.061 40.6618 187.229 41.4954 187.061 42.1623C185.723 41.4954 184.216 41.4954 182.878 40.9952C182.208 40.8285 181.539 40.4951 181.037 39.8282C180.535 39.1613 180.2 38.3277 180.033 37.4941C179.866 36.6605 180.033 35.8269 180.368 35.16C180.368 35.4935 180.535 35.8269 180.702 36.1604ZM180.2 31.3255C179.029 31.659 177.857 31.9924 176.686 32.3258C176.519 32.3258 176.351 32.4925 176.351 32.6593H176.184H176.017C176.017 32.4925 175.849 32.4925 175.682 32.4925C174.511 32.1591 173.339 31.8256 172.168 31.4922C169.156 30.6586 166.311 29.825 163.299 29.1581C166.478 27.9911 169.658 26.8241 172.837 25.9905H173.005C173.172 25.9905 173.339 25.8237 173.339 25.8237C173.674 26.1572 174.009 26.4906 174.511 26.6573C175.013 26.8241 175.682 26.9908 176.184 26.9908C177.355 27.1575 178.359 26.8241 179.196 26.1572C179.196 26.1572 179.196 26.1572 179.363 25.9905C182.543 26.8241 185.723 27.9911 188.902 29.1581C186.225 29.6583 183.212 30.4919 180.2 31.3255ZM200.616 50.665C200.449 51.1651 200.449 51.4986 200.281 51.9987C200.281 52.1655 200.114 52.4989 200.114 52.6656C200.114 52.8323 200.114 52.8323 199.947 52.9991V53.1657H199.779C199.612 53.1657 199.612 52.9991 199.445 52.9991C199.277 52.8323 199.11 52.8323 198.943 52.6656C198.608 52.4989 198.273 52.1655 197.771 51.9987C196.432 50.9984 195.094 49.8314 193.922 48.6643C192.751 47.4973 191.747 46.1636 191.077 44.6631C189.739 41.8289 189.571 38.6612 189.571 35.4935C191.412 36.994 193.086 38.8279 194.424 40.8285C196.265 43.496 197.604 46.497 198.608 49.4979C198.775 49.9981 199.445 49.6647 199.277 49.3312C198.775 47.4973 197.939 45.8301 197.102 44.1629C195.596 41.3287 193.755 38.6612 191.412 36.3271C190.743 35.6602 190.073 35.1601 189.404 34.4932V34.3265C189.404 34.3265 189.404 34.3264 189.404 34.1597C189.571 33.993 189.739 33.6596 189.906 33.4929C191.245 32.4925 192.918 33.1594 194.09 33.993C195.428 34.8266 196.6 35.8269 197.437 36.994C199.11 38.9946 200.281 41.3287 200.616 43.8295C200.616 43.8295 200.616 43.9962 200.616 44.1629C200.616 44.1629 200.616 44.1629 200.616 44.3296C200.616 44.8298 200.783 45.1632 200.783 45.6634C201.285 47.1638 201.118 48.9978 200.616 50.665ZM200.281 35.6602C201.62 35.16 202.959 35.6602 203.963 36.3271C204.967 36.994 205.804 37.9943 206.306 38.9946C207.477 40.9952 207.812 43.3293 207.644 45.4967C207.477 46.497 207.31 47.3306 206.808 48.3309C206.808 48.1642 206.64 47.8307 206.473 47.664C206.473 47.664 206.64 47.4973 206.473 47.3306C206.138 44.8298 205.804 42.1623 204.465 39.9949C203.796 38.8279 202.791 37.8276 201.787 36.994C201.118 36.4938 200.616 35.9936 199.947 35.6602C200.114 35.6602 200.281 35.6602 200.281 35.6602ZM199.612 36.1604C200.114 36.4938 200.616 36.8273 200.951 37.1607C201.955 37.9943 203.126 38.8279 203.796 39.8282C204.465 40.8285 204.967 41.9955 205.302 43.1626C205.636 44.3296 205.804 45.4967 205.971 46.8304C205.804 46.6637 205.636 46.6637 205.469 46.497C205.134 46.3302 204.8 46.3303 204.632 46.3303C204.465 46.3303 204.13 46.1635 203.963 45.9968C203.461 45.8301 202.959 45.4967 202.624 45.1632C202.289 44.8298 201.955 44.3296 201.62 43.8295C201.285 41.9956 200.616 40.1616 199.612 38.4944C199.612 38.3277 199.612 38.3277 199.612 38.161C199.445 37.4941 199.277 36.8273 199.612 36.1604ZM198.943 35.6602C198.775 36.1603 198.608 36.6605 198.775 37.1607C198.273 36.4938 197.771 35.8269 197.102 35.3268C196.6 34.8266 195.93 34.1598 195.261 33.8263C194.592 33.3262 193.755 32.826 192.918 32.6593C192.082 32.3258 191.245 32.3258 190.408 32.6593C189.739 32.9927 189.069 33.3261 188.902 34.1597C187.396 32.9927 185.89 32.1591 184.216 31.3255C186.392 30.8254 188.4 30.1585 190.575 29.6583C192.249 30.3252 193.922 30.9921 195.763 31.6589C195.763 31.6589 195.763 31.8257 195.93 31.8257C196.265 33.3261 197.604 34.4931 198.943 35.6602ZM246.301 27.6577C243.288 29.1581 240.276 30.6586 237.264 31.8257C236.929 31.8257 236.762 31.8257 236.427 31.9924C236.26 31.9924 236.093 32.1591 236.093 32.3258C234.587 32.9927 233.081 33.4929 231.574 33.8263C226.219 35.3268 220.53 35.8269 214.84 35.4935C208.314 34.9933 201.955 32.826 195.93 30.6586C195.596 29.9917 195.261 29.1581 194.926 28.4913C198.441 27.6577 201.955 26.9908 205.469 26.3239C215.175 24.6567 224.881 24.3233 234.754 25.3236C238.937 25.8238 243.121 26.4906 247.137 27.3242C246.803 27.3242 246.635 27.4909 246.301 27.6577ZM293.826 34.3265C289.308 34.8266 284.622 34.6599 280.104 34.1597C275.251 33.4928 270.565 32.3258 265.88 30.9921C260.525 29.4916 255.17 28.1578 249.647 26.9908C251.823 25.9905 254.166 25.1569 256.508 24.49C261.696 22.9895 267.218 23.1562 272.406 24.3233C282.112 26.3239 290.981 30.8253 300.52 33.4929C298.511 33.8263 296.169 34.1597 293.826 34.3265ZM343.694 36.1604C343.694 36.1604 343.527 36.1604 343.694 36.1604C343.359 36.1604 343.192 35.9936 342.857 35.8269C342.523 35.4935 342.021 35.1601 341.853 34.6599C341.686 34.4932 341.686 34.3264 341.519 34.1597C342.021 34.3264 342.355 34.4932 342.69 34.8266C342.857 34.9933 343.025 35.1601 343.192 35.3268C343.527 35.6602 343.527 35.8269 343.694 36.1604C343.694 35.9937 343.694 36.1604 343.694 36.1604ZM343.694 33.8263C343.025 33.8263 342.355 33.6596 341.853 33.4929C341.686 33.4929 341.518 33.4929 341.351 33.8263C341.351 33.6596 341.184 33.6596 341.184 33.4929V33.3261C341.351 33.1594 341.351 32.826 341.184 32.6593C341.351 31.6589 341.519 30.6586 342.188 29.9917C342.355 29.825 342.523 29.6583 342.69 29.6583C342.857 29.6583 342.857 29.6583 343.025 29.6583C343.025 29.6583 343.192 29.6583 343.192 29.825C343.359 29.9917 343.192 30.3252 343.192 30.4919C343.025 30.8254 343.025 30.9921 342.857 31.3255C342.69 31.659 342.355 32.1591 342.021 32.4925C341.686 32.6592 341.351 32.826 341.519 33.3261C341.519 33.6596 341.853 33.6596 342.021 33.4929C342.188 33.3261 342.188 33.3261 342.355 33.1594H342.523C342.857 33.1594 343.025 33.1594 343.359 33.1594C343.694 33.1594 343.861 33.3261 344.196 33.4929C344.363 33.6596 344.698 33.6596 344.698 33.993C344.698 34.1597 344.531 34.1597 344.531 34.1597C344.196 33.8263 343.861 33.8263 343.694 33.8263ZM350.722 34.4932C349.886 35.4935 348.714 35.9936 347.543 35.9936C346.204 35.9936 345.033 35.4935 344.029 34.4932C344.196 34.4932 344.363 34.4932 344.698 34.4932C345.033 34.4932 345.2 34.3264 345.367 34.1597C345.702 33.6596 345.367 32.9927 344.865 32.6593C344.363 32.3258 343.694 32.1591 343.192 32.1591C343.359 31.9924 343.527 31.8256 343.527 31.4922C343.694 31.1588 343.861 30.8254 344.029 30.4919C344.029 30.4919 344.196 30.4919 344.196 30.3252C344.865 29.3249 346.037 28.8247 347.208 28.8247C348.547 28.8247 349.886 29.6583 350.722 30.6586C351.224 31.1588 351.392 31.8256 351.392 32.4925C351.392 33.1594 351.057 33.8263 350.722 34.4932Z" fill="#BCB683"/>
</svg>
