<svg width="267" height="53" viewBox="0 0 267 53" fill="none" xmlns="http://www.w3.org/2000/svg">
<path d="M2.01451 39.5892C3.3884 40.7605 5.13696 41.3461 6.76064 41.229C8.38432 40.9947 9.8831 39.9406 10.3827 38.535C10.6325 37.8323 10.6325 37.1295 10.5076 36.4267C10.2578 35.8411 9.88311 35.2554 9.25861 34.7869C8.50922 34.3184 7.63493 33.967 6.76064 34.0841C6.13615 34.2013 5.51167 34.4355 5.13698 34.904C5.01207 35.0212 4.88716 35.2554 4.88716 35.4897C4.38757 35.4897 4.01288 35.7239 3.76308 35.9582C3.63818 36.0753 3.51328 36.3096 3.51328 36.5438C3.38837 36.5438 3.26349 36.7781 3.26349 36.8952C3.26349 37.0124 3.26346 37.2466 3.38837 37.2466C3.38837 37.3637 3.51328 37.3638 3.51328 37.3638C4.13776 37.8323 4.88716 38.1836 5.51166 38.3008C6.38595 38.4179 7.13535 38.3008 7.63495 37.7151C7.88474 37.3637 8.00961 37.0124 7.75982 36.661C7.63492 36.3096 7.26025 36.0753 7.01045 35.8411C6.63576 35.6068 6.26106 35.4897 5.76147 35.3725C6.01126 35.0212 6.38595 34.7869 6.76064 34.7869C7.26024 34.6698 7.75985 34.7869 8.25944 35.1383C9.25863 35.724 9.88313 36.8952 9.50842 37.9494C9.13373 39.1207 8.00963 40.0577 6.76064 40.292C5.38676 40.5262 3.88795 40.0577 2.76387 39.1207C0.890396 37.598 0.265915 34.904 1.1402 32.4443C1.51489 31.273 2.26431 30.2189 3.26349 29.399C4.26268 28.5791 5.51166 27.9934 6.88555 27.7592C9.75822 27.0564 13.0056 27.8763 14.8791 29.6333C15.1288 29.8675 15.2537 30.1018 15.5035 30.336V30.4532C18.7509 34.0842 22.8726 36.7781 27.6187 38.535C27.3689 38.6522 27.1191 38.7693 26.9942 38.8864L26.8693 39.0035C26.6195 39.1207 26.4946 39.2378 26.2448 39.4721C26.1199 38.8864 25.7452 38.4179 25.2456 38.0665C24.4962 37.598 23.622 37.598 22.4979 37.8323C21.6236 38.0665 20.8742 38.3008 19.875 38.7693C18.8758 39.1207 18.1264 39.5892 17.377 39.9406C17.0023 40.1748 16.6276 40.4091 16.2529 40.7605C16.128 40.8776 16.0032 40.9947 15.7534 41.229C15.6285 41.3461 15.3786 41.5804 15.3786 41.8146C15.3786 42.2831 15.8783 42.5174 16.2529 42.6345C16.2529 42.6345 16.3779 42.6345 16.3779 42.7517C16.7525 42.9859 17.2521 43.2202 17.7517 43.4544C19.875 44.3914 21.7485 44.6257 23.2473 44.1572C24.2465 43.8058 24.9958 43.2202 25.4954 42.5174C25.7452 42.166 25.995 41.6975 25.995 41.229C25.995 40.9947 25.995 40.7605 25.995 40.6433C26.2448 40.5262 26.6195 40.292 26.8693 40.1748L27.1191 39.9406C27.6187 39.5892 28.2432 39.2378 28.7428 39.3549C28.8677 39.3549 28.9926 39.3549 29.1175 39.2378C30.4914 39.5892 31.7404 39.9406 33.1143 40.1748C36.6114 40.7605 40.1086 40.7605 43.7306 40.1748C47.6025 39.4721 51.3494 38.1836 54.0972 37.1295C55.596 36.5438 56.9699 35.9582 58.4687 35.4897C60.8417 34.5527 63.3397 33.6156 65.8377 32.6786C65.0883 33.2642 64.5887 33.967 64.0891 34.6698C63.7144 35.2554 63.4646 35.8411 63.2148 36.5438C62.8401 36.4267 62.3405 36.3096 61.8409 36.4267C61.4662 36.5438 61.2164 36.7781 61.0915 37.0123C60.467 36.7781 59.7176 36.661 58.9682 36.661C57.4695 36.661 55.9707 37.0124 54.7217 37.8323C53.5976 38.535 52.5984 39.5892 51.5992 40.9947C50.6 42.4003 49.7258 43.8058 49.1013 45.3285C48.8515 45.5627 48.7266 45.797 48.4768 46.0313C48.3519 46.1484 48.227 46.3826 48.227 46.4998L46.3535 45.3285C46.2286 45.2114 46.1037 45.2114 45.9788 45.3285C45.8539 45.3285 45.729 45.4456 45.729 45.5628C45.4792 46.0313 45.6041 46.734 46.2286 47.3197C46.4784 47.5539 46.7282 47.7882 47.1029 48.0225C46.3535 48.491 45.8539 49.1937 45.4792 49.8965C45.3543 50.0136 45.4792 50.2479 45.6041 50.365C45.729 50.4822 45.9788 50.4821 46.1037 50.4821L47.3527 50.1308C47.2278 50.7164 47.3527 51.4192 47.4776 52.122C47.4776 52.2391 47.6025 52.4733 47.8523 52.4733H47.9772C48.227 52.4733 48.3519 52.3562 48.3519 52.122C48.3519 51.8877 48.4768 51.6534 48.6017 51.4192C48.9764 52.2391 49.8506 52.8247 50.8498 52.8247C50.9747 52.8247 51.2246 52.7076 51.2246 52.5905C51.3495 52.4733 51.3495 52.3562 51.2246 52.2391L50.4752 50.9507C50.3503 50.7164 50.2253 50.4822 50.2253 50.365C50.7249 50.4822 51.2245 50.4821 51.5992 50.4821C52.4735 50.4821 53.3478 50.365 54.2221 50.2479C56.7201 49.8965 60.2173 48.9595 62.5903 46.3826C63.7144 45.2113 64.4638 43.8058 64.8385 42.2831C64.9634 41.6975 65.0883 41.1119 64.9634 40.4091C65.2132 40.292 65.3381 40.0577 65.463 39.7063C65.7128 39.2378 65.5879 38.6521 65.3381 38.1836C65.3381 38.0665 65.2132 37.9494 65.0883 37.9494C65.2132 36.8952 65.8377 35.9582 66.8369 34.904C67.7112 33.967 68.7104 33.1471 69.9594 32.3272C70.5838 31.8587 71.3332 31.5073 72.0826 31.1559C72.2075 31.1559 72.2075 31.0388 72.3324 31.0388C73.5814 30.8046 74.7055 30.5703 75.7047 30.4532C77.0786 30.2189 78.4525 30.1018 79.9512 30.1018C82.5741 33.4985 85.8215 36.1925 89.3186 38.4179C89.1937 38.4179 89.1937 38.3008 89.0688 38.3008C86.9455 37.4809 84.6974 37.2466 82.4492 37.3638C80.3259 37.4809 78.2027 38.0665 76.3292 39.0035C74.4557 39.9406 72.7071 41.229 71.3332 42.8688C69.5847 44.9771 68.3357 47.3197 67.4614 49.1937C67.3365 49.3109 67.4614 49.5451 67.5863 49.6623C67.7112 49.7794 67.8361 49.7794 67.961 49.7794C71.0834 49.0766 74.3308 49.428 77.4533 49.6623C78.952 49.7794 80.4508 49.8965 81.9496 50.0136C87.0705 50.1308 90.8174 49.0766 93.3154 46.734C94.0648 46.0313 94.9391 44.9771 94.9391 43.6887C94.9391 43.103 94.6893 42.5174 94.3146 42.0489C96.0632 42.166 97.8117 42.4003 99.5603 42.5174C108.553 44.6257 118.295 43.2202 126.164 38.6522C127.163 38.0665 128.037 37.4809 129.036 36.7781C130.535 37.1295 132.034 37.0124 133.408 36.3096C133.658 36.1925 134.157 35.9582 134.157 35.4897C134.157 35.1383 134.032 34.904 133.658 34.6698C133.408 34.5526 133.158 34.4355 132.783 34.5527C132.409 34.5527 132.034 34.6698 131.659 34.6698C130.785 34.904 130.036 35.1383 129.286 35.6068C129.161 35.6068 129.161 35.6068 129.036 35.724L128.911 35.8411C124.915 36.0753 120.918 35.2554 116.921 34.4355L116.547 34.3184C114.298 33.8499 112.175 33.3814 110.052 32.9128C108.678 32.5615 107.304 32.3272 105.93 32.093C103.307 31.1559 100.684 29.9846 98.3113 28.3448C98.3113 28.3448 98.3113 28.3448 98.3113 28.2277C97.8117 25.5337 96.6877 22.8398 95.064 20.4972C93.4403 18.1547 91.317 16.1635 88.819 14.6408C87.4452 13.8209 85.8215 13.1181 84.3227 12.5325C84.1978 12.5325 83.948 12.5325 83.8231 12.6496C83.6982 12.7667 83.6982 12.8839 83.6982 13.1181C84.1978 14.5237 84.5725 16.0463 84.8223 17.569C85.197 19.2088 85.5717 20.9657 86.1962 22.6055C87.4452 25.5338 89.9431 27.8763 92.9407 29.1647C94.3146 29.7504 96.3129 30.1018 97.8117 29.1647C98.5611 29.6333 99.3105 30.1018 100.06 30.4532C100.56 30.6874 100.934 30.9217 101.434 31.1559C94.939 29.9846 87.6949 28.9305 80.3259 29.2819C80.0761 28.9305 79.7014 28.462 79.4516 28.1106L79.3267 27.8763C77.9529 26.1194 76.579 24.3625 74.9553 22.7227C74.8304 21.5514 74.3308 20.3801 73.3316 19.0917C72.5822 18.1546 71.7079 17.2176 70.5838 16.1635C69.9594 15.6949 69.3349 15.1093 68.7104 14.6408V14.5237C68.5855 12.7667 67.3365 11.0098 65.463 9.95566C63.7144 8.9015 61.3413 8.55009 58.5936 9.01861C57.9691 9.13574 57.2197 9.25289 56.4703 9.37002H56.3454C55.8458 9.48714 55.0964 9.60425 54.8466 10.1899C54.7217 10.4242 54.8466 10.6584 55.0964 10.7755C56.2205 11.3612 57.0948 12.1811 58.094 13.001C58.7185 13.5866 59.4678 14.1723 60.2172 14.6408C62.3405 16.1635 64.3389 16.7491 66.2124 16.3977C67.0867 16.2806 67.8361 15.8121 68.2108 15.3435C69.8345 16.5148 71.2083 17.8033 72.3324 19.0917C73.0818 19.9116 73.5814 20.8486 73.8312 21.5514C70.0843 18.506 65.2132 16.632 60.0924 16.5148C55.8458 16.3977 51.849 17.569 48.4768 18.8574C48.1021 18.7403 47.8523 18.506 47.4776 18.2718C47.7274 17.9204 47.8523 17.4519 47.8523 16.9834C47.8523 16.632 47.7274 16.3977 47.4776 16.1635C47.8523 15.5778 47.8523 14.875 47.9772 14.2894C48.1021 12.7667 47.7274 11.1269 46.978 9.72139C45.3543 6.67604 42.2318 4.91912 39.8588 3.98209C39.1094 3.63071 38.36 3.39643 37.4857 3.16218C36.9861 3.04505 36.6114 2.92794 36.1118 2.92794C36.2367 2.69368 36.3616 2.57656 36.4865 2.3423L37.4857 1.28811C37.6106 1.17099 37.6106 1.05387 37.6106 0.936741C37.6106 0.819614 37.4857 0.702499 37.2359 0.585369C36.3616 0.351112 35.3624 0.702477 34.7379 1.40525C34.7379 1.17099 34.7379 0.936756 34.7379 0.585369C34.7379 0.351112 34.613 0.233955 34.4882 0.116825H34.3632C34.2383 0.116825 33.9885 0.233971 33.9885 0.351097C33.6138 0.936741 33.3641 1.63952 33.2392 2.22516L32.115 1.52238C31.9901 1.40525 31.7404 1.40525 31.6155 1.52238C31.4906 1.63951 31.3657 1.75663 31.3657 1.87376C31.4906 2.69366 31.8653 3.51358 32.3649 4.09923C31.9902 4.21636 31.6155 4.45061 31.3657 4.56774C30.6163 5.03625 30.2416 5.62189 30.3665 6.20753C30.3665 6.32466 30.4914 6.44177 30.6163 6.5589C30.7412 6.67603 30.8661 6.67603 30.991 6.5589L33.2392 5.85616C33.2392 6.09042 33.364 6.20754 33.364 6.4418C33.4889 6.67606 33.6139 6.91029 33.7387 7.26168C33.9885 8.90148 34.3632 10.5413 34.9877 12.064C35.6122 13.7038 36.2367 14.875 37.111 15.9292C38.1102 17.1005 39.4841 17.8033 40.8579 18.1547C41.6073 18.2718 42.2318 18.3889 42.9812 18.2718C43.1061 18.6231 43.231 18.8574 43.6057 18.9745C44.2302 19.3259 45.1045 19.0917 45.6041 18.9745H45.729C45.8539 19.0917 46.1037 19.3259 46.2286 19.4431C45.6041 19.6773 45.1045 19.9116 44.48 20.1458L44.1053 20.263C43.7306 20.4972 43.231 20.6143 42.8563 20.7315H42.7314C39.609 21.2 36.4865 20.7315 33.6138 19.5602C32.9893 19.3259 32.3649 18.9746 31.8653 18.6232C31.8653 18.6232 31.8653 18.506 31.7404 18.506C31.9902 18.0375 31.8653 17.4519 31.8653 17.1005V16.9834C31.8653 16.8662 31.8653 16.7491 31.8653 16.632C31.7404 16.0463 31.6155 15.4607 31.2408 14.9922C30.2416 13.938 28.6179 14.0552 27.3689 14.6408C26.2448 15.3436 25.4954 16.5149 25.3705 18.0375C25.3705 18.7403 25.3706 19.326 25.7452 19.9116C26.1199 20.4972 26.6195 20.8486 27.3689 21.0829C28.493 21.3171 29.9918 21.0828 30.7412 20.0287H30.8661C33.1142 21.3171 35.6122 22.137 38.1102 22.3713C34.4881 23.4254 31.1159 24.0111 27.8685 24.1282C24.9958 24.2453 22.1232 24.0111 19.5003 23.4255C16.3779 22.7227 13.755 21.6685 11.8815 20.3801C9.38352 18.7403 8.13452 16.5148 8.50922 14.1723C8.75901 11.9468 10.8823 10.307 13.5052 10.307C16.0031 10.307 18.8758 11.8297 19.1256 14.2894C19.2505 15.3436 18.7509 16.7491 17.5019 17.2176C16.5027 17.569 15.1288 17.4519 14.6292 16.5148C14.3794 16.0463 14.3795 15.4607 14.5044 14.9922C14.6293 14.7579 14.7541 14.4065 15.2537 14.1723C15.6284 14.4065 16.0032 14.5237 16.3779 14.6408C16.6276 14.7579 17.1272 14.7579 17.5019 14.5237C17.8766 14.2894 18.0015 14.0551 18.1264 13.7038C18.1264 12.8839 17.5019 12.2982 17.0023 12.064C16.253 11.7126 15.3786 11.5954 14.7541 11.9468C14.2545 12.1811 14.0048 12.5325 14.1297 13.001C14.2546 13.2352 14.3794 13.4695 14.7541 13.7038C14.7541 13.7038 14.7541 13.7038 14.7541 13.8209C14.1297 14.2894 13.755 14.9922 13.755 15.8121C13.755 16.7491 14.2546 17.6861 15.1289 18.1547C16.1281 18.6232 17.1272 18.7403 18.1264 18.1547C19.2505 17.569 20.1248 16.5148 20.2497 15.3435C20.4995 13.2352 19.2505 11.3612 17.0023 10.4242C14.7542 9.37001 11.257 9.25289 9.25861 11.1269C7.26024 13.001 7.38512 15.9292 8.38431 17.9204C9.3835 19.9116 11.5068 21.5514 14.6292 22.8398C19.7501 24.9481 25.8701 25.6509 32.24 24.7138C34.3632 24.3625 36.6114 23.894 38.8596 23.1912C38.6098 23.6597 38.36 24.0111 37.9853 24.3625C37.2359 24.0111 36.2367 24.1282 35.6122 24.3625C34.9877 24.5967 34.613 25.0652 34.613 25.5338C34.4881 26.2365 34.9877 26.8222 35.2375 27.1735C35.862 27.9934 36.9861 28.462 38.1102 28.462C39.2343 28.462 40.4833 28.1106 40.7331 27.0564C40.858 26.4708 40.6082 25.8851 40.1086 25.4166C39.9837 25.2995 39.8588 25.1824 39.7339 25.1824C40.3584 24.4796 40.7331 23.5426 41.1078 22.6055H41.2327C42.8563 22.0199 44.48 21.3171 45.9788 20.7315C47.2278 20.263 48.4768 19.6773 49.7258 19.2088C53.098 17.9204 55.8458 17.3347 58.4687 17.2176C61.3413 17.1005 64.3389 17.569 67.0867 18.506C69.8344 19.4431 72.3324 20.9657 74.3308 22.8398C75.9545 24.3625 77.4533 26.2365 78.8272 27.9935C79.077 28.3448 79.3267 28.5791 79.5765 28.9305C75.7047 29.1647 71.8328 29.8675 68.2108 31.0388C65.0883 31.9758 61.9658 33.2642 58.9682 34.4355L57.9691 34.7869C55.8458 35.6068 53.5976 36.5438 51.2246 37.3638C51.2246 37.3638 51.0996 37.3638 50.9747 37.3638C49.2262 37.3638 46.978 37.2466 44.7298 36.8952C44.9796 35.9582 44.9796 35.0212 44.6049 34.0841C44.1053 33.1471 43.231 32.3272 41.8572 31.7416C39.4841 30.6874 36.7363 29.8675 33.7387 29.399C33.3641 29.399 32.9894 29.2819 32.6147 29.2819H32.3649C32.1151 29.2819 31.8653 29.1647 31.6155 29.1647C31.3657 29.1647 31.2408 29.2819 31.1159 29.399C30.991 29.5161 30.991 29.7504 30.991 29.8675C30.991 30.1018 31.1159 30.336 31.1159 30.5703V30.6874C31.3657 31.8587 31.8653 32.9129 32.3649 33.967C33.6138 36.1925 35.3624 37.8323 37.4857 38.6522C38.6098 39.1207 39.8588 39.3549 41.1078 39.3549C41.7323 39.3549 42.3567 39.2378 42.8563 39.1207C43.3559 39.0036 43.9804 38.7693 44.3551 38.1836C44.48 38.0665 44.48 37.9494 44.48 37.7151C44.8547 37.7151 45.2294 37.8323 45.6041 37.8323C46.6033 37.9494 47.6025 38.0665 48.7266 38.0665C44.3551 39.3549 40.733 39.8234 37.111 39.5892C30.1167 39.1207 23.3721 36.3096 18.5011 31.7416C17.8766 31.1559 17.377 30.5703 16.7525 29.9846C15.8782 28.6962 14.3795 27.7592 12.6309 27.1735C11.1321 26.705 9.50841 26.5879 8.00963 26.8222C4.76227 27.2907 2.01448 29.1647 1.0153 31.8587C-0.733276 34.5526 -0.108765 37.7151 2.01451 39.5892ZM4.51248 36.4267C4.38759 36.5438 4.26266 36.7781 4.26266 36.8952V36.7781C4.26266 36.661 4.26266 36.661 4.26266 36.5438C4.38757 36.4267 4.51245 36.4267 4.63734 36.3096C4.51245 36.3096 4.51248 36.4267 4.51248 36.4267ZM6.51083 36.7781C6.38593 36.661 6.13614 36.5438 5.88634 36.4267C6.01123 36.4267 6.13615 36.5438 6.26105 36.661C6.63575 36.8952 6.88555 37.1295 6.88555 37.2466C6.88555 37.2466 6.88554 37.3638 6.76064 37.3638C6.63574 37.4809 6.63573 37.4809 6.51083 37.4809L6.63573 37.3638C6.63573 37.1295 6.63573 36.8952 6.51083 36.7781ZM19.2505 42.8688C18.3762 42.5174 17.5019 42.166 16.8774 41.8146H16.7525C16.6276 41.6975 16.5027 41.6975 16.2529 41.5804C16.5027 41.3461 16.7525 41.1119 17.1272 40.8776C18.5011 39.9406 19.9999 39.3549 21.3738 38.8864C22.2481 38.6522 23.2472 38.3008 23.9966 38.535C24.6211 38.7693 25.1207 39.2378 24.9958 39.8235V39.9406C23.622 40.6433 22.2481 40.9947 20.8742 41.1118C19.9999 41.229 19.2505 41.1119 18.5011 40.9947C18.3762 40.9947 18.2513 40.9947 18.1264 41.1118C18.0015 41.229 18.0015 41.229 18.0015 41.3461C18.0015 41.5804 18.1264 41.8146 18.3762 41.8146C20.4995 42.2831 22.8726 41.9318 25.1208 40.8776C25.1208 40.9947 25.1207 41.1119 24.9958 41.229C24.746 41.8146 24.3714 42.4003 23.7469 42.7517C22.1232 43.6887 20.1248 43.2202 19.2505 42.8688ZM42.4817 38.0665C42.107 38.1837 41.6073 38.3008 40.9829 38.4179C39.9837 38.535 38.8596 38.4179 37.8604 38.0665C35.9869 37.3638 34.2383 36.0753 33.1143 34.3184C32.7396 33.7328 32.4897 33.1471 32.115 32.5615C33.364 33.8499 34.9877 34.9041 36.8612 35.724C38.7347 36.5439 40.7331 37.2466 43.231 37.598C42.9813 37.7151 42.7315 37.9494 42.4817 38.0665ZM43.231 36.661C42.6066 36.5438 41.9821 36.4267 41.3576 36.3096C38.6098 35.724 36.2367 34.6698 34.3632 33.2642C33.2392 32.4443 32.2399 31.5073 31.4906 30.4532C31.4906 30.336 31.3657 30.336 31.2408 30.336C31.2408 30.2189 31.1159 30.1018 31.1159 29.9846H31.3657C31.7404 29.9846 31.9902 30.1018 32.3649 30.1018C34.9877 30.4531 37.4857 31.0388 39.8588 31.9758C40.9829 32.4443 41.9821 32.9128 42.6066 33.6156C43.231 34.3184 43.4809 35.2554 43.231 36.1925C43.3559 36.3096 43.3559 36.4267 43.231 36.661ZM48.8515 49.5451C48.9764 49.6622 48.9764 49.6622 48.8515 49.5451C48.8515 49.8965 48.9764 50.365 49.2262 50.7164C49.2262 50.8335 49.3511 50.9506 49.3511 51.0678C48.9764 50.7164 48.8515 50.2479 48.8515 49.7794C48.9764 49.7794 48.9764 49.6622 48.8515 49.5451ZM60.5919 37.4809C59.7177 37.598 58.9683 38.0665 58.2189 38.4179C54.9715 40.0577 52.3486 42.5174 49.9756 44.9771C50.1005 44.7429 50.2253 44.6257 50.2253 44.3915C50.9747 42.9859 51.7241 41.6975 52.7233 40.5262C53.7225 39.3549 54.7217 38.4179 55.7209 37.9494C57.0948 37.1295 58.9683 37.0124 60.5919 37.4809ZM60.3421 41.3461C58.7185 42.9859 56.845 44.3915 54.5968 45.5628C53.4727 46.1484 52.3486 46.6169 51.2246 46.9683C50.6001 47.2025 50.1005 47.3197 49.476 47.4368C49.3511 47.4368 49.2262 47.5539 48.9764 47.5539H48.8515C48.8515 47.4368 48.9764 47.3197 48.9764 47.2025C49.1013 47.0854 49.1013 46.9683 49.1013 46.8512C49.9756 46.0313 50.7249 45.2114 51.4743 44.5086C53.2229 42.8688 54.7217 41.5804 56.0956 40.5262C56.9699 39.9406 57.8442 39.3549 58.7185 39.0035C59.5928 38.535 60.5919 38.0665 61.5911 38.1836H61.716C61.9658 38.3008 62.2156 38.4179 62.4654 38.535C61.9658 39.5892 61.2164 40.5262 60.3421 41.3461ZM51.0996 47.9053C53.7225 47.0854 56.0956 45.9141 58.2189 44.3915C60.2173 42.9859 61.716 41.3461 62.965 39.4721C63.2148 40.8776 62.4654 42.2831 61.8409 43.103C60.5919 44.86 58.4687 46.4998 56.0956 47.4368C53.8474 48.3738 51.4743 48.7252 49.1013 48.6081L48.9764 48.491L48.8515 48.3738C49.6009 48.2567 50.3503 48.1396 51.0996 47.9053ZM60.3421 46.0313C61.4662 45.0942 63.0899 43.4544 63.7144 41.4633C63.5895 41.8146 63.4646 42.2831 63.4646 42.5174C62.965 43.8058 62.2156 44.9771 61.2164 45.9141C59.8426 47.2025 57.9691 48.1396 55.7209 48.6081C57.3446 48.0225 58.9683 47.2025 60.3421 46.0313ZM62.965 37.7151C62.5903 37.4809 62.2156 37.2466 61.8409 37.0123C61.8409 37.0123 61.8409 37.0123 61.9658 37.0123C62.0907 36.8952 62.3405 36.8952 62.5903 37.0123C63.0899 37.1295 63.5895 37.3637 63.9642 37.7151L64.0891 37.8323C64.0891 37.9494 64.0891 37.9494 64.214 38.0665L64.3389 38.1836C64.4638 38.4179 64.4638 38.535 64.5887 38.7693C64.5887 39.0035 64.5887 39.1207 64.4638 39.2378C63.9642 38.6522 63.5895 38.1836 62.965 37.7151ZM64.7136 35.3725C64.4638 35.8411 64.214 36.3096 64.0891 36.7781L63.9642 36.661C64.7136 34.5527 66.3373 32.6786 68.5855 31.6245C68.2108 31.8587 67.9609 32.0929 67.7112 32.3272C66.2124 33.3814 65.3381 34.4355 64.7136 35.3725ZM47.7274 47.3197C47.3527 47.0854 46.978 46.8512 46.7282 46.4998C46.6033 46.3826 46.6033 46.2655 46.4784 46.1484L47.8523 46.9683C47.7274 47.0854 47.7274 47.2026 47.7274 47.3197ZM47.7274 48.1396C47.8523 48.1396 47.8523 48.1396 47.7274 48.1396C47.7274 48.2567 47.8523 48.2567 47.8523 48.3738V48.491V48.3738C47.8523 48.491 47.9772 48.6081 47.9772 48.7252C47.8523 48.6081 47.7274 48.6081 47.6025 48.7252L46.4784 49.0766C46.8531 48.6081 47.3527 48.3738 47.7274 48.1396ZM48.227 49.3108C48.3519 49.1937 48.3519 49.0766 48.3519 48.9595C48.4768 49.0766 48.4768 49.0766 48.6017 49.1937C48.6017 49.3109 48.6017 49.3108 48.7266 49.3108C48.6017 49.3108 48.3519 49.3109 48.227 49.428C48.1021 49.5451 47.9772 49.6623 47.9772 49.7794C47.9772 49.6623 48.1021 49.5451 48.227 49.3108ZM96.5627 26.8222C93.815 24.7139 91.4419 22.3713 89.4435 19.5602C88.3195 18.0375 87.4451 16.3977 86.5708 14.6408C86.4459 14.5237 86.3211 14.4065 86.1962 14.4065C86.0713 14.4065 85.8214 14.4065 85.8214 14.5237C85.6965 14.6408 85.6965 14.7579 85.8214 14.875C87.1953 18.0375 89.1937 20.8486 91.5668 23.4255C93.1905 25.0653 94.9391 26.5879 96.8125 27.9935C95.6885 28.462 94.3146 28.2277 93.3154 27.8763C91.9415 27.4078 90.5676 26.5879 89.4435 25.5338C88.3195 24.4796 87.4452 23.3083 86.8207 21.9028C86.1962 20.4972 85.8215 18.9746 85.5717 17.4519L85.4468 16.8662C85.197 15.5778 84.9472 14.2894 84.5725 13.1181C86.9455 13.938 89.0688 15.3436 90.9423 16.9834C93.0656 18.8574 94.6893 21.0828 95.8133 23.5426C96.3129 24.7138 96.6876 25.8851 97.0623 27.1735C96.8125 27.0564 96.6876 26.9393 96.5627 26.8222ZM105.555 32.4443C106.929 32.6786 108.303 33.03 109.677 33.3814C110.926 33.6156 112.05 33.8499 113.299 34.2013L114.673 34.5527C118.42 35.3726 122.167 36.1925 126.039 36.3096C126.538 36.3096 126.913 36.3096 127.413 36.3096C119.544 41.6975 109.427 43.5716 100.06 41.5804C99.935 41.4633 99.935 41.4633 99.8101 41.4633L99.1856 41.3461H99.0607C98.9358 41.3461 98.686 41.229 98.5611 41.229C93.3154 39.8234 88.4443 37.2466 84.5725 33.7328C83.3235 32.5615 82.0745 31.2731 80.7006 29.6333C88.0697 29.399 95.4386 30.5703 100.31 31.3902C102.183 31.7416 103.932 32.0929 105.306 32.4443C105.431 32.4443 105.431 32.4443 105.555 32.4443ZM93.1905 40.292C92.9407 40.1748 92.8158 39.9406 92.566 39.8235C92.6909 39.9406 92.9407 39.9406 93.0656 40.0577C93.6901 40.292 94.3146 40.6434 95.064 40.8776C94.5644 40.8776 94.0648 40.7605 93.5652 40.7605C93.4403 40.5262 93.1905 40.292 93.1905 40.292ZM92.1913 40.6433C90.4427 40.5262 88.5692 40.4091 86.5708 40.5262C84.1978 40.5262 82.1994 40.7605 80.4508 41.3461C78.7022 41.8146 77.0786 42.6345 75.33 43.6887C73.3316 44.86 71.7079 46.2655 70.2091 47.4368C69.9593 47.5539 69.9593 47.9053 70.2091 48.0225C70.334 48.1396 70.5838 48.2567 70.8336 48.0225C73.5814 45.797 76.579 43.4544 80.0761 42.2831C81.8247 41.6975 83.6982 41.4632 85.9464 41.3461C87.9447 41.229 89.9431 41.3461 92.3162 41.4633H92.4411L92.566 41.5804C93.3154 41.9318 93.6901 42.7517 93.6901 43.3373C93.6901 44.2743 93.0656 45.0942 92.4411 45.6799C91.317 46.8512 89.5684 47.671 87.5701 48.1396C84.1978 48.9595 80.5757 48.7252 77.2035 48.3738C76.579 48.3738 75.8296 48.2567 75.2051 48.2567C73.0818 48.1396 70.7087 48.0224 68.2108 48.3738C69.0851 46.3826 69.9593 44.9771 70.9585 43.6887C72.2075 42.0489 73.7063 40.7605 75.33 39.7063C78.8271 37.7151 82.9488 37.1295 86.8207 38.0665C87.9447 38.3008 89.0688 38.7693 90.068 39.3549C90.5676 39.5892 91.0672 39.9406 91.5668 40.292C91.9415 40.4091 92.0664 40.5262 92.1913 40.6433ZM133.033 34.904C133.033 34.904 132.783 35.0212 132.534 35.1383H132.409C131.909 35.3726 131.285 35.4897 130.785 35.6068C130.41 35.6068 130.16 35.6068 129.786 35.6068C130.16 35.3726 130.66 35.2554 131.035 35.0212C131.285 34.904 131.659 34.904 131.909 34.7869C132.159 34.7869 132.409 34.6698 132.658 34.7869C132.908 34.904 132.908 34.904 133.033 34.904ZM63.3397 11.4783C61.9658 10.8927 60.3422 10.4241 58.8434 10.0728C58.7185 10.0728 58.5936 10.0728 58.4687 10.1899C58.3438 10.1899 58.3438 10.307 58.3438 10.4242C58.3438 10.6584 58.4687 10.8927 58.7185 10.8927C61.3413 11.4783 63.8393 12.4153 66.0875 13.8209C66.4622 14.0551 66.8369 14.2894 67.2116 14.5237C66.9618 14.8751 66.4622 15.2264 65.7128 15.3435C64.9634 15.4607 63.9642 15.3436 62.965 14.9922C61.2164 14.4065 59.7176 13.2352 58.3438 12.064L57.9691 11.8297C57.3446 11.244 56.5952 10.6584 55.7209 10.1899C55.8458 10.0728 56.0956 10.0728 56.3454 9.95566H56.5952C57.2197 9.83853 57.7193 9.72138 58.2189 9.60425C59.4679 9.37 60.5919 9.36999 61.5911 9.48712C63.5895 9.72137 65.3381 10.5413 66.3373 11.8297C66.8369 12.4153 67.0867 13.001 67.3365 13.7038C66.0875 12.7667 64.7136 12.064 63.3397 11.4783ZM30.4914 18.6232L30.1167 19.0917C29.9918 19.0917 29.9918 19.2088 29.8669 19.326C29.6171 20.1459 28.6179 20.4972 27.7436 20.3801C27.244 20.3801 26.7444 20.1459 26.3697 19.9116C26.1199 19.6773 25.8701 19.2088 25.8701 18.6232C25.8701 17.569 26.2448 16.5149 26.9942 15.8121C27.244 15.5778 27.4938 15.4607 27.8685 15.2264L27.3689 16.1635C27.244 16.1635 27.1191 16.1635 26.9942 16.2806C26.7444 16.3977 26.4946 16.632 26.2448 16.9834C26.1199 17.1005 25.995 17.4519 26.1199 17.6861C26.1199 17.8032 26.2448 17.9204 26.3697 18.0375L26.2448 18.2718L26.3697 18.1547C26.4946 18.2718 26.7444 18.3889 26.9942 18.2718C27.6187 18.1546 28.1183 17.4519 28.1183 16.8662C28.1183 16.632 27.9934 16.3977 27.8685 16.2806L27.9934 15.9292L27.7436 16.1635V15.3435C28.3681 15.1093 28.9926 15.1093 29.4922 15.3435C29.742 15.4607 29.9918 15.5778 30.1167 15.8121C30.2416 16.0463 30.3665 16.3977 30.3665 16.632V16.8662C30.3665 17.1005 30.4914 17.3348 30.4914 17.569C30.6163 18.0375 30.4914 18.1547 30.3665 18.1547C30.2416 18.1547 30.1167 18.2718 30.1167 18.3889C30.4914 18.506 30.4914 18.506 30.4914 18.6232ZM32.7395 20.263C32.3648 20.1458 31.9902 19.9116 31.6155 19.6773C33.2391 20.6143 35.1126 21.2 36.9861 21.5514C35.4873 21.3171 34.1134 20.8486 32.7395 20.263ZM39.2343 27.1735C38.9845 27.5249 38.4849 27.6421 37.9853 27.6421C37.6106 27.6421 37.2359 27.6421 36.9861 27.525C37.111 27.525 37.3608 27.4078 37.4857 27.2907C37.6106 27.1736 37.7355 26.9393 37.6106 26.705C37.4857 26.5879 37.3608 26.4708 37.3608 26.3537C37.2359 26.2365 37.111 26.2365 36.9861 26.1194C36.8612 26.1194 36.7363 26.0023 36.6114 26.0023C36.4865 26.0023 36.4865 26.0023 36.3616 26.0023C36.2367 26.0023 36.1118 26.1194 36.1118 26.2365C36.1118 26.2365 36.1118 26.2365 36.1118 26.3537C35.9869 26.5879 36.1118 26.7051 36.2367 26.9393C36.2367 27.0564 36.3616 27.1736 36.4865 27.2907L36.6114 27.0564L36.4865 27.2907C36.2367 27.1736 36.1118 27.0564 35.862 26.9393C35.4873 26.7051 35.1126 26.1194 35.1126 25.768C35.1126 25.5338 35.2375 25.4166 35.3624 25.2995C35.6122 25.0652 35.9869 25.0652 36.4865 25.0652C36.8612 25.0652 37.3608 25.0652 37.6106 25.4166C37.7355 25.5337 37.8604 25.5338 37.9853 25.5338C37.9853 25.5338 37.9853 25.5338 38.1102 25.5338H38.2351C38.9845 25.8851 39.3592 26.2365 39.3592 26.5879C39.3592 26.8222 39.3592 26.9393 39.2343 27.1735ZM33.1143 4.68487C33.1143 4.802 33.1143 4.91911 33.1143 4.91911L31.6155 5.38762C31.7404 5.27048 31.8653 5.27051 31.9902 5.15338C32.24 4.91912 32.6147 4.802 33.1143 4.68487ZM32.4898 2.69367L33.4889 3.27931C33.6138 3.27931 33.6139 3.39645 33.7387 3.39645H33.8637C33.7388 3.51358 33.7387 3.51356 33.6138 3.63068V3.51358V3.63068C33.4889 3.74781 33.4889 3.74783 33.4889 3.86496C32.9893 3.6307 32.6147 3.16219 32.4898 2.69367ZM46.6033 18.506C46.7282 18.6232 46.8531 18.7403 47.1029 18.8574C46.8531 18.8574 46.7282 18.7403 46.6033 18.506ZM34.3632 5.03624C34.3632 4.91911 34.2383 4.802 34.2383 4.68487C34.2383 4.68487 34.3632 4.68484 34.3632 4.80197C34.4881 4.9191 34.613 4.91911 34.7379 5.03624C35.2375 5.2705 35.7371 5.62187 36.3616 5.97326C37.3608 6.67603 38.36 7.37882 39.2343 8.0816C41.1078 9.72139 42.6065 11.5954 43.6057 13.5866C44.1053 14.6408 44.6049 15.695 44.8547 16.8662C44.6049 16.9834 44.3551 16.9834 43.9804 16.9834H43.8555C42.8564 16.7491 42.107 16.1635 41.3576 15.4607C40.6082 14.875 39.9837 14.0552 39.2343 13.3524C38.1102 11.9468 37.111 10.4242 35.862 8.43297C35.3624 7.49594 34.7379 6.55891 34.2383 5.62189C34.3632 5.2705 34.3632 5.15337 34.3632 5.03624ZM45.6041 15.9292C44.9796 13.8209 43.8555 11.8297 42.3567 10.0728C40.7331 8.08157 38.7347 6.32465 36.4865 4.91911C35.862 4.56772 35.2375 4.21634 34.613 3.86496L34.7379 3.74782C34.7379 3.74782 34.8628 3.74781 34.8628 3.63068C37.2359 4.0992 39.3592 5.03626 41.2327 6.4418C43.231 7.96447 44.7298 9.95565 45.4792 12.064C45.9788 13.1181 46.2286 14.6408 45.6041 15.9292ZM46.8531 14.1723C46.8531 12.1811 45.729 10.1899 44.8547 9.01861C43.8555 7.61307 42.4816 6.32467 40.9829 5.27052C42.9812 6.32467 44.48 7.61308 45.4792 9.25288C46.2286 10.4242 46.7282 11.7126 46.7282 13.1181C46.8531 13.4695 46.978 13.8209 46.8531 14.1723ZM34.9877 2.69367C34.9877 2.69367 34.8628 2.69367 34.9877 2.69367C34.9877 2.69367 34.9877 2.57653 34.9877 2.4594C35.1126 1.99089 35.3624 1.63951 35.862 1.40525C35.7371 1.52238 35.7371 1.63952 35.6122 1.63952C35.2375 1.99091 34.9877 2.34229 34.9877 2.69367ZM34.3632 2.92794L34.2383 3.04504H34.1134C34.1134 2.92791 34.1134 2.81081 34.1134 2.81081C33.9885 2.57655 33.9885 2.45942 33.9885 2.22516C33.9885 2.34229 34.1134 2.45941 34.1134 2.57653C34.2383 2.69366 34.3633 2.81081 34.4882 2.81081C34.4882 2.92794 34.4881 2.92794 34.3632 2.92794ZM40.7331 15.8121C41.3576 16.3977 41.982 16.9834 42.7314 17.3347C40.9828 17.4519 39.3592 16.8662 38.1102 15.695C37.2359 14.8751 36.6114 13.8209 35.9869 12.4153C35.3624 11.0098 34.9877 9.60427 34.7379 8.0816C34.7379 7.84734 34.613 7.61307 34.613 7.37881C36.2367 10.5413 38.1102 13.4695 40.7331 15.8121ZM45.1045 17.6861C45.729 17.4519 46.3535 17.1005 46.7282 16.632C46.7282 16.7491 46.7282 16.9833 46.7282 17.1005C46.6033 17.569 46.2286 17.8033 45.8539 17.9204C45.8539 17.9204 45.729 17.9204 45.6041 18.0375H45.4792C45.1045 18.1547 44.6049 18.2718 44.2302 18.2718C43.9804 18.2718 43.7306 18.2718 43.6057 18.1547C43.6057 18.1547 43.6057 18.1547 43.6057 18.0375C44.2302 17.9204 44.7298 17.8032 45.1045 17.6861ZM16.2529 13.938H16.128C16.2529 13.938 16.253 13.938 16.3779 13.8209C16.3779 13.8209 16.5027 13.7038 16.6276 13.4695C16.6276 13.3524 16.6276 13.2352 16.5027 13.1181C16.6276 13.2352 16.8774 13.4695 16.8774 13.7038C16.8774 13.7038 16.8774 13.938 16.7525 13.938C16.7525 13.938 16.6276 13.938 16.5027 13.938C16.5027 14.0552 16.3778 13.938 16.2529 13.938ZM15.004 13.1181C14.8791 13.001 14.7541 13.001 14.7541 13.001C14.6292 13.001 14.6292 12.8839 14.6292 12.8839C14.6292 12.8839 14.7542 12.7667 14.8791 12.7667C15.1288 12.6496 15.3787 12.6496 15.6284 12.7667C15.2538 12.7667 15.1289 12.8839 15.004 13.1181Z" fill="#BCB683"/>
<path d="M48.9763 30.6876C49.1012 30.5704 49.2261 30.4533 49.2261 30.3362C49.2261 29.9848 49.1012 29.7505 48.7265 29.7505H48.6016C48.4767 29.7505 48.3518 29.7506 48.2269 29.8677C48.102 29.9848 47.977 30.1019 47.977 30.2191C47.977 30.5704 48.1019 30.8047 48.4766 30.8047C48.7265 30.8047 48.8513 30.8047 48.9763 30.6876Z" fill="#BCB683"/>
<path d="M122.542 37.7153C122.792 37.5982 122.917 37.4811 122.917 37.2468C122.917 37.0125 122.916 36.8954 122.667 36.7783C122.542 36.6612 122.417 36.6611 122.292 36.6611C122.167 36.6611 122.167 36.6611 122.042 36.6611C121.792 36.7783 121.668 36.8954 121.668 37.1297C121.668 37.3639 121.668 37.4811 121.917 37.5982C122.042 37.7153 122.292 37.7153 122.542 37.7153Z" fill="#BCB683"/>
<path d="M266.425 31.742C265.426 29.048 262.678 27.174 259.43 26.7055C257.807 26.4712 256.308 26.5883 254.809 27.0568C252.936 27.6425 251.562 28.5795 250.688 29.8679C250.063 30.4536 249.563 31.1564 248.939 31.6249C244.068 36.1929 237.199 39.004 230.329 39.4725C226.707 39.7067 222.96 39.2382 218.714 37.9498C219.838 37.9498 220.837 37.8327 221.836 37.7155C222.211 37.7155 222.585 37.5984 222.96 37.5984C222.96 37.7155 223.085 37.9498 223.085 38.0669C223.46 38.6526 224.084 38.8868 224.584 39.004C225.083 39.1211 225.708 39.2382 226.332 39.2382C227.456 39.2382 228.705 39.004 229.954 38.5354C232.078 37.7156 233.951 36.0758 235.075 33.8503C235.575 32.9133 236.074 31.742 236.324 30.5707V30.4536C236.324 30.2193 236.449 29.9851 236.449 29.7508C236.449 29.5166 236.449 29.3994 236.324 29.2823C236.199 29.1652 236.074 29.048 235.825 29.048C235.575 29.048 235.325 29.048 235.075 29.1652H234.825C234.451 29.1652 234.076 29.2823 233.701 29.2823C230.704 29.7508 227.956 30.4536 225.583 31.6249C224.209 32.2105 223.335 33.0304 222.835 33.9674C222.46 34.9045 222.336 35.8415 222.71 36.7785C220.462 37.1299 218.214 37.1299 216.465 37.247C216.34 37.247 216.34 37.247 216.216 37.247C213.842 36.4271 211.594 35.6072 209.471 34.6702L208.472 34.3188C205.474 33.1475 202.352 31.8591 199.229 30.9221C195.607 29.7508 191.735 29.048 187.864 28.8138C188.113 28.4624 188.363 28.2281 188.613 27.8767C189.987 26.1198 191.361 24.2458 193.109 22.7231C195.108 20.849 197.606 19.3264 200.353 18.3893C203.101 17.4523 206.099 16.9838 208.971 17.1009C211.594 17.218 214.342 17.8037 217.714 19.0921C218.963 19.5606 220.212 20.1463 221.461 20.6148C222.96 21.3175 224.584 21.9032 226.207 22.4888H226.332C226.707 23.4259 227.082 24.3629 227.706 25.0657C227.581 25.1828 227.456 25.2999 227.332 25.2999C226.832 25.7684 226.582 26.3541 226.707 26.9397C226.957 28.111 228.206 28.4624 229.33 28.3453C230.454 28.3453 231.578 27.8767 232.203 27.0568C232.452 26.8226 232.827 26.1198 232.827 25.417C232.702 24.9485 232.327 24.48 231.828 24.2458C231.203 24.0115 230.204 23.8944 229.455 24.2458C229.08 23.8944 228.83 23.543 228.581 23.0745C230.829 23.7772 232.952 24.2458 235.2 24.5972C241.57 25.5342 247.69 24.8314 252.811 22.7231C255.933 21.4347 257.932 19.7949 259.056 17.8037C260.055 15.8125 260.305 12.8843 258.181 11.0103C256.183 9.13619 252.686 9.25331 250.438 10.3075C248.19 11.3616 246.941 13.2357 247.19 15.2269C247.315 16.3982 248.19 17.4523 249.314 18.038C250.313 18.5065 251.437 18.5065 252.311 18.038C253.186 17.5694 253.685 16.7495 253.685 15.6954C253.685 14.8755 253.31 14.1727 252.686 13.7042C252.686 13.7042 252.686 13.7042 252.686 13.5871C253.061 13.3528 253.186 13.2357 253.31 12.8843C253.435 12.4158 253.186 12.0644 252.686 11.8301C252.061 11.5959 251.187 11.5959 250.438 11.9473C249.813 12.2986 249.189 12.8843 249.314 13.5871C249.314 13.9384 249.564 14.2898 249.938 14.407C250.313 14.6412 250.688 14.5241 251.062 14.5241C251.437 14.407 251.812 14.2899 252.186 14.0556C252.561 14.2899 252.811 14.6412 252.936 14.8755C253.186 15.344 253.061 15.9297 252.811 16.3982C252.311 17.3352 250.937 17.5694 249.938 17.1009C248.689 16.6324 248.19 15.2269 248.314 14.1727C248.564 11.713 251.437 10.1903 253.935 10.1903C256.683 10.1903 258.681 11.713 258.931 14.0556C259.181 16.281 257.932 18.5065 255.559 20.2634C253.56 21.5518 251.062 22.606 247.94 23.3087C245.317 23.8944 242.444 24.1287 239.572 24.0115C236.199 23.8944 232.827 23.3088 229.33 22.2546C231.953 22.0203 234.451 21.3176 236.574 19.912H236.699C237.448 20.8491 238.947 21.2004 240.071 20.9662C240.821 20.7319 241.445 20.3805 241.695 19.7949C241.945 19.3264 242.07 18.7407 242.07 17.9208C241.945 16.3982 241.195 15.2269 240.071 14.5241C238.947 13.8213 237.199 13.7042 236.199 14.8755C235.825 15.344 235.7 15.9296 235.575 16.5153C235.575 16.6324 235.575 16.7495 235.575 16.8667V16.9838C235.45 17.4523 235.325 18.0379 235.7 18.3893C235.7 18.3893 235.7 18.5065 235.575 18.5065C234.95 18.8579 234.326 19.0921 233.826 19.4435C230.954 20.6148 227.831 21.0833 224.709 20.6148H224.584C224.209 20.4976 223.709 20.2634 223.335 20.1463L222.96 20.0291C222.336 19.7949 221.836 19.5606 221.212 19.3264C221.336 19.2093 221.586 19.0921 221.711 18.8578H221.836C222.336 18.975 223.21 19.2092 223.834 18.8578C224.084 18.7407 224.334 18.3894 224.459 18.1551C225.208 18.1551 225.833 18.1551 226.582 18.038C228.081 17.6866 229.33 16.9838 230.329 15.8125C231.203 14.8755 231.828 13.7042 232.452 11.9473C233.077 10.4246 233.452 8.78479 233.701 7.14499C233.826 6.91073 233.951 6.67649 234.076 6.32511C234.076 6.20798 234.201 5.97372 234.201 5.73947L236.449 6.44225C236.574 6.44225 236.699 6.44225 236.824 6.44225C236.949 6.32512 237.074 6.3251 237.074 6.09084C237.199 5.5052 236.824 5.03669 236.074 4.45105C235.825 4.21679 235.45 4.09967 235.075 3.98254C235.575 3.3969 235.95 2.577 236.074 1.7571C236.074 1.63998 236.074 1.4057 235.825 1.4057C235.7 1.28857 235.45 1.28857 235.325 1.4057L234.201 2.10847C234.201 1.4057 233.826 0.820053 233.452 0.234413C233.327 0.117283 233.202 0.000175476 233.077 0.000175476H232.952C232.702 0.117306 232.577 0.234425 232.702 0.468681C232.702 0.702938 232.702 0.937176 232.702 1.28856C232.078 0.585789 231.078 0.234425 230.204 0.468681C230.079 0.468681 229.954 0.585796 229.83 0.820053C229.83 0.937183 229.83 1.05433 229.954 1.17146L230.954 2.22561C231.078 2.34274 231.328 2.577 231.328 2.81125C230.829 2.81125 230.454 2.92836 229.954 3.04549C229.08 3.27975 228.331 3.51402 227.581 3.8654C225.333 4.80243 222.211 6.55935 220.462 9.60469C219.713 11.0102 219.338 12.5329 219.463 14.1727C219.463 14.7583 219.588 15.4611 219.963 16.0468C219.838 16.281 219.713 16.5153 219.588 16.8667C219.588 17.3352 219.713 17.8037 219.963 18.1551C219.713 18.3894 219.338 18.6236 218.963 18.7407C215.716 17.4523 211.719 16.1639 207.348 16.3982C202.352 16.6324 197.356 18.3893 193.609 21.4347C193.859 20.6148 194.358 19.7949 195.108 18.975C196.232 17.5694 197.606 16.281 199.229 15.2269C199.604 15.8125 200.353 16.1639 201.228 16.281C202.976 16.6324 204.975 15.9296 207.223 14.5241C207.972 14.0556 208.597 13.47 209.346 12.8843C210.22 12.0644 211.22 11.3616 212.344 10.6588C212.594 10.5417 212.593 10.3075 212.593 10.0732C212.344 9.48756 211.594 9.37045 211.095 9.25332H210.97C210.22 9.01907 209.596 8.90191 208.847 8.90191C206.099 8.55053 203.851 8.90194 201.977 9.83896C200.104 10.8931 198.855 12.65 198.73 14.407V14.5241C198.105 14.9926 197.356 15.5782 196.856 16.0468C195.732 17.1009 194.858 18.0379 194.108 18.975C193.234 20.2634 192.61 21.4347 192.485 22.606C190.861 24.1286 189.487 26.0027 188.113 27.7596L187.988 27.9939C187.739 28.3453 187.364 28.8138 187.114 29.1652C179.745 28.8138 172.376 29.8679 166.006 31.0392C166.506 30.805 167.006 30.5707 167.38 30.3365C168.13 29.8679 168.879 29.5165 169.628 29.048C171.127 29.9851 173.001 29.5165 174.499 29.048C177.622 27.8767 179.995 25.5342 181.244 22.4888C181.993 20.849 182.243 19.0921 182.618 17.4523C182.868 15.9296 183.242 14.407 183.742 13.0014C183.742 12.8843 183.742 12.65 183.617 12.5329C183.492 12.4158 183.242 12.4158 183.117 12.4158C181.619 12.8843 179.995 13.5871 178.621 14.5241C176.123 16.0468 174 18.038 172.376 20.3805C170.752 22.7231 169.628 25.4171 169.129 28.111V28.2281C166.756 29.7508 164.258 31.0392 161.51 31.9762C160.136 32.2105 158.762 32.5619 157.388 32.7962C155.265 33.2647 153.017 33.7332 150.894 34.2017L150.519 34.3188C146.647 35.1387 142.525 35.9586 138.529 35.7244L138.404 35.6072C138.279 35.6072 138.279 35.4901 138.154 35.4901C137.405 35.0216 136.655 34.6702 135.781 34.5531C135.406 34.436 135.031 34.436 134.657 34.436C134.282 34.436 134.032 34.436 133.782 34.5531C133.408 34.6702 133.283 35.0216 133.283 35.373C133.408 35.8415 133.782 36.0758 134.032 36.1929C135.406 36.8957 136.905 37.0128 138.404 36.6614C139.403 37.3642 140.277 37.9498 141.276 38.5354C149.145 43.1035 158.887 44.509 167.88 42.4007C169.628 42.1664 171.377 42.0493 173.126 41.9322C172.751 42.4007 172.501 42.9863 172.501 43.572C172.501 44.8604 173.375 45.9145 174.125 46.6173C176.623 48.8428 180.37 50.014 185.49 49.8969C186.989 49.8969 188.488 49.7798 189.987 49.5455C193.109 49.3113 196.357 48.9599 199.479 49.6627C199.604 49.6627 199.854 49.6627 199.854 49.5455C199.979 49.4284 199.979 49.1941 199.979 49.077C199.104 47.203 197.855 44.7433 196.107 42.7521C194.733 41.1123 192.984 39.8238 191.111 38.8868C189.237 37.9498 187.114 37.3642 184.991 37.247C182.743 37.1299 180.495 37.4813 178.371 38.184C178.246 38.184 178.246 38.3012 178.121 38.3012C181.744 36.1929 184.866 33.3818 187.489 29.985C188.988 30.1022 190.362 30.2193 191.735 30.3365C192.86 30.4536 193.859 30.6878 195.108 30.9221C195.108 31.0392 195.233 31.0392 195.357 31.0392C196.107 31.3906 196.731 31.742 197.481 32.2105C198.73 33.0304 199.729 33.8503 200.603 34.7873C201.602 35.8415 202.102 36.7785 202.352 37.8327C202.227 37.9498 202.227 38.0669 202.102 38.0669C201.852 38.5355 201.727 39.1211 201.977 39.5896C202.102 39.8239 202.227 40.0581 202.477 40.2924C202.352 40.9951 202.477 41.5808 202.602 42.1664C202.976 43.6891 203.726 45.0947 204.85 46.2659C207.348 48.8428 210.845 49.7798 213.218 50.1312C214.092 50.2483 214.842 50.2483 215.841 50.3654C216.34 50.3654 216.84 50.3654 217.215 50.2483C217.215 50.4826 217.09 50.7168 216.965 50.8339L216.216 52.1224C216.091 52.2395 216.091 52.3566 216.216 52.4737C216.34 52.5909 216.465 52.708 216.59 52.708C217.589 52.708 218.339 52.1224 218.838 51.3025C218.963 51.5367 218.963 51.771 219.088 52.0052C219.088 52.2395 219.338 52.3566 219.463 52.3566H219.588C219.713 52.3566 219.963 52.2395 219.963 52.0052C220.087 51.3025 220.212 50.5997 220.087 50.014L221.336 50.3654C221.461 50.3654 221.711 50.3654 221.836 50.2483C221.961 50.1312 221.961 50.0141 221.961 49.7798C221.586 49.077 221.087 48.3742 220.337 47.9057C220.712 47.6715 220.962 47.4372 221.212 47.203C221.836 46.5002 221.961 45.9145 221.711 45.446C221.586 45.3289 221.586 45.2118 221.461 45.2118C221.336 45.2118 221.212 45.2118 221.087 45.2118L219.213 46.383C219.088 46.2659 219.088 46.0317 218.963 45.9145C218.838 45.6803 218.589 45.446 218.339 45.2118C217.714 43.6891 216.84 42.1664 215.841 40.878C214.842 39.4725 213.718 38.4183 212.718 37.7155C211.469 36.8956 209.971 36.4271 208.472 36.5443C207.722 36.5443 207.098 36.6614 206.349 36.8957C206.224 36.6614 205.849 36.4271 205.599 36.31C205.1 36.1929 204.6 36.31 204.225 36.4271C203.975 35.7243 203.726 35.1387 203.351 34.5531C202.851 33.8503 202.227 33.1475 201.602 32.5619C204.1 33.3818 206.598 34.4359 208.971 35.373C210.47 35.9586 211.844 36.5442 213.343 37.0128C216.091 38.0669 219.838 39.3553 223.709 40.0581C227.207 40.6437 230.829 40.6437 234.326 40.0581C235.7 39.8238 236.949 39.4725 238.323 39.1211C238.448 39.2382 238.572 39.2382 238.697 39.2382C239.322 39.1211 239.821 39.4725 240.321 39.8239L240.571 40.0581C240.821 40.2924 241.07 40.4095 241.445 40.5266C241.445 40.7609 241.445 40.878 241.445 41.1123C241.57 41.5808 241.695 41.9322 241.945 42.4007C242.444 43.2206 243.319 43.8062 244.193 44.0405C245.817 44.509 247.69 44.2748 249.688 43.3377C250.188 43.1035 250.688 42.8692 251.062 42.6349C251.062 42.6349 251.187 42.6349 251.187 42.5178C251.562 42.4007 251.937 42.1664 252.061 41.6979C252.061 41.4636 251.812 41.2294 251.687 41.1123C251.562 40.9951 251.312 40.7609 251.187 40.6437C250.812 40.4095 250.563 40.0581 250.063 39.8239C249.314 39.3554 248.564 39.004 247.565 38.6526C246.566 38.3012 245.817 37.9498 244.942 37.7155C243.818 37.4813 242.944 37.4813 242.194 37.9498C241.57 38.3012 241.195 38.7697 241.195 39.3553C240.945 39.2382 240.821 39.1211 240.571 38.8868L240.446 38.7697C240.196 38.6526 240.071 38.5354 239.821 38.4183C244.568 36.6614 248.689 33.8503 251.937 30.3365V30.2193C252.186 29.9851 252.311 29.7508 252.561 29.5165C254.435 27.7596 257.557 27.0568 260.555 27.6425C261.928 27.9939 263.177 28.5795 264.177 29.2823C265.176 30.1022 265.925 31.1563 266.3 32.3276C267.174 34.7873 266.425 37.4813 264.676 39.004C263.552 39.941 262.053 40.4095 260.679 40.1752C259.43 39.941 258.182 39.004 257.932 37.8327C257.682 36.7785 258.182 35.6072 259.181 35.0216C259.68 34.7873 260.18 34.6702 260.679 34.6702C261.054 34.7873 261.554 35.0216 261.679 35.2558C261.304 35.373 260.804 35.4901 260.43 35.7244C260.18 35.9586 259.805 36.1929 259.68 36.5443C259.555 36.8956 259.555 37.247 259.805 37.5984C260.18 38.0669 261.054 38.3012 261.928 38.184C262.678 38.0669 263.302 37.7155 263.927 37.247L264.052 37.1299C264.177 37.0128 264.177 36.8957 264.177 36.7785C264.177 36.6614 264.052 36.5442 263.927 36.4271C263.927 36.1929 263.802 36.0757 263.677 35.8415C263.427 35.6072 263.053 35.373 262.553 35.373C262.553 35.1387 262.428 35.0216 262.303 34.7873C261.928 34.3188 261.429 34.0846 260.679 33.9674C259.805 33.8503 258.931 34.0845 258.181 34.6702C257.557 35.1387 257.182 35.7244 256.932 36.31C256.683 37.0128 256.683 37.7155 257.057 38.4183C257.557 39.8239 259.056 40.878 260.679 41.1123C262.303 41.3465 264.052 40.7609 265.426 39.4725C266.924 37.7155 267.549 34.5531 266.425 31.742ZM262.303 36.31C262.428 36.31 262.553 36.4271 262.678 36.5443C262.678 36.6614 262.678 36.6614 262.678 36.7785V36.8957C262.678 36.6614 262.553 36.5442 262.428 36.4271L262.303 36.31ZM260.18 37.247C260.18 37.3642 260.18 37.3642 260.305 37.3642C260.18 37.3642 260.055 37.247 260.055 37.247C259.93 37.1299 259.93 37.1299 259.93 37.1299C259.93 37.0128 260.055 36.7785 260.555 36.5443C260.679 36.4271 260.804 36.4271 260.929 36.31C260.679 36.4271 260.555 36.5443 260.305 36.6614C260.305 36.8956 260.18 37.1299 260.18 37.247ZM243.069 42.7521C242.444 42.4007 242.07 41.815 241.82 41.2294C241.82 41.1123 241.695 40.9951 241.695 40.878C243.943 41.9322 246.316 42.2835 248.439 41.815C248.689 41.815 248.814 41.5808 248.814 41.3465C248.814 41.2294 248.689 41.1123 248.689 41.1123C248.564 40.9951 248.439 40.9952 248.314 40.9952C247.565 41.1123 246.691 41.2294 245.941 41.1123C244.568 40.9951 243.194 40.6437 241.82 39.941V39.8239C241.695 39.2382 242.194 38.6526 242.819 38.5354C243.693 38.3012 244.692 38.6526 245.442 38.8868C246.816 39.3553 248.439 39.941 249.688 40.878C250.063 41.1123 250.313 41.3465 250.563 41.5808C250.313 41.6979 250.188 41.815 250.063 41.815H249.938C249.189 42.1664 248.439 42.6349 247.565 42.8692C246.816 43.2206 244.692 43.6891 243.069 42.7521ZM223.709 37.4813C226.083 37.1299 228.206 36.4271 230.079 35.6072C231.953 34.7873 233.452 33.616 234.825 32.4448C234.576 33.0304 234.201 33.7332 233.826 34.2017C232.577 36.0757 230.954 37.3642 229.08 37.9498C228.081 38.3012 226.957 38.4183 225.958 38.3012C225.333 38.3012 224.834 38.1841 224.459 37.9498C224.209 37.9498 223.834 37.7156 223.709 37.4813ZM223.46 36.1929C223.21 35.2559 223.46 34.3188 224.084 33.616C224.709 32.7961 225.708 32.4448 226.832 31.9762C229.205 31.0392 231.703 30.3364 234.326 30.1022C234.701 30.1022 234.95 29.985 235.325 29.985H235.575C235.575 30.1022 235.45 30.2193 235.45 30.3365C235.325 30.3365 235.325 30.4536 235.2 30.4536C234.451 31.5077 233.452 32.4448 232.327 33.2647C230.454 34.6702 228.081 35.6072 225.333 36.31C224.709 36.4271 224.209 36.5443 223.46 36.6614C223.585 36.4271 223.585 36.31 223.46 36.1929ZM217.964 49.8969C218.089 50.3654 217.839 50.8339 217.465 51.1853C217.589 51.0682 217.589 50.9511 217.589 50.8339C217.839 50.3654 217.964 50.014 217.839 49.6627C217.839 49.6627 217.964 49.6627 217.964 49.5455C217.964 49.6627 217.839 49.7798 217.964 49.8969ZM211.22 37.8327C212.219 38.4183 213.218 39.2382 214.217 40.4095C215.216 41.5808 215.966 42.8692 216.715 44.2747C216.84 44.509 216.965 44.6261 216.965 44.8604C214.467 42.4007 211.844 40.0581 208.722 38.3012C207.972 37.9498 207.223 37.4813 206.349 37.3642C207.972 37.0128 209.721 37.1299 211.22 37.8327ZM204.35 38.6526C204.6 38.5355 204.85 38.4183 205.1 38.3012H205.224C206.224 38.3012 207.098 38.6526 208.097 39.1211C208.971 39.5896 209.846 40.0581 210.72 40.6437C212.219 41.6979 213.718 42.8692 215.341 44.6261C216.091 45.3289 216.84 46.1488 217.714 46.9687C217.714 47.0858 217.714 47.203 217.839 47.3201C217.964 47.4372 217.964 47.5543 217.964 47.6715H217.839C217.714 47.6715 217.589 47.5543 217.34 47.5543C216.715 47.4372 216.091 47.2029 215.591 47.0858C214.467 46.7344 213.343 46.2659 212.219 45.6803C209.971 44.509 207.972 43.1035 206.473 41.4637C205.724 40.5266 204.975 39.5896 204.35 38.6526ZM217.964 48.4914L217.839 48.6085C217.839 48.6085 217.839 48.7256 217.714 48.7256C215.341 48.8427 212.968 48.4914 210.72 47.5543C208.347 46.5002 206.349 44.9775 204.975 43.2206C204.35 42.2836 203.601 40.9951 203.851 39.5896C205.1 41.4637 206.723 43.1035 208.597 44.509C210.72 46.0317 213.093 47.203 215.716 48.0229C216.465 48.14 217.215 48.2571 217.964 48.4914ZM211.22 48.7256C208.971 48.2571 207.098 47.3201 205.724 46.0317C204.6 45.0946 203.851 43.9234 203.476 42.6349C203.351 42.2836 203.226 41.9322 203.226 41.5808C203.851 43.572 205.474 45.2118 206.598 46.1488C207.972 47.203 209.596 48.0228 211.22 48.7256ZM202.602 39.1211C202.477 39.004 202.477 38.7697 202.477 38.6526C202.477 38.4183 202.602 38.3012 202.726 38.0669C202.851 38.0669 202.851 37.9498 202.851 37.9498C202.851 37.8327 202.976 37.8327 202.976 37.7155L203.101 37.5984C203.476 37.247 203.975 37.0128 204.475 36.8957C204.6 36.8957 204.85 36.7785 205.1 36.8957C205.1 36.8957 205.1 36.8957 205.224 36.8957C204.85 37.1299 204.475 37.3641 204.1 37.5984C203.351 38.184 202.851 38.6526 202.602 39.1211ZM199.229 32.3276C198.98 32.0934 198.605 31.8591 198.355 31.6249C200.603 32.679 202.352 34.5531 202.976 36.6614L202.851 36.7785C202.727 36.31 202.477 35.8415 202.227 35.373C201.602 34.4359 200.603 33.3818 199.229 32.3276ZM219.088 47.0858L220.462 46.2659C220.337 46.3831 220.337 46.5002 220.212 46.6173C219.963 46.9687 219.588 47.203 219.213 47.4372C219.088 47.203 219.088 47.0858 219.088 47.0858ZM220.337 49.077L219.213 48.7256C219.088 48.7256 218.963 48.7256 218.838 48.7256C218.838 48.6085 218.963 48.4914 218.963 48.3742V48.4914V48.3742C218.963 48.2571 219.088 48.14 219.088 48.14C219.588 48.3742 219.963 48.6085 220.337 49.077ZM218.963 49.8969C218.838 49.7798 218.838 49.6627 218.714 49.5455C218.589 49.4284 218.464 49.4284 218.214 49.4284L218.339 49.3113C218.464 49.1941 218.464 49.1941 218.589 49.077C218.589 49.1941 218.589 49.3113 218.714 49.4284C218.838 49.5455 218.963 49.6626 218.963 49.8969ZM169.878 27.174C170.128 26.0027 170.503 24.7143 171.127 23.543C172.251 21.0833 173.875 18.8579 175.998 16.9838C177.872 15.344 179.995 14.0556 182.368 13.1185C181.993 14.407 181.744 15.6954 181.494 16.8667L181.369 17.4523C181.119 18.8579 180.744 20.4976 180.12 21.9032C179.495 23.3087 178.621 24.48 177.497 25.5342C176.373 26.5883 175.124 27.2911 173.625 27.8767C172.626 28.2281 171.252 28.5795 170.128 27.9939C172.001 26.7055 173.875 25.1828 175.374 23.4259C177.872 20.8491 179.745 17.9208 181.119 14.8755C181.119 14.7583 181.119 14.6412 181.119 14.5241C180.994 14.407 180.869 14.2898 180.744 14.407C180.619 14.407 180.495 14.5241 180.37 14.6412C179.62 16.3982 178.621 18.0379 177.497 19.5606C175.499 22.2546 173.126 24.7143 170.378 26.8226C170.253 26.9397 170.003 27.0568 169.878 27.174ZM161.51 32.4448C162.884 32.2105 164.632 31.742 166.506 31.3906C171.377 30.4536 178.746 29.2823 186.115 29.6337C184.741 31.2735 183.492 32.5619 182.243 33.7332C178.246 37.247 173.5 39.8238 168.254 41.2294C168.13 41.2294 167.88 41.3465 167.755 41.3465H167.63L167.005 41.4637C166.881 41.4637 166.756 41.5808 166.756 41.5808C157.388 43.572 147.272 41.6979 139.403 36.31C139.903 36.31 140.277 36.31 140.777 36.31C144.649 36.0758 148.396 35.2559 152.143 34.5531L153.516 34.2017C154.765 33.9674 155.89 33.7332 157.138 33.3818C158.512 33.0304 159.886 32.7961 161.26 32.4448C161.385 32.4448 161.51 32.4448 161.51 32.4448ZM173.375 40.7609C172.876 40.7609 172.376 40.878 171.877 40.878C172.501 40.6438 173.25 40.4095 173.875 40.0581C174.125 39.941 174.25 39.941 174.499 39.8239C174.25 39.941 174 40.1752 173.875 40.2924C173.625 40.2924 173.5 40.5266 173.375 40.7609ZM175.124 40.2924C175.623 39.941 176.123 39.7067 176.623 39.3553C177.622 38.7697 178.746 38.4183 179.87 38.0669C183.742 37.0128 187.988 37.5984 191.361 39.7067C192.984 40.6438 194.483 42.0493 195.732 43.6891C196.731 44.9775 197.606 46.3831 198.48 48.3742C196.107 48.0229 193.609 48.14 191.486 48.2571C190.861 48.2571 190.237 48.3742 189.487 48.3742C186.115 48.7256 182.493 48.9599 179.121 48.14C177.122 47.6715 175.499 46.7345 174.25 45.6803C173.625 45.0947 173.001 44.2748 173.001 43.3377C173.001 42.7521 173.25 41.9322 174.125 41.5808C174.125 41.5808 174.25 41.5808 174.25 41.4637H174.375C176.748 41.3465 178.746 41.2294 180.744 41.3465C182.993 41.4637 184.991 41.6979 186.615 42.2835C190.112 43.4548 193.109 45.6803 195.857 48.0229C195.982 48.14 196.357 48.14 196.482 48.0229C196.606 47.7886 196.606 47.5544 196.482 47.4372C195.108 46.2659 193.359 44.8604 191.361 43.6891C189.612 42.6349 187.864 41.815 186.24 41.3465C184.491 40.878 182.493 40.6437 180.12 40.5266C178.121 40.5266 176.248 40.5266 174.499 40.6437C174.749 40.5266 174.999 40.4095 175.124 40.2924ZM133.907 34.9045C133.907 34.9045 134.032 34.9045 134.157 34.9045C134.407 34.9045 134.657 34.9045 134.907 34.9045C135.281 34.9045 135.531 35.0216 135.781 35.1387C136.28 35.2559 136.655 35.4901 137.03 35.7244C136.655 35.7244 136.405 35.7244 136.031 35.7244C135.406 35.6072 134.907 35.4901 134.407 35.2558H134.282C134.032 35.0216 133.907 34.9045 133.907 34.9045ZM199.479 13.5871C199.604 12.8843 199.979 12.2987 200.478 11.713C201.602 10.4246 203.226 9.60471 205.224 9.37046C206.224 9.25333 207.348 9.2533 208.597 9.48756C209.096 9.60469 209.721 9.72184 210.22 9.83896H210.47C210.72 9.83896 210.97 9.95607 211.095 10.0732C210.22 10.6588 209.471 11.2445 208.847 11.713L208.472 11.9473C207.098 13.1185 205.599 14.2898 203.851 14.8755C202.851 15.2269 201.977 15.344 201.103 15.2269C200.478 15.1098 199.979 14.8755 199.604 14.407C199.979 14.1727 200.353 13.9384 200.728 13.7042C202.976 12.2986 205.474 11.3616 208.097 10.776C208.347 10.776 208.472 10.5417 208.472 10.3075C208.472 10.1903 208.347 10.0732 208.347 10.0732C208.222 9.95607 208.097 9.9561 207.972 9.9561C206.473 10.3075 204.975 10.776 203.476 11.3616C202.102 12.0644 200.728 12.7672 199.479 13.5871ZM236.449 18.3893C236.449 18.2722 236.324 18.1551 236.199 18.1551C236.074 18.1551 236.074 18.038 236.074 17.5695C236.074 17.3352 236.199 17.1009 236.199 16.8667V16.6324C236.199 16.3981 236.324 16.0468 236.449 15.8125C236.574 15.5783 236.699 15.4611 237.074 15.344C237.698 15.1097 238.323 15.1097 238.822 15.344V16.1639L238.572 15.9296L238.697 16.281C238.572 16.3982 238.448 16.6324 238.448 16.8667C238.448 17.4523 238.947 18.1551 239.572 18.2722C239.821 18.2722 239.946 18.2722 240.196 18.1551L240.321 18.2722L240.196 18.038C240.321 17.9208 240.446 17.8037 240.446 17.6866C240.571 17.3352 240.446 17.1009 240.321 16.9838C240.196 16.6324 239.946 16.3982 239.572 16.281C239.447 16.281 239.322 16.1639 239.197 16.1639L238.697 15.2269C239.072 15.344 239.322 15.5783 239.572 15.8125C240.321 16.5153 240.696 17.5694 240.696 18.6236C240.696 19.2092 240.571 19.5606 240.196 19.912C239.946 20.1463 239.447 20.3805 238.822 20.3805C237.948 20.3805 237.074 20.1463 236.699 19.3264C236.699 19.2093 236.574 19.0921 236.449 19.0921L236.074 18.6236C236.449 18.5065 236.449 18.5065 236.449 18.3893ZM229.954 21.4347C231.828 21.0833 233.701 20.4976 235.325 19.5606C234.95 19.7949 234.576 20.0291 234.201 20.1463C232.827 20.849 231.328 21.3176 229.954 21.4347ZM227.581 26.5883C227.706 26.1198 228.081 25.7684 228.705 25.5342H228.83C228.83 25.5342 228.83 25.5342 228.955 25.5342C229.08 25.5342 229.205 25.5342 229.33 25.417C229.58 25.0657 230.079 25.0657 230.454 25.0657C230.954 25.0657 231.328 25.1828 231.578 25.2999C231.703 25.417 231.828 25.5342 231.828 25.7684C231.828 26.237 231.453 26.7055 231.078 26.9397C230.954 27.0569 230.704 27.174 230.454 27.2911L230.329 27.0568L230.454 27.2911C230.579 27.2911 230.704 27.174 230.704 26.9397C230.829 26.8226 230.829 26.5883 230.829 26.3541C230.829 26.3541 230.829 26.3541 230.829 26.237C230.704 26.1198 230.704 26.0027 230.579 26.0027C230.454 26.0027 230.454 26.0027 230.329 26.0027C230.204 26.0027 230.079 26.0027 229.954 26.1198C229.83 26.1198 229.705 26.237 229.58 26.3541C229.455 26.4712 229.33 26.5883 229.33 26.7055C229.205 26.9397 229.33 27.174 229.455 27.2911C229.58 27.4082 229.705 27.5254 229.954 27.5254C229.58 27.6425 229.33 27.6425 228.955 27.6425C228.581 27.6425 227.956 27.5254 227.706 27.174C227.581 26.9397 227.456 26.8226 227.581 26.5883ZM234.95 5.15382C235.075 5.27095 235.2 5.27093 235.325 5.38806L233.826 4.91955C233.826 4.80243 233.826 4.68532 233.826 4.68532C234.201 4.80244 234.576 4.91957 234.95 5.15382ZM233.452 3.8654C233.452 3.8654 233.452 3.98253 233.452 3.8654C233.327 3.74828 233.327 3.74826 233.202 3.63113V3.51403V3.63113C233.077 3.514 233.077 3.51402 232.952 3.3969H233.077C233.202 3.3969 233.202 3.39689 233.327 3.27976L234.326 2.69412C234.201 3.16263 233.951 3.63115 233.452 3.8654ZM220.337 18.6236C220.212 18.7407 219.963 18.8578 219.838 18.975C219.963 18.7407 220.087 18.6236 220.337 18.6236C220.337 18.5065 220.337 18.5065 220.337 18.6236ZM232.452 5.38806C231.953 6.32509 231.453 7.26214 230.829 8.19917C229.58 10.3075 228.581 11.8301 227.456 13.1185C226.832 13.9384 226.083 14.6412 225.333 15.2269C224.584 15.9297 223.834 16.5153 222.835 16.7495H222.71C222.46 16.7495 222.086 16.7495 221.836 16.6324C222.086 15.4611 222.585 14.407 223.085 13.3528C224.084 11.3616 225.583 9.48756 227.456 7.84777C228.331 7.02787 229.33 6.32511 230.329 5.73947C230.829 5.38808 231.328 5.1538 231.953 4.80242C232.078 4.68529 232.203 4.68531 232.327 4.56818C232.327 4.56818 232.452 4.56817 232.452 4.45105C232.452 4.56817 232.452 4.68529 232.327 4.80242C232.452 5.1538 232.452 5.27093 232.452 5.38806ZM221.336 12.1815C222.086 10.0732 223.585 8.08202 225.583 6.55935C227.456 5.1538 229.705 4.09965 231.953 3.74827C231.953 3.74827 232.078 3.74828 232.078 3.8654L232.203 3.98254C231.578 4.33392 230.954 4.6853 230.329 5.03669C227.956 6.44223 225.958 8.19915 224.459 10.1903C222.96 12.0644 221.961 14.0556 221.212 16.0468C220.712 14.6412 220.962 13.1186 221.336 12.1815ZM219.963 13.1185C220.087 11.8301 220.462 10.4246 221.212 9.25332C222.211 7.73065 223.834 6.32512 225.708 5.27096C224.209 6.32512 222.96 7.49638 221.836 9.01905C220.962 10.1903 219.838 12.1815 219.838 14.1727C219.963 13.8213 219.963 13.4699 219.963 13.1185ZM231.328 1.63997C231.203 1.52284 231.203 1.4057 231.078 1.4057C231.453 1.63995 231.828 1.99133 231.953 2.45985C231.953 2.57697 232.078 2.69412 232.078 2.69412H231.953C231.828 2.34273 231.703 1.99135 231.328 1.63997ZM232.327 2.81125C232.452 2.81125 232.702 2.69411 232.702 2.57698C232.827 2.45985 232.827 2.34274 232.827 2.22561C232.827 2.45987 232.827 2.69413 232.702 2.81125C232.702 2.92838 232.702 3.04549 232.702 3.04549H232.577L232.452 2.92839C232.452 2.92839 232.327 2.92838 232.327 2.81125ZM232.327 7.4964C232.327 7.73065 232.203 7.96492 232.203 8.19917C231.953 9.72184 231.453 11.1274 230.954 12.5329C230.329 13.9384 229.705 14.9926 228.83 15.8125C227.581 16.8667 225.958 17.5694 224.209 17.4523C224.958 17.1009 225.583 16.5153 226.207 15.9296C228.83 13.4699 230.579 10.5417 232.327 7.4964ZM223.085 18.038C222.96 18.2722 222.71 18.2722 222.461 18.2722C222.086 18.2722 221.586 18.1551 221.212 18.038H221.087C220.962 18.038 220.962 18.038 220.837 17.9208C220.587 17.8037 220.087 17.5694 219.963 17.1009C219.963 16.9838 219.838 16.7495 219.963 16.6324C220.337 17.1009 220.962 17.3352 221.586 17.6866C222.211 17.8037 222.585 17.9208 223.085 18.038ZM250.313 14.0556C250.188 14.0556 250.188 14.0556 250.063 14.0556C249.938 13.9385 249.938 13.8213 249.938 13.8213C249.938 13.5871 250.188 13.3528 250.313 13.2357C250.188 13.3528 250.188 13.4699 250.188 13.5871C250.188 13.8213 250.313 13.9385 250.438 13.9385C250.563 13.9385 250.563 14.0556 250.688 14.0556H250.563C250.563 13.9385 250.438 14.0556 250.313 14.0556ZM251.312 12.7672C251.562 12.7672 251.812 12.7672 252.061 12.7672C252.186 12.7672 252.311 12.8843 252.311 12.8843C252.311 12.8843 252.311 12.8843 252.186 13.0014C252.061 13.0014 252.061 13.0014 252.061 13.1185H251.937C251.812 12.8843 251.562 12.7672 251.312 12.7672Z" fill="#BCB683"/>
<path d="M217.839 30.688C217.714 30.5709 217.589 30.4538 217.589 30.3367C217.589 29.9853 217.714 29.751 218.089 29.751H218.214C218.339 29.751 218.464 29.751 218.589 29.8682C218.714 29.9853 218.838 30.1024 218.838 30.2195C218.838 30.5709 218.713 30.8052 218.339 30.8052C218.089 30.8052 217.964 30.8052 217.839 30.688Z" fill="#BCB683"/>
<path d="M144.399 37.7153C144.149 37.5982 144.024 37.4811 144.024 37.2468C144.024 37.0125 144.024 36.8954 144.274 36.7783C144.399 36.6612 144.524 36.6611 144.648 36.6611C144.773 36.6611 144.773 36.6611 144.898 36.6611C145.148 36.7783 145.273 36.8954 145.273 37.1297C145.273 37.3639 145.273 37.4811 145.023 37.5982C144.773 37.7153 144.524 37.7153 144.399 37.7153Z" fill="#BCB683"/>
</svg>
