<svg width="20" height="24" viewBox="0 0 20 24" fill="none" xmlns="http://www.w3.org/2000/svg">
<path d="M19.1036 8.37496C19.3173 7.45946 19.6317 6.40194 19.0645 5.35965C17.8859 3.03034 14.8581 5.15177 13.6181 5.9798C12.378 6.80783 11.5283 7.69923 10.578 8.73267C10.276 9.15873 9.87322 9.7268 9.13655 9.84474C8.89099 9.88405 8.64544 9.92338 8.35569 9.71797C8.21082 9.61527 8.02177 9.26781 8.12245 9.12579C8.32382 8.84176 8.27962 8.59705 8.13475 8.49435C8.27235 6.45793 7.87468 4.25538 6.53895 2.45484C6.01595 1.65727 5.24739 0.899015 4.1203 0.953558C3.23876 0.968788 2.54627 1.33145 2.14354 1.89953C0.89115 3.35902 0.652874 5.53747 0.716639 7.28985C0.868781 9.53169 1.65692 11.7976 2.19948 14.1028C2.9753 17.0002 3.75112 19.8976 4.52693 22.795C4.57112 23.0397 5.00574 23.3478 5.2071 23.0638C7.39752 21.2023 9.3424 19.3801 11.3879 17.416C13.3328 15.5938 15.2777 13.7716 16.7879 11.6414C18.1287 10.6713 18.8335 9.67721 19.1036 8.37496ZM12.0485 16.1771C9.90231 18.2833 7.71189 20.1448 5.52147 22.0062C4.42403 18.0273 3.28237 13.8036 2.28561 9.68256C1.83142 7.86679 1.62279 6.0117 2.05014 4.18069C2.42099 2.73643 3.97542 0.850874 5.51252 2.36739C6.28107 3.12564 6.74756 4.30993 7.025 5.14681C7.34663 6.22841 7.4227 7.34931 7.3539 8.36752C7.25322 8.50954 7.3981 8.61227 7.54297 8.71498C7.14024 9.28305 7.51833 9.97792 7.99714 10.5308C8.86637 11.147 9.8044 10.745 10.4527 10.1376C11.3023 9.24622 12.0513 8.49681 12.901 7.60539C13.8955 6.81667 14.89 6.02795 15.9287 5.48396C16.5205 5.26332 17.0682 4.79794 17.7483 5.06675C18.2836 5.23285 18.5169 5.82498 18.5046 6.45645C18.48 7.71938 17.9642 9.06096 17.2595 10.0551C16.039 12.3908 13.9934 14.355 12.0485 16.1771Z" fill="#D04387"/>
</svg>
