<svg width="32" height="32" viewBox="0 0 32 32" fill="none" xmlns="http://www.w3.org/2000/svg">
<rect width="32" height="32" rx="5" fill="#371E10"/>
<path fill-rule="evenodd" clip-rule="evenodd" d="M12.976 8.7105C13.758 8.6745 14.0073 8.6665 15.9993 8.6665C17.9913 8.6665 18.2407 8.67517 19.022 8.7105C19.8033 8.74584 20.3367 8.8705 20.8033 9.05117C21.292 9.23584 21.7353 9.5245 22.102 9.89784C22.4753 10.2638 22.7633 10.7065 22.9473 11.1958C23.1287 11.6625 23.2527 12.1958 23.2887 12.9758C23.3247 13.7592 23.3327 14.0085 23.3327 15.9998C23.3327 17.9918 23.324 18.2412 23.2887 19.0232C23.2533 19.8032 23.1287 20.3365 22.9473 20.8032C22.7633 21.2926 22.4749 21.736 22.102 22.1025C21.7353 22.4758 21.292 22.7638 20.8033 22.9478C20.3367 23.1292 19.8033 23.2532 19.0233 23.2892C18.2407 23.3252 17.9913 23.3332 15.9993 23.3332C14.0073 23.3332 13.758 23.3245 12.976 23.2892C12.196 23.2538 11.6627 23.1292 11.196 22.9478C10.7066 22.7638 10.2632 22.4753 9.89668 22.1025C9.5236 21.7363 9.23489 21.2931 9.05068 20.8038C8.87002 20.3372 8.74602 19.8038 8.71002 19.0238C8.67402 18.2405 8.66602 17.9912 8.66602 15.9998C8.66602 14.0078 8.67468 13.7585 8.71002 12.9772C8.74535 12.1958 8.87002 11.6625 9.05068 11.1958C9.23516 10.7066 9.52409 10.2634 9.89735 9.89717C10.2634 9.52417 10.7063 9.23547 11.1953 9.05117C11.662 8.8705 12.1953 8.7465 12.9753 8.7105H12.976ZM18.9627 10.0305C18.1893 9.99517 17.9573 9.98784 15.9993 9.98784C14.0413 9.98784 13.8093 9.99517 13.036 10.0305C12.3207 10.0632 11.9327 10.1825 11.674 10.2832C11.332 10.4165 11.0873 10.5745 10.8307 10.8312C10.5874 11.0679 10.4001 11.356 10.2827 11.6745C10.182 11.9332 10.0627 12.3212 10.03 13.0365C9.99468 13.8098 9.98735 14.0418 9.98735 15.9998C9.98735 17.9578 9.99468 18.1898 10.03 18.9632C10.0627 19.6785 10.182 20.0665 10.2827 20.3252C10.4 20.6432 10.5873 20.9318 10.8307 21.1685C11.0673 21.4118 11.356 21.5992 11.674 21.7165C11.9327 21.8172 12.3207 21.9365 13.036 21.9692C13.8093 22.0045 14.0407 22.0118 15.9993 22.0118C17.958 22.0118 18.1893 22.0045 18.9627 21.9692C19.678 21.9365 20.066 21.8172 20.3247 21.7165C20.6667 21.5832 20.9113 21.4252 21.168 21.1685C21.4113 20.9318 21.5987 20.6432 21.716 20.3252C21.8167 20.0665 21.936 19.6785 21.9687 18.9632C22.004 18.1898 22.0113 17.9578 22.0113 15.9998C22.0113 14.0418 22.004 13.8098 21.9687 13.0365C21.936 12.3212 21.8167 11.9332 21.716 11.6745C21.5827 11.3325 21.4247 11.0878 21.168 10.8312C20.9313 10.5879 20.6432 10.4006 20.3247 10.2832C20.066 10.1825 19.678 10.0632 18.9627 10.0305ZM15.0627 18.2605C15.5858 18.4783 16.1683 18.5076 16.7106 18.3437C17.253 18.1797 17.7216 17.8324 18.0364 17.3613C18.3512 16.8902 18.4927 16.3244 18.4367 15.7606C18.3807 15.1967 18.1307 14.6698 17.7293 14.2698C17.4735 14.0142 17.1642 13.8184 16.8236 13.6966C16.483 13.5748 16.1196 13.5301 15.7597 13.5656C15.3997 13.6011 15.0521 13.716 14.7419 13.9019C14.4317 14.0879 14.1665 14.3403 13.9656 14.6411C13.7646 14.9418 13.6328 15.2834 13.5797 15.6411C13.5266 15.9989 13.5534 16.364 13.6584 16.7102C13.7633 17.0563 13.9437 17.3749 14.1865 17.643C14.4293 17.9111 14.7286 18.122 15.0627 18.2605ZM13.334 13.3345C13.684 12.9845 14.0996 12.7068 14.5569 12.5174C15.0142 12.328 15.5044 12.2305 15.9993 12.2305C16.4943 12.2305 16.9845 12.328 17.4418 12.5174C17.8991 12.7068 18.3147 12.9845 18.6647 13.3345C19.0147 13.6845 19.2923 14.1001 19.4818 14.5574C19.6712 15.0147 19.7687 15.5048 19.7687 15.9998C19.7687 16.4948 19.6712 16.985 19.4818 17.4423C19.2923 17.8996 19.0147 18.3152 18.6647 18.6652C17.9578 19.3721 16.999 19.7692 15.9993 19.7692C14.9997 19.7692 14.0409 19.3721 13.334 18.6652C12.6271 17.9583 12.23 16.9995 12.23 15.9998C12.23 15.0001 12.6271 14.0414 13.334 13.3345ZM20.6047 12.7918C20.6914 12.71 20.7609 12.6116 20.8089 12.5025C20.8569 12.3933 20.8826 12.2757 20.8843 12.1565C20.886 12.0372 20.8638 11.9189 20.819 11.8084C20.7742 11.6979 20.7076 11.5975 20.6233 11.5132C20.539 11.4289 20.4386 11.3623 20.3281 11.3175C20.2177 11.2727 20.0993 11.2505 19.9801 11.2522C19.8608 11.254 19.7432 11.2796 19.634 11.3276C19.5249 11.3757 19.4265 11.4451 19.3447 11.5318C19.1856 11.7005 19.0984 11.9246 19.1018 12.1565C19.1052 12.3883 19.1988 12.6098 19.3628 12.7737C19.5268 12.9377 19.7482 13.0313 19.9801 13.0347C20.2119 13.0381 20.436 12.951 20.6047 12.7918Z" fill="white"/>
</svg>
