<svg width="32" height="32" viewBox="0 0 32 32" fill="none" xmlns="http://www.w3.org/2000/svg">
<circle cx="16" cy="16" r="16" fill="#323232"/>
<path fill-rule="evenodd" clip-rule="evenodd" d="M12.9766 8.71063C13.7586 8.67463 14.008 8.66663 16 8.66663C17.992 8.66663 18.2413 8.67529 19.0226 8.71063C19.804 8.74596 20.3373 8.87063 20.804 9.05129C21.2926 9.23596 21.736 9.52463 22.1026 9.89796C22.476 10.264 22.764 10.7066 22.948 11.196C23.1293 11.6626 23.2533 12.196 23.2893 12.976C23.3253 13.7593 23.3333 14.0086 23.3333 16C23.3333 17.992 23.3246 18.2413 23.2893 19.0233C23.254 19.8033 23.1293 20.3366 22.948 20.8033C22.764 21.2927 22.4755 21.7361 22.1026 22.1026C21.736 22.476 21.2926 22.764 20.804 22.948C20.3373 23.1293 19.804 23.2533 19.024 23.2893C18.2413 23.3253 17.992 23.3333 16 23.3333C14.008 23.3333 13.7586 23.3246 12.9766 23.2893C12.1966 23.254 11.6633 23.1293 11.1966 22.948C10.7072 22.7639 10.2638 22.4755 9.89729 22.1026C9.52421 21.7364 9.2355 21.2932 9.05129 20.804C8.87063 20.3373 8.74663 19.804 8.71063 19.024C8.67463 18.2406 8.66663 17.9913 8.66663 16C8.66663 14.008 8.67529 13.7586 8.71063 12.9773C8.74596 12.196 8.87063 11.6626 9.05129 11.196C9.23577 10.7067 9.52471 10.2635 9.89796 9.89729C10.264 9.52429 10.7069 9.23559 11.196 9.05129C11.6626 8.87063 12.196 8.74663 12.976 8.71063H12.9766ZM18.9633 10.0306C18.19 9.99529 17.958 9.98796 16 9.98796C14.042 9.98796 13.81 9.99529 13.0366 10.0306C12.3213 10.0633 11.9333 10.1826 11.6746 10.2833C11.3326 10.4166 11.088 10.5746 10.8313 10.8313C10.588 11.068 10.4007 11.3561 10.2833 11.6746C10.1826 11.9333 10.0633 12.3213 10.0306 13.0366C9.99529 13.81 9.98796 14.042 9.98796 16C9.98796 17.958 9.99529 18.19 10.0306 18.9633C10.0633 19.6786 10.1826 20.0666 10.2833 20.3253C10.4006 20.6433 10.588 20.932 10.8313 21.1686C11.068 21.412 11.3566 21.5993 11.6746 21.7166C11.9333 21.8173 12.3213 21.9366 13.0366 21.9693C13.81 22.0046 14.0413 22.012 16 22.012C17.9586 22.012 18.19 22.0046 18.9633 21.9693C19.6786 21.9366 20.0666 21.8173 20.3253 21.7166C20.6673 21.5833 20.912 21.4253 21.1686 21.1686C21.412 20.932 21.5993 20.6433 21.7166 20.3253C21.8173 20.0666 21.9366 19.6786 21.9693 18.9633C22.0046 18.19 22.012 17.958 22.012 16C22.012 14.042 22.0046 13.81 21.9693 13.0366C21.9366 12.3213 21.8173 11.9333 21.7166 11.6746C21.5833 11.3326 21.4253 11.088 21.1686 10.8313C20.9319 10.588 20.6438 10.4008 20.3253 10.2833C20.0666 10.1826 19.6786 10.0633 18.9633 10.0306ZM15.0633 18.2606C15.5864 18.4784 16.1689 18.5078 16.7112 18.3438C17.2536 18.1798 17.7222 17.8326 18.037 17.3615C18.3518 16.8903 18.4933 16.3245 18.4373 15.7607C18.3813 15.1969 18.1313 14.6699 17.73 14.27C17.4741 14.0143 17.1648 13.8185 16.8242 13.6967C16.4836 13.5749 16.1202 13.5302 15.7603 13.5657C15.4003 13.6012 15.0527 13.7161 14.7425 13.902C14.4323 14.088 14.1671 14.3405 13.9662 14.6412C13.7652 14.9419 13.6334 15.2835 13.5803 15.6413C13.5272 15.999 13.5541 16.3642 13.659 16.7103C13.7639 17.0565 13.9443 17.375 14.1871 17.6431C14.4299 17.9112 14.7292 18.1221 15.0633 18.2606ZM13.3346 13.3346C13.6846 12.9846 14.1002 12.707 14.5575 12.5175C15.0148 12.3281 15.505 12.2306 16 12.2306C16.495 12.2306 16.9851 12.3281 17.4424 12.5175C17.8997 12.707 18.3153 12.9846 18.6653 13.3346C19.0153 13.6846 19.293 14.1002 19.4824 14.5575C19.6718 15.0148 19.7693 15.505 19.7693 16C19.7693 16.495 19.6718 16.9851 19.4824 17.4424C19.293 17.8997 19.0153 18.3153 18.6653 18.6653C17.9584 19.3722 16.9997 19.7693 16 19.7693C15.0003 19.7693 14.0415 19.3722 13.3346 18.6653C12.6277 17.9584 12.2306 16.9997 12.2306 16C12.2306 15.0003 12.6277 14.0415 13.3346 13.3346ZM20.6053 12.792C20.692 12.7101 20.7615 12.6117 20.8095 12.5026C20.8575 12.3935 20.8832 12.2758 20.8849 12.1566C20.8866 12.0374 20.8644 11.919 20.8196 11.8085C20.7748 11.698 20.7082 11.5976 20.6239 11.5133C20.5396 11.429 20.4392 11.3625 20.3288 11.3176C20.2183 11.2728 20.0999 11.2506 19.9807 11.2523C19.8614 11.2541 19.7438 11.2797 19.6346 11.3278C19.5255 11.3758 19.4271 11.4452 19.3453 11.532C19.1862 11.7006 19.099 11.9247 19.1024 12.1566C19.1058 12.3885 19.1994 12.6099 19.3634 12.7739C19.5274 12.9378 19.7488 13.0314 19.9807 13.0348C20.2125 13.0382 20.4366 12.9511 20.6053 12.792Z" fill="white"/>
</svg>
