<svg width="32" height="32" viewBox="0 0 32 32" fill="none" xmlns="http://www.w3.org/2000/svg">
<circle cx="16" cy="16" r="16" fill="#323232"/>
<path d="M23.762 11.2913C23.2053 11.538 22.6073 11.7047 21.9786 11.78C22.6273 11.3919 23.1126 10.781 23.344 10.0613C22.7345 10.4233 22.0675 10.6781 21.372 10.8147C20.9042 10.3153 20.2847 9.98423 19.6095 9.87299C18.9344 9.76176 18.2414 9.87654 17.6381 10.1995C17.0349 10.5225 16.5552 11.0356 16.2734 11.6591C15.9917 12.2827 15.9237 12.9818 16.08 13.648C14.8451 13.586 13.6371 13.265 12.5343 12.7059C11.4314 12.1469 10.4585 11.3621 9.67863 10.4027C9.41197 10.8627 9.25863 11.396 9.25863 11.964C9.25834 12.4753 9.38426 12.9788 9.62522 13.4298C9.86618 13.8808 10.2147 14.2654 10.64 14.5493C10.1468 14.5337 9.66455 14.4004 9.2333 14.1607V14.2007C9.23325 14.9178 9.48132 15.6129 9.93542 16.168C10.3895 16.7231 11.0217 17.104 11.7246 17.246C11.2672 17.3698 10.7875 17.3881 10.322 17.2993C10.5203 17.9164 10.9066 18.456 11.4269 18.8426C11.9471 19.2292 12.5752 19.4435 13.2233 19.4553C12.1232 20.319 10.7646 20.7874 9.36597 20.7853C9.11822 20.7854 8.87068 20.7709 8.62463 20.742C10.0443 21.6548 11.6969 22.1392 13.3846 22.1373C19.098 22.1373 22.2213 17.4053 22.2213 13.3013C22.2213 13.168 22.218 13.0333 22.212 12.9C22.8195 12.4607 23.3439 11.9166 23.7606 11.2933L23.762 11.2913Z" fill="white"/>
</svg>
