<svg width="73" height="21" viewBox="0 0 73 21" fill="none" xmlns="http://www.w3.org/2000/svg">
<path d="M30.1636 2.55843C30.1141 2.50891 30.0645 2.45938 29.9655 2.40985C30.0645 2.3108 30.0645 2.16221 30.015 2.01363C29.9655 1.86505 29.8169 1.766 29.6188 1.71648H29.5692C29.7178 1.5679 29.7178 1.36978 29.6683 1.17168C29.5693 0.973569 29.4207 0.874512 29.2226 0.874512C29.0245 0.874512 28.8264 0.973566 28.7273 1.12215C28.6778 1.17167 28.6778 1.2212 28.6778 1.27073C28.6778 1.2212 28.6282 1.22121 28.5787 1.22121C28.4301 1.22121 28.2816 1.2212 28.133 1.32026C28.0339 1.36979 27.9349 1.46884 27.8853 1.61742C27.8853 1.71647 27.8853 1.86505 27.9844 1.91458C27.9844 1.91458 27.9349 1.91458 27.9349 1.96411C27.9349 1.96411 27.8853 1.96411 27.8358 1.96411C27.6377 2.06316 27.3405 2.26127 27.3901 2.5089C27.3901 2.65748 27.4891 2.80607 27.6377 2.90512C27.4891 2.95465 27.4396 3.10323 27.4396 3.25181C27.4396 3.40039 27.4891 3.49944 27.5882 3.59849C27.5882 3.59849 27.5882 3.5985 27.5386 3.64802C27.4891 3.64802 27.4891 3.64803 27.4396 3.69755C27.2415 3.89566 27.2415 4.19282 27.4396 4.39093C27.4891 4.48998 27.5882 4.53951 27.7368 4.58903C27.7368 4.73761 27.7367 4.8862 27.7863 4.98525C27.8358 5.0843 27.9349 5.18336 28.0339 5.18336C27.9349 5.33194 27.6872 5.38147 27.6377 5.6291C27.5882 5.82721 27.7368 6.02532 27.9349 6.02532C28.133 6.07485 28.3806 5.97579 28.5292 5.82721C28.6282 5.77768 28.6778 5.72816 28.7768 5.6291C28.8263 5.57958 28.8263 5.53005 28.8759 5.53005C28.9254 5.67863 29.0245 5.87674 29.1235 5.97579C29.2721 6.12437 29.5197 6.27295 29.6683 6.12437C29.8664 5.97579 29.6683 5.6291 29.5692 5.48052C29.5197 5.43099 29.4207 5.33194 29.3711 5.28241C29.6188 5.13383 29.7178 4.83667 29.7178 4.58903C29.7178 4.48998 29.7178 4.44046 29.6683 4.39093C29.7178 4.39093 29.7674 4.3414 29.8169 4.3414C30.0645 4.19282 30.1636 3.89566 30.0645 3.59849C30.015 3.49944 29.9655 3.40039 29.9159 3.30134C29.9655 3.30134 30.0645 3.25181 30.114 3.20228C30.3617 3.15276 30.3617 2.75654 30.1636 2.55843ZM29.5197 1.96411C29.5692 1.96411 29.5692 1.96411 29.5692 1.96411H29.6188L29.6683 2.01363C29.6683 2.01363 29.6683 2.01364 29.7178 2.06316C29.7178 2.11269 29.7178 2.11269 29.7674 2.11269C29.7674 2.11269 29.7674 2.11269 29.7178 2.11269C29.7178 2.11269 29.7178 2.11269 29.6683 2.11269C29.6683 2.11269 29.6683 2.11269 29.6188 2.11269H29.5692L29.5197 2.06316V2.01363V1.96411C29.5197 1.91458 29.4207 1.86505 29.3711 1.86505C29.3711 1.86505 29.3711 1.86505 29.4207 1.86505H29.4702C29.5197 1.86505 29.5197 1.86505 29.5197 1.86505C29.4702 1.9641 29.4702 1.96411 29.5197 1.96411ZM28.8759 1.41931C28.8759 1.41931 28.8759 1.36978 28.8759 1.41931C28.8759 1.36978 28.8759 1.36979 28.8759 1.32026C28.8759 1.32026 28.8759 1.27073 28.9254 1.27073C28.9749 1.27073 28.9749 1.22121 29.0244 1.22121C29.0244 1.22121 29.0245 1.22121 29.074 1.22121C29.074 1.22121 29.074 1.22121 29.1235 1.22121C29.173 1.22121 29.173 1.22121 29.2226 1.22121H29.2721H29.3216C29.3216 1.22121 29.3216 1.2212 29.3711 1.27073V1.32026V1.36978V1.41931C29.3711 1.41931 29.3711 1.46884 29.3216 1.46884C29.3216 1.46884 29.2721 1.46884 29.2721 1.51836C29.2721 1.51836 29.2721 1.51836 29.2226 1.51836C29.2226 1.51836 29.2226 1.51836 29.173 1.51836H29.1235C29.1235 1.51836 29.1235 1.51836 29.074 1.51836H29.0244C28.9749 1.51836 28.9254 1.51837 28.8759 1.56789C28.8759 1.51837 28.8759 1.51837 28.8263 1.46884V1.41931V1.36978C28.8263 1.36978 28.8263 1.32025 28.8263 1.36978C28.8759 1.46884 28.8759 1.41931 28.8759 1.41931ZM28.3806 4.29188C28.3806 4.24235 28.3311 4.19282 28.2815 4.19282C28.2815 4.1433 28.232 4.09377 28.2815 3.99471C28.2815 3.94518 28.2815 3.94519 28.2815 3.89566C28.3311 3.89566 28.3806 3.84613 28.4301 3.79661C28.5292 3.74708 28.5787 3.64803 28.6282 3.54897C28.7273 3.5985 28.7768 3.59849 28.8759 3.59849H28.9254V3.64802C29.074 3.7966 29.074 4.04424 28.9749 4.19282C28.8264 4.3414 28.5787 4.39093 28.3806 4.29188ZM28.5787 3.30134C28.4797 3.20228 28.4301 3.10323 28.4301 2.95465V2.90512L28.4797 2.85559C28.5292 2.75654 28.5787 2.70701 28.6282 2.60795C28.7273 2.65748 28.8264 2.65749 28.9749 2.65749C29.0245 2.65749 29.0245 2.65748 29.074 2.60795C29.074 2.60795 29.074 2.65749 29.1235 2.65749C29.3216 2.80607 29.3216 3.0537 29.2226 3.25181C29.0245 3.40039 28.7768 3.44992 28.5787 3.30134ZM28.7273 2.06316C28.7273 2.01364 28.7273 2.01364 28.7273 2.06316C28.7273 2.01364 28.7273 2.01364 28.7273 2.06316C28.7273 2.01364 28.7273 2.01364 28.7273 2.06316C28.7768 2.01364 28.7768 2.01363 28.7768 2.01363H28.8263C28.8263 2.01363 28.8263 2.01363 28.8759 2.01363C28.8759 2.01363 28.8759 2.01363 28.9254 2.01363C28.9254 2.01363 28.9254 2.06316 28.9749 2.06316V2.11269C28.9749 2.11269 28.9749 2.11269 28.9749 2.16222V2.21175C28.9749 2.21175 28.9749 2.21174 28.9749 2.26127C28.9749 2.26127 28.9749 2.26127 28.9749 2.3108H28.9254C28.9254 2.3108 28.9254 2.3108 28.8759 2.3108H28.8263H28.7768H28.7273C28.7273 2.26127 28.7273 2.21174 28.6778 2.16222C28.7273 2.16222 28.7768 2.11269 28.7768 2.11269C28.7768 2.11269 28.7768 2.11269 28.7768 2.06316C28.6778 2.06316 28.6778 2.06316 28.7273 2.06316ZM28.133 1.766C28.133 1.766 28.133 1.71647 28.133 1.766C28.133 1.71647 28.133 1.71647 28.133 1.766C28.133 1.71647 28.133 1.71648 28.133 1.71648C28.133 1.71648 28.133 1.71647 28.133 1.66695H28.1825C28.232 1.66695 28.232 1.66695 28.2815 1.66695C28.3311 1.66695 28.3311 1.66695 28.3806 1.66695C28.3806 1.66695 28.3806 1.66695 28.4301 1.66695H28.4797C28.5292 1.66695 28.5292 1.66694 28.5787 1.61742C28.5787 1.66694 28.6282 1.766 28.6282 1.81553L28.5787 1.86505C28.5787 1.86505 28.5787 1.86505 28.5787 1.91458C28.5787 1.91458 28.5787 1.91458 28.5292 1.91458C28.4797 1.91458 28.4797 1.91458 28.4797 1.91458C28.4301 1.91458 28.4301 1.91458 28.3806 1.91458C28.3311 1.91458 28.3311 1.91458 28.2815 1.91458H28.232C28.133 1.81553 28.133 1.81553 28.133 1.766ZM27.6377 2.60795C27.5882 2.40985 27.8358 2.3108 27.9349 2.21175C27.9844 2.21175 27.9844 2.21175 28.0339 2.21175C28.133 2.11269 28.232 2.16222 28.2815 2.21175C28.2815 2.26127 28.2815 2.3108 28.3311 2.40985C28.3311 2.40985 28.3311 2.40985 28.3311 2.45938C28.3311 2.55843 28.3311 2.65749 28.232 2.70701C28.133 2.80607 28.0339 2.90512 27.8853 2.85559C27.8358 2.85559 27.6872 2.75654 27.6377 2.60795ZM27.7863 3.20228C27.8358 3.15276 27.8358 3.10323 27.8358 3.0537H27.8853C27.9844 3.0537 28.133 3.0537 28.232 3.0537C28.232 3.20228 28.3311 3.35087 28.4301 3.44992C28.4301 3.54897 28.3311 3.64803 28.2815 3.69755C28.1825 3.74708 28.0834 3.7966 27.9844 3.74708C27.8853 3.69755 27.7368 3.5985 27.6872 3.49944C27.6377 3.35086 27.6872 3.25181 27.7863 3.20228ZM27.8853 4.48998C27.8358 4.48998 27.8358 4.48998 27.8853 4.48998C27.8358 4.48998 27.8358 4.48998 27.8358 4.48998C27.8358 4.48998 27.8358 4.48998 27.7863 4.48998C27.7863 4.48998 27.7863 4.48998 27.7368 4.48998C27.7368 4.48998 27.6872 4.48999 27.6872 4.44046C27.6872 4.44046 27.6872 4.44046 27.6872 4.39093C27.6872 4.39093 27.6872 4.39093 27.6872 4.3414C27.6872 4.3414 27.6872 4.29188 27.6377 4.29188C27.6377 4.29188 27.6377 4.29187 27.6377 4.24235C27.6377 4.24235 27.6377 4.24235 27.6377 4.19282C27.6377 4.1433 27.6377 4.14329 27.6377 4.09376C27.6377 4.09376 27.6377 4.04424 27.6377 4.09376V4.04424V3.99471C27.6377 3.99471 27.6377 3.99472 27.6377 3.94519H27.6872C27.6872 3.94519 27.6872 3.94519 27.7368 3.94519C27.7368 3.94519 27.7367 3.94519 27.7863 3.94519H27.8358H27.8853C27.9349 3.99472 28.0339 3.99471 28.0834 3.99471C28.0339 4.14329 28.0834 4.24235 28.133 4.39093C28.133 4.39093 28.0834 4.39093 28.0834 4.44046C27.9349 4.48999 27.8853 4.48998 27.8853 4.48998ZM28.133 4.63856C28.1825 4.58904 28.2815 4.53951 28.2815 4.48998C28.3806 4.53951 28.5292 4.58903 28.6282 4.58903H28.6778C28.7273 4.68809 28.7273 4.83667 28.6778 4.93573C28.6282 5.03478 28.4797 5.13384 28.3806 5.18336C28.232 5.23289 28.0834 5.18336 28.0339 5.0843C27.9844 4.98525 27.9844 4.83667 27.9844 4.73762C27.9844 4.68809 28.0339 4.63856 28.133 4.63856ZM28.5292 5.67863C28.4301 5.77769 28.2815 5.87674 28.0834 5.92627C27.9844 5.92627 27.9349 5.97579 27.8358 5.92627C27.7863 5.87674 27.7863 5.82721 27.8358 5.77768C27.9349 5.67863 28.0834 5.6291 28.1825 5.48052C28.1825 5.43099 28.1825 5.43099 28.1825 5.38147C28.3311 5.38147 28.4797 5.33194 28.6282 5.28241C28.6282 5.33194 28.6282 5.33194 28.6778 5.38147C28.6778 5.43099 28.7273 5.431 28.7768 5.431C28.6778 5.48052 28.5787 5.62911 28.5292 5.67863ZM29.4207 5.87674C29.4702 5.92626 29.5692 6.07484 29.5197 6.12437C29.4702 6.1739 29.4207 6.12437 29.3711 6.07484C29.3216 6.02531 29.2721 5.97579 29.2226 5.92627C29.1235 5.82721 29.074 5.67863 29.0244 5.53005H29.074C29.1235 5.57958 29.173 5.62911 29.2721 5.67863C29.3216 5.72816 29.3711 5.77768 29.4207 5.87674ZM29.4702 4.78715C29.4702 4.93573 29.4207 5.03478 29.3711 5.13383C29.3216 5.18336 29.2721 5.23289 29.173 5.28241C29.074 5.23289 29.0245 5.18336 28.9254 5.0843C28.8759 5.0843 28.8759 5.0843 28.8263 5.0843C28.8759 5.03478 28.8759 4.98525 28.9254 4.93573C28.9749 4.78715 28.9749 4.63856 28.8759 4.48998C28.9254 4.44045 29.0245 4.44046 29.074 4.39093C29.1235 4.48998 29.2226 4.53951 29.3216 4.53951C29.3216 4.53951 29.3216 4.53951 29.3711 4.53951C29.3711 4.53951 29.4207 4.58904 29.3711 4.53951C29.3711 4.53951 29.4207 4.58904 29.3711 4.53951C29.3711 4.53951 29.3711 4.58903 29.4207 4.58903C29.4702 4.68809 29.4702 4.73762 29.4702 4.78715ZM29.7674 4.14329C29.7178 4.24235 29.6188 4.29187 29.5197 4.3414C29.4207 4.3414 29.3216 4.29187 29.2721 4.24235C29.2721 4.24235 29.2721 4.24235 29.2226 4.24235C29.2721 4.19282 29.2721 4.09377 29.2721 3.99471C29.2721 3.84613 29.2226 3.69755 29.1235 3.54897C29.2226 3.49944 29.3216 3.40039 29.4207 3.25181C29.4207 3.25181 29.4207 3.25181 29.4207 3.30134C29.4702 3.35086 29.5197 3.40039 29.6188 3.40039V3.44992C29.8169 3.5985 29.9159 3.89566 29.7674 4.14329ZM30.0645 2.95465C30.0645 3.00418 30.0645 3.00418 30.0645 2.95465C30.0645 3.00418 30.0645 3.00417 30.0645 3.00417C30.0645 3.00417 30.0645 3.00418 30.0645 3.0537C30.0645 3.0537 30.0645 3.0537 30.0645 3.10322C30.0645 3.10322 30.0645 3.10323 30.015 3.15275C30.015 3.15275 30.015 3.15275 29.9655 3.15275C29.9655 3.15275 29.9655 3.15275 29.9159 3.15275C29.9159 3.15275 29.9159 3.15275 29.8664 3.15275C29.9159 3.15275 29.8664 3.15275 29.8664 3.15275C29.8664 3.15275 29.8664 3.15275 29.8169 3.15275C29.8169 3.15275 29.8169 3.15275 29.7674 3.15275C29.7674 3.15275 29.7674 3.15275 29.7178 3.15275C29.7178 3.15275 29.7178 3.15275 29.6683 3.15275C29.6188 3.10323 29.5692 3.10323 29.5197 3.15275C29.5197 3.10323 29.5197 3.0537 29.5197 3.00417C29.5197 2.80606 29.4207 2.65749 29.2721 2.55843C29.3216 2.50891 29.3216 2.45938 29.3216 2.45938C29.3711 2.50891 29.4207 2.55843 29.4702 2.60795C29.5197 2.65748 29.5693 2.65749 29.6683 2.65749C29.6683 2.65749 29.7178 2.70701 29.7674 2.70701H29.8169C29.8664 2.70701 29.8664 2.70701 29.9159 2.70701C29.9159 2.70701 29.9159 2.70701 29.9655 2.70701C29.9655 2.70701 29.9655 2.70701 30.015 2.70701L30.0645 2.75654V2.80607C30.0645 2.80607 30.0645 2.80606 30.0645 2.85559V2.90512C30.0645 2.90512 30.0645 2.90512 30.0645 2.95465Z" fill="#EBE5E4"/>
<path d="M72.8565 1.56787C72.7574 1.27071 72.5593 0.973547 72.3117 0.725913C72.064 0.478278 71.7173 0.230637 71.2716 0.131583C70.8754 0.0325293 70.4296 0.0325339 70.083 0.0820608C69.6867 0.131588 69.34 0.230637 69.0429 0.379218C68.7457 0.527799 68.4486 0.67638 68.1514 0.874487C67.9038 1.0726 67.6561 1.32023 67.458 1.56787C67.0618 2.06314 66.8637 2.60793 66.8142 3.15273C66.7647 3.648 66.8637 4.14327 67.0618 4.63854C67.1609 4.88617 67.3094 5.08428 67.458 5.33191C67.6066 5.53002 67.8047 5.77766 68.0028 5.92624C67.8542 6.0253 67.7057 6.07482 67.5571 6.17388C67.4085 6.2234 67.2599 6.32245 67.0618 6.32245C67.0123 6.32245 67.0123 6.32245 66.9628 6.32245C66.9132 6.32245 66.8637 6.32245 66.8142 6.37198H66.7646H66.7151C66.6656 6.37198 66.5665 6.37198 66.517 6.37198C65.8732 6.27293 65.1798 6.17388 64.5359 6.17388C64.3874 6.17388 64.1892 6.17388 64.0407 6.17388H63.5454C63.1987 6.17388 62.9016 6.17387 62.5549 6.2234H62.5053C63.1987 5.72813 63.7435 5.13381 64.1397 4.3909C64.1893 4.29185 63.9911 4.1928 63.8921 4.29185C63.793 4.3909 63.6445 4.48995 63.5454 4.58901C63.4463 4.68806 63.2978 4.78712 63.1987 4.88617C63.0997 4.98523 62.9511 5.08428 62.852 5.18334C62.753 5.28239 62.6044 5.38144 62.5053 5.48049C62.0596 5.82718 61.6634 6.17387 61.1186 6.37198C59.2861 6.61962 57.5031 7.16441 55.6706 7.70921C55.9183 7.56063 56.1164 7.41205 56.3145 7.26347C56.463 7.11489 56.6116 7.01583 56.8097 6.86725C56.8097 6.91678 56.8097 6.9663 56.8593 6.9663C57.4536 7.16441 58.0974 7.01583 58.6422 6.7682C58.8899 6.66914 59.187 6.52056 59.4347 6.32245C59.5337 6.2234 59.6823 6.17387 59.7814 6.07482C59.8804 5.97576 59.9795 5.87671 60.128 5.77766C60.3262 5.57955 60.5243 5.38145 60.6728 5.18334C60.8214 4.98523 60.97 4.73759 61.1186 4.48996C61.3662 4.04421 61.5148 3.49942 61.4653 3.05368C61.4157 2.55841 61.1681 2.06314 60.6233 1.76597C60.3757 1.61739 60.0785 1.56787 59.7814 1.51834C59.4842 1.46881 59.187 1.51834 58.8403 1.56787C58.1965 1.71645 57.6517 2.01361 57.206 2.3603C57.0079 2.5584 56.8097 2.75652 56.6612 2.95463C56.5126 3.15273 56.364 3.40036 56.2649 3.648C55.8687 4.68807 56.0668 5.77766 56.6612 6.61962C56.1164 7.11489 55.522 7.56063 54.8287 7.90732C54.7791 7.90732 54.7791 7.95684 54.7791 7.95684L53.8381 8.25401C53.9867 8.10543 54.1353 7.90732 54.2343 7.70921C54.3334 7.46157 54.2839 7.11488 54.0858 6.9663C53.9372 6.86725 53.7886 6.86725 53.64 6.91678C53.5905 6.91678 53.541 6.91678 53.4914 6.9663C53.3924 7.01583 53.2933 7.06536 53.1943 7.16442C52.7981 7.56063 52.7981 8.15495 52.9962 8.55116C52.1542 8.84833 51.3123 9.14549 50.4703 9.39313C50.6189 9.29407 50.7179 9.19501 50.817 9.04643C51.0151 8.7988 51.2132 8.45211 51.0646 8.20448C50.8665 7.95684 50.4208 8.0559 50.2227 8.25401C49.975 8.45212 49.7274 8.69975 49.5788 8.99691C49.4302 9.24455 49.3312 9.49218 49.3312 9.78934C49.1331 9.83886 48.935 9.88839 48.7369 9.93792C48.5387 9.98745 48.3406 10.037 48.1425 10.0865C47.7958 10.1856 47.3996 10.2846 47.0034 10.3837C47.3501 9.98745 47.6473 9.54171 47.9444 9.09596C48.2416 8.65022 48.4397 8.15495 48.6378 7.65969C48.6378 7.65969 48.6378 7.65969 48.6873 7.65969C49.2816 7.70921 49.6283 7.21394 49.876 6.7682C50.1731 6.2234 50.3712 5.62908 50.4703 5.03476C50.6684 3.94516 50.6189 2.80604 50.2722 1.76597C50.1236 1.32023 49.876 0.87449 49.4798 0.676383C49.2321 0.527802 48.9845 0.478276 48.7369 0.57733C48.4892 0.676384 48.3406 0.824962 48.1921 1.02307C47.8454 1.46881 47.7463 2.01361 47.6473 2.55841C47.5482 3.1032 47.5482 3.69752 47.5482 4.24232C47.5977 5.38144 47.9444 6.47104 48.4892 7.5111C48.093 8.6007 47.4491 9.64076 46.6567 10.4827C46.2605 10.5818 45.8148 10.6313 45.4185 10.7304C45.5671 10.6313 45.7652 10.5322 45.8643 10.4332C46.0129 10.2846 46.1615 10.1856 46.2605 10.037C46.3596 9.88839 46.4586 9.73981 46.4586 9.5417C46.4586 9.39312 46.31 9.24455 46.1119 9.24455C45.9138 9.24455 45.7157 9.29407 45.5671 9.39313C44.8738 9.69029 44.2794 10.2351 43.9823 10.8294C43.9823 10.8789 43.9823 10.9285 44.0318 10.9285C43.7842 10.978 43.5861 10.978 43.3384 10.978C43.3384 10.978 43.3384 10.978 43.2889 10.978C43.3384 10.9285 43.3879 10.8789 43.4375 10.8294V10.7799C44.9728 9.39312 45.0719 7.16441 44.7747 5.23286C44.7747 5.08428 44.5271 5.08428 44.5766 5.23286C44.8738 7.11488 44.7747 9.29407 43.2889 10.6313L43.2394 10.6808C43.1898 10.7304 43.1898 10.7303 43.1403 10.7799L43.0908 10.8294C43.0908 10.8294 43.0908 10.8294 43.0413 10.8294C42.9917 10.8789 42.8927 10.9285 42.7936 10.978C42.4469 10.978 42.0507 11.0275 41.704 11.0275C40.9611 11.0275 40.2182 10.978 39.4753 10.9285C39.7725 10.8789 40.0201 10.7799 40.3173 10.6808C40.5649 10.5818 40.763 10.4332 40.9611 10.2846C41.1097 10.136 41.3078 9.98745 41.2088 9.73981C41.1097 9.49218 40.9116 9.44265 40.664 9.39313C40.4163 9.39313 40.1192 9.44265 39.9211 9.44265C39.4258 9.5417 38.98 9.73981 38.5838 10.037C38.3857 10.1856 38.1876 10.3341 37.9895 10.4827C37.94 10.5322 37.94 10.5322 37.94 10.5818L37.6923 10.6313C37.6923 10.6313 37.6428 10.6313 37.6428 10.6808C37.5933 10.6808 37.5933 10.6808 37.5438 10.6808H37.4942C37.2961 10.6313 37.098 10.6313 36.9494 10.5818C36.999 10.2846 37.098 10.037 37.2466 9.73981C37.3457 9.83887 37.4942 9.93792 37.6923 9.93792C38.039 9.98745 38.3857 9.83887 38.6829 9.69028C39.2772 9.39312 39.822 8.84833 40.1192 8.30353C40.2677 8.00637 40.3668 7.70921 40.3668 7.36252C40.3668 7.26347 40.3668 7.11489 40.2182 7.01583C40.0696 6.91678 39.8715 7.01583 39.6734 7.01583C38.98 7.11489 38.2371 7.21394 37.6428 7.65969C37.098 8.0559 36.7513 8.84833 37.0485 9.49218C37.0485 9.49218 37.0485 9.5417 37.098 9.5417C37.0485 9.69028 36.9494 9.78934 36.8999 9.93792C36.8504 9.49218 36.7018 9.09596 36.4542 8.74928C36.1075 8.25401 35.5627 7.90731 34.9684 7.80826C34.6712 7.75873 34.374 7.80827 34.0769 7.90732C33.8788 8.00637 33.4825 8.25401 33.4825 8.50164C33.4825 8.65022 33.6311 8.69975 33.7302 8.7988C33.8788 8.89785 34.0274 8.99691 34.1759 9.09596C34.4731 9.29407 34.7703 9.44265 35.0674 9.64076C35.216 9.73982 35.3646 9.88839 35.4636 10.037C35.5627 10.1856 35.6617 10.3341 35.8103 10.4827C35.8598 10.5322 35.8599 10.5322 35.9094 10.5818C35.8103 10.5818 35.6617 10.6313 35.5627 10.6313C35.5627 10.6313 35.5627 10.6313 35.5132 10.6313C35.4636 10.6313 35.4636 10.6313 35.4141 10.6313C35.4141 10.6313 35.3646 10.6313 35.3646 10.5818L35.1169 10.5322C35.1169 10.4827 35.1169 10.4827 35.0674 10.4332C34.9188 10.2846 34.7207 10.136 34.4731 9.98745C34.0769 9.73981 33.6311 9.49218 33.1359 9.39313C32.9378 9.3436 32.6406 9.29407 32.393 9.3436C32.1453 9.3436 31.9472 9.44265 31.8482 9.69028C31.7491 9.88839 31.9472 10.0865 32.0958 10.2351C32.2939 10.3837 32.492 10.5322 32.7396 10.6313C32.9873 10.7799 33.2844 10.8294 33.5816 10.8789C32.8387 10.9285 32.0958 10.978 31.3529 10.978C31.0062 10.978 30.61 10.978 30.2633 10.9285C30.1642 10.8789 30.1147 10.8294 30.0157 10.7799C30.0157 10.7799 30.0157 10.7799 29.9661 10.7799L29.9166 10.7304C29.8671 10.6808 29.8671 10.6808 29.8176 10.6313C29.8176 10.6313 29.8176 10.5818 29.768 10.5818C28.2822 9.19502 28.1832 7.06536 28.4803 5.18334C28.4803 5.03476 28.2822 5.03476 28.2822 5.18334C27.9851 7.11489 28.0841 9.3436 29.6195 10.7304V10.7799C29.669 10.8294 29.7185 10.8789 29.768 10.9285C29.768 10.9285 29.768 10.9285 29.7185 10.9285C29.4709 10.9285 29.2728 10.8789 29.0251 10.8789C29.0746 10.8294 29.0747 10.8294 29.0747 10.7799C28.7775 10.1856 28.1832 9.64076 27.4898 9.3436C27.3412 9.29407 27.1431 9.19502 26.945 9.19502C26.7469 9.19502 26.6478 9.3436 26.5983 9.49218C26.5983 9.64076 26.6974 9.83887 26.7964 9.98745C26.8955 10.136 27.0441 10.2846 27.1926 10.3837C27.3412 10.4827 27.4898 10.5818 27.6384 10.6808C27.2422 10.6313 26.7964 10.5322 26.4002 10.4332C25.6078 9.5417 25.0134 8.55117 24.5677 7.46157C25.1125 6.47103 25.4097 5.33192 25.5087 4.1928C25.5583 3.648 25.5087 3.05367 25.4097 2.50888C25.3106 1.96408 25.2116 1.41929 24.8649 0.973547C24.7163 0.77544 24.5182 0.626854 24.3201 0.5278C24.0724 0.428746 23.7753 0.478272 23.5772 0.626853C23.1809 0.874487 22.9333 1.32024 22.7847 1.71645C22.4381 2.75652 22.3885 3.89563 22.5866 4.98523C22.6857 5.57955 22.8838 6.17387 23.181 6.71867C23.4286 7.16441 23.7753 7.70921 24.3696 7.61016C24.3696 7.61016 24.3696 7.61016 24.4191 7.61016C24.6172 8.10542 24.8649 8.60069 25.1125 9.04643C25.3601 9.49218 25.7068 9.93792 26.0535 10.3341C25.6573 10.2351 25.3106 10.136 24.9144 10.037C24.7163 9.98744 24.5182 9.93792 24.3201 9.8884C24.122 9.83887 23.9239 9.78934 23.7257 9.73981C23.7257 9.49218 23.6267 9.19502 23.4781 8.94738C23.3295 8.69975 23.0819 8.40259 22.8343 8.20448C22.5866 8.00637 22.1409 7.90732 21.9923 8.15495C21.8437 8.40259 22.0418 8.74928 22.2399 8.99691C22.339 9.14549 22.438 9.24454 22.5866 9.3436C21.7447 9.09596 20.9027 8.7988 20.0608 8.50164C20.2589 8.0559 20.2589 7.5111 19.8626 7.11489C19.7636 7.06536 19.7141 6.96631 19.5655 6.91678C19.516 6.86725 19.4664 6.86725 19.4169 6.86725C19.2683 6.81772 19.1197 6.81773 18.9712 6.91678C18.7235 7.11489 18.7235 7.41205 18.8226 7.65969C18.8721 7.85779 19.0207 8.0559 19.2188 8.20448L18.2778 7.90732C18.2778 7.85779 18.2778 7.85779 18.2283 7.85779C17.5349 7.5111 16.9406 7.06536 16.3958 6.57009C16.9901 5.72813 17.2377 4.63854 16.792 3.59847C16.6929 3.35083 16.5939 3.15273 16.3958 2.9051C16.2472 2.70699 16.0491 2.45935 15.851 2.31077C15.4052 1.91456 14.8604 1.61739 14.2166 1.51834C13.9194 1.46881 13.6223 1.41929 13.2756 1.46882C12.9784 1.51834 12.6812 1.56787 12.4336 1.71645C11.8888 2.01361 11.6412 2.50888 11.5917 3.00415C11.5421 3.49942 11.6907 3.99469 11.9383 4.44043C12.0869 4.68807 12.186 4.88617 12.3841 5.13381C12.5327 5.33192 12.7308 5.53002 12.9289 5.72813C13.0279 5.82718 13.127 5.92624 13.2756 6.02529C13.3746 6.12435 13.5232 6.2234 13.6223 6.27293C13.8699 6.42151 14.1175 6.57009 14.4147 6.71867C14.9595 6.9663 15.6033 7.11489 16.1977 6.91678C16.2472 6.91678 16.2472 6.86725 16.2472 6.81772C16.3958 6.9663 16.5443 7.06536 16.7424 7.21394C16.9406 7.36252 17.1882 7.5111 17.3863 7.65969C15.5538 7.06536 13.7708 6.57009 11.9383 6.32245C11.3935 6.17387 10.9478 5.77766 10.5516 5.43097C10.4525 5.33192 10.3039 5.23286 10.2049 5.13381C10.1058 5.03475 9.95726 4.9357 9.85821 4.83664C9.75916 4.73759 9.61057 4.63854 9.51152 4.53949C9.41246 4.44043 9.26389 4.34138 9.16484 4.24232C9.06578 4.14327 8.86767 4.24232 8.9172 4.34137C9.26389 5.08428 9.85821 5.67861 10.5516 6.17388H10.5021C10.1554 6.12435 9.8582 6.12435 9.51152 6.12435H9.01625C8.86767 6.12435 8.66956 6.12435 8.52098 6.12435C7.87713 6.17387 7.18375 6.2234 6.5399 6.32245C6.49037 6.32245 6.39132 6.32245 6.34179 6.32245H6.29226H6.24273C6.19321 6.32245 6.14369 6.32246 6.09416 6.27293C6.04463 6.27293 6.04463 6.27293 5.9951 6.27293C5.79699 6.2234 5.64841 6.17387 5.49983 6.12435C5.35125 6.07482 5.20267 5.97577 5.05409 5.87671C5.2522 5.6786 5.45031 5.4805 5.59889 5.28239C5.74747 5.08428 5.89605 4.83664 5.9951 4.58901C6.19321 4.09374 6.29226 3.59847 6.24273 3.1032C6.19321 2.5584 5.99511 1.96408 5.59889 1.51834C5.40078 1.2707 5.20268 1.0726 4.90552 0.824965C4.65788 0.626857 4.36071 0.428749 4.01402 0.329696C3.71686 0.181115 3.37018 0.0820578 2.97397 0.0325309C2.57775 -0.0169961 2.18153 -0.0169931 1.78531 0.0820608C1.33957 0.181115 1.04242 0.428748 0.745257 0.676383C0.497622 0.924017 0.299512 1.22118 0.200458 1.51834C-0.047177 2.11266 -0.047183 2.60793 0.101398 3.1032C0.249979 3.59847 0.596676 3.99469 0.992892 4.29185C1.24053 4.48996 1.48815 4.63854 1.78531 4.78712C2.08247 4.9357 2.37964 5.08428 2.6768 5.18334C3.27113 5.43097 3.91497 5.62908 4.50929 5.77766C4.85598 6.07482 5.2522 6.27293 5.74747 6.42151C5.05409 6.57009 4.41025 6.7682 3.71687 6.9663C3.71687 6.91678 3.66734 6.91678 3.61781 6.86725C3.61781 6.81772 3.61781 6.81773 3.56828 6.7682C3.46923 6.71867 3.37018 6.66914 3.2216 6.61962C3.12255 6.57009 2.97396 6.57009 2.87491 6.57009C2.62727 6.57009 2.37964 6.61961 2.132 6.71867C1.63674 6.86725 1.04241 7.16441 0.893832 7.70921C0.745251 8.20448 1.04242 8.6007 1.48816 8.74928C1.98343 8.89786 2.47869 8.65022 2.87491 8.35306C3.07302 8.20448 3.27113 7.95685 3.41971 7.75874C3.46924 7.65968 3.51876 7.56063 3.56828 7.46157C3.61781 7.36252 3.66734 7.26347 3.66734 7.16442C4.45977 6.86725 5.2522 6.66914 6.04463 6.52056C5.89605 6.61962 5.74747 6.7682 5.64842 6.91678C5.10362 6.81773 4.55882 7.21394 4.31119 7.65969C4.01403 8.15495 4.01402 8.74928 4.26166 9.24455C4.36071 9.44265 4.55882 9.69029 4.80646 9.73981C4.85598 9.73981 4.95503 9.78934 5.00456 9.78934C5.05409 9.78934 5.15315 9.78934 5.20268 9.78934C5.35126 9.73981 5.45031 9.69029 5.54936 9.59123C5.64841 9.49218 5.74747 9.39312 5.84653 9.29407C5.94558 9.19501 5.9951 9.04644 6.04463 8.94738C6.14368 8.69975 6.19322 8.40259 6.19322 8.10542C6.19322 7.90732 6.14369 7.75873 6.09416 7.56063C6.09416 7.46157 6.04463 7.41204 5.9951 7.31299C5.94557 7.21394 5.89606 7.11489 5.94559 7.01583C6.19322 6.71867 6.58942 6.52056 6.98564 6.47103C6.83706 6.61961 6.73801 6.81773 6.63896 7.01583C6.58943 7.21394 6.58943 7.46158 6.58943 7.65969C6.58943 7.75874 6.73801 7.80826 6.78753 7.70921C7.0847 7.16441 7.48092 6.61962 8.12477 6.37198C8.17429 6.37198 8.22381 6.32246 8.22381 6.27293C8.76861 6.2234 9.36294 6.27293 9.90774 6.27293C10.4525 6.32246 11.0469 6.37198 11.5917 6.42151H11.6412C11.6907 6.42151 11.6907 6.42151 11.7402 6.42151L12.2355 6.52056C11.7402 6.71867 11.245 6.96631 10.8487 7.26347C10.7992 7.26347 10.7992 7.21394 10.7497 7.26347C10.7497 7.26347 10.7497 7.26346 10.7497 7.21394C10.6506 7.06536 10.5021 6.91678 10.3535 6.86725C10.2049 6.81772 10.0068 6.7682 9.80868 6.7682C9.61057 6.81773 9.41246 6.86725 9.21435 7.01583C9.01624 7.11489 8.86766 7.26347 8.71908 7.41205C8.5705 7.56063 8.47146 7.75873 8.3724 7.95684C8.27335 8.15495 8.1743 8.35306 8.1743 8.55116C8.07524 8.94738 8.12476 9.39312 8.27334 9.78934C8.32287 9.98744 8.42193 10.136 8.57051 10.2846C8.66956 10.4332 8.81814 10.5818 8.96672 10.6808C9.1153 10.7799 9.26389 10.8789 9.41247 10.9285C9.56105 10.978 9.70963 10.978 9.85821 10.9285C10.0068 10.8789 10.1554 10.8294 10.3039 10.7304C10.4525 10.6313 10.6011 10.5322 10.7002 10.4332C10.9478 10.1856 11.1954 9.88839 11.344 9.5417C11.4926 9.19501 11.5916 8.7988 11.5421 8.40259C11.4926 8.00637 11.344 7.65968 11.0964 7.36252C11.2945 7.21394 11.5421 7.06536 11.7898 6.91678C12.0374 6.81773 12.285 6.66914 12.5327 6.57009C12.5822 6.57009 12.5822 6.52056 12.5822 6.47103C13.226 6.57009 13.8699 6.7682 14.5633 6.91678C15.2071 7.11489 15.851 7.26347 16.5443 7.5111C17.3368 7.75874 18.1787 8.05589 18.9712 8.30353C18.7731 8.30353 18.5749 8.35306 18.3768 8.45211C18.1292 8.60069 17.9806 8.89785 18.1292 9.19502C18.4759 9.78934 19.5655 9.69028 19.8626 9.19502C19.9617 8.99691 19.9617 8.7988 19.8626 8.60069C21.398 9.14549 22.9828 9.64076 24.5677 10.0865C24.4191 10.0865 24.221 10.0865 24.0724 10.136C23.7753 10.1856 23.28 10.2846 23.2305 10.5818C23.181 10.8789 23.5276 11.1266 23.8743 11.1761C24.221 11.2256 24.5677 11.1266 24.8649 10.978C25.162 10.8294 25.4097 10.6313 25.5582 10.3341C25.7068 10.3837 25.9049 10.4332 26.0535 10.4332C26.0535 10.4332 26.0535 10.4332 26.103 10.4827C26.1526 10.5322 26.2021 10.5322 26.2516 10.4827C26.7964 10.5818 27.3412 10.6808 27.886 10.7799C28.1832 10.8294 28.4803 10.8789 28.7775 10.8789C27.8365 11.1266 26.9945 11.5228 26.2516 12.0676C26.2516 12.0181 26.2021 11.9685 26.1526 11.9685C26.1526 11.919 26.103 11.8695 26.0535 11.8695C25.4592 11.6714 24.8649 11.919 24.3201 12.1666C23.8248 12.4143 23.4286 12.7114 23.0324 13.1076C22.2895 13.8506 21.6951 14.7916 21.4475 15.7821C21.2989 16.3269 21.1999 16.9212 21.3484 17.466C21.398 17.7136 21.497 17.9613 21.7447 18.0603C21.9923 18.1099 22.339 17.9118 22.5866 17.8127C23.5276 17.2679 24.3696 16.4259 24.9639 15.4849C25.6078 14.5439 26.0535 13.4543 26.2021 12.3152C26.5983 12.0181 27.044 11.7704 27.5393 11.5228C28.1832 11.2256 28.827 11.0275 29.5204 10.8789C29.768 10.8789 30.0157 10.9285 30.2138 10.9285C29.9661 10.978 29.768 11.077 29.5699 11.1761C29.3718 11.2751 29.1737 11.3742 29.1242 11.5723C29.0747 11.7209 29.1242 11.919 29.2728 12.0181C29.4213 12.1666 29.669 12.2657 29.8671 12.2657C30.1147 12.3152 30.3624 12.2657 30.5605 12.2162C31.0062 12.1171 31.3529 11.8199 31.551 11.4733C31.6501 11.3247 31.6996 11.077 31.6005 10.9285H31.7491C33.0863 10.8789 34.374 10.7799 35.6122 10.5322C34.2255 10.978 33.0368 11.919 32.3434 13.2067C32.1453 13.5039 32.0463 13.8506 31.8977 14.1972C31.7986 13.9001 31.6005 13.6524 31.3034 13.5039C31.2043 13.4543 31.1053 13.5534 31.1548 13.6524C31.1548 13.702 31.1548 13.702 31.2043 13.7515C31.3529 13.9496 31.5015 14.1972 31.6005 14.3953C31.4519 14.3458 31.2538 14.3458 31.0557 14.3953C30.8576 14.2468 30.7091 14.1477 30.4614 14.1972C30.2633 14.1972 30.0652 14.3458 29.9166 14.4944C29.768 14.643 29.7185 14.8906 29.7185 15.0887C29.7185 15.1878 29.7185 15.3364 29.768 15.4354C29.8176 15.4849 29.8671 15.5345 29.9166 15.584C29.669 15.9307 29.5699 16.4259 29.9166 16.7231C29.9661 16.7726 30.0652 16.8222 30.1147 16.8222C30.1147 16.8222 30.0652 16.8222 30.0652 16.8717C29.8176 17.1689 29.8176 17.6146 30.0652 17.9118C30.1642 18.0108 30.2138 18.0603 30.3624 18.1099C30.3128 18.2584 30.2633 18.407 30.2633 18.6051C30.2633 18.7537 30.3624 18.9023 30.5109 19.0014C30.6595 19.1004 30.8576 19.1499 31.0557 19.1499C30.9071 19.4966 31.0557 19.8928 31.4024 19.9919C31.6005 20.0414 31.7986 20.0414 31.9967 19.9919C32.1948 19.9424 32.3434 19.8433 32.4425 19.6947C32.5415 19.4966 32.5415 19.348 32.492 19.1499C32.5415 19.1499 32.5911 19.1004 32.6406 19.1004C32.8882 18.9518 32.9873 18.6547 32.9873 18.3575C33.0863 18.308 33.2349 18.2584 33.2844 18.1594C33.4826 17.9613 33.5816 17.6641 33.433 17.4165C33.433 17.367 33.3835 17.367 33.3835 17.3174C33.6807 17.1193 33.8788 16.7231 33.7797 16.3269C33.7302 16.1783 33.6807 16.0793 33.5816 15.9802C33.7797 15.9307 33.9283 15.8316 34.0273 15.6335C34.1264 15.3859 34.1264 15.1382 34.0273 14.8906C33.9283 14.6925 33.7302 14.4944 33.4825 14.4449C33.2349 14.3953 32.9378 14.5439 32.7892 14.742C32.7396 14.6925 32.7397 14.6925 32.6901 14.643C32.6406 14.5935 32.5415 14.5439 32.4425 14.5439C32.7397 14.3953 32.9873 14.2468 33.2844 14.0982C33.433 14.0487 33.334 13.8505 33.1854 13.9001C32.9378 13.9991 32.7396 14.0982 32.5415 14.1972C32.5415 14.1477 32.5911 14.0982 32.5911 14.0982C32.6406 13.9991 32.7892 13.801 32.6901 13.702C32.6406 13.6524 32.5911 13.6524 32.5415 13.702C32.4425 13.801 32.3434 13.9001 32.2444 13.9991C32.8387 12.6619 33.8788 11.6218 35.216 11.0275C35.5627 10.8789 35.9589 10.7799 36.3551 10.6808C36.4542 11.5228 36.9494 12.2162 37.5933 12.7114C37.5933 13.7515 38.6829 14.3953 39.5248 14.7916C40.4163 15.1878 41.4069 15.2373 42.3479 14.8906C42.8432 14.6925 43.2889 14.3953 43.6356 13.9991C43.6851 13.9496 43.6851 13.9001 43.6356 13.8506C43.6851 13.801 43.6356 13.702 43.5365 13.702C43.487 13.702 43.3879 13.702 43.3384 13.702C42.546 13.3058 41.8031 12.86 41.0106 12.4638C40.2677 12.0676 39.4258 11.7209 38.5343 11.8199C38.1381 11.8695 37.7419 12.0181 37.5933 12.3647C37.5933 12.4143 37.5933 12.4143 37.5933 12.4638C37.4447 12.3647 37.2961 12.2162 37.1971 12.0676C36.8504 11.6714 36.6523 11.1761 36.6028 10.6808H36.6523C36.7018 10.6808 36.7018 10.6313 36.7018 10.6313C37.9895 10.8294 39.2772 10.978 40.6144 11.0275H40.763C40.664 11.1761 40.7135 11.4237 40.8125 11.5723C41.0107 11.919 41.3078 12.2162 41.8031 12.3152C42.0012 12.3647 42.2488 12.3647 42.4965 12.3647C42.7441 12.3152 42.9422 12.2657 43.0908 12.1171C43.2394 11.9685 43.2889 11.8199 43.2394 11.6714C43.1403 11.5228 42.9422 11.3742 42.7936 11.2751C42.5955 11.1761 42.3479 11.077 42.1498 11.0275C42.3974 11.0275 42.645 10.978 42.8432 10.978C43.5365 11.077 44.1804 11.3247 44.8242 11.6218C45.3195 11.8695 45.7652 12.1171 46.1614 12.4143C46.3596 13.5534 46.7558 14.643 47.3996 15.584C47.9939 16.4755 48.8359 17.3174 49.7769 17.9118C49.975 18.0603 50.3217 18.2584 50.6189 18.1594C50.8665 18.1099 50.9656 17.8127 51.0151 17.5651C51.1637 17.0203 51.0151 16.4259 50.916 15.8812C50.6189 14.8411 50.0741 13.9496 49.3312 13.2067C48.935 12.86 48.4892 12.5133 48.0435 12.2657C47.4987 11.9685 46.9044 11.7704 46.31 11.9685C46.2605 11.9685 46.2605 12.0181 46.211 12.0676C46.1614 12.0676 46.1119 12.0676 46.1119 12.1666C45.3195 11.6218 44.4775 11.2256 43.5861 10.978C43.8832 10.9285 44.1804 10.9285 44.4775 10.8789C45.0223 10.7799 45.5671 10.6808 46.1119 10.5818C46.1614 10.6313 46.211 10.6313 46.2605 10.5818C46.2605 10.5818 46.2605 10.5818 46.31 10.5322C46.4586 10.4827 46.6567 10.4827 46.8053 10.4332C46.9539 10.6808 47.2015 10.9285 47.4987 11.077C47.7958 11.2256 48.1425 11.3247 48.4892 11.2751C48.8359 11.2256 49.1826 10.978 49.1331 10.6808C49.0835 10.3837 48.5883 10.2846 48.2911 10.2351C48.1425 10.1856 47.994 10.1856 47.7958 10.1856C49.4302 9.73981 50.9656 9.24454 52.5009 8.69975C52.4018 8.89785 52.4018 9.09596 52.5009 9.29407C52.7981 9.78934 53.8877 9.83886 54.2343 9.29407C54.3829 8.99691 54.2839 8.69975 53.9867 8.55116C53.8381 8.45211 53.5905 8.40259 53.3924 8.40259C54.1848 8.10543 55.0268 7.85779 55.8192 7.61016C56.463 7.41205 57.1564 7.21394 57.8003 7.01583C58.4441 6.81773 59.088 6.66914 59.7814 6.57009C59.7814 6.61961 59.8309 6.61962 59.8309 6.66915C60.0785 6.7682 60.3262 6.91678 60.5738 7.01583C60.8214 7.16441 61.0691 7.26346 61.2672 7.46157C61.0195 7.75873 60.8709 8.10543 60.8214 8.50164C60.7719 8.89786 60.8214 9.29407 61.0195 9.64076C61.1681 9.98745 61.4158 10.2846 61.6634 10.5322C61.812 10.6808 61.911 10.7799 62.0596 10.8294C62.2082 10.9285 62.3568 10.978 62.5053 11.0275C62.6539 11.077 62.8025 11.077 62.9511 11.0275C63.0997 10.978 63.2482 10.8789 63.3968 10.7799C63.5454 10.6808 63.6445 10.5322 63.793 10.3837C63.8921 10.2351 63.9911 10.037 64.0902 9.8884C64.2388 9.49218 64.2883 9.04644 64.1892 8.65022C64.1397 8.45212 64.0902 8.254 63.9911 8.05589C63.8921 7.85779 63.7435 7.70921 63.6445 7.5111C63.4959 7.36252 63.3473 7.21394 63.1492 7.11489C62.9511 7.01583 62.753 6.91678 62.5549 6.86725C62.3568 6.86725 62.2082 6.86725 62.0101 6.9663C61.8615 7.01583 61.7129 7.16441 61.6139 7.31299C61.6139 7.31299 61.6139 7.31299 61.6139 7.36252C61.5643 7.36252 61.5643 7.36252 61.5148 7.36252C61.1186 7.06536 60.6233 6.81772 60.128 6.61962L60.6233 6.52056C60.6233 6.52056 60.6728 6.52056 60.7224 6.52056H60.7719C61.3167 6.42151 61.911 6.37198 62.4558 6.37198C63.0006 6.32245 63.5949 6.32245 64.1397 6.37198C64.1397 6.42151 64.1397 6.47103 64.2388 6.47103C64.8826 6.71867 65.2788 7.31299 65.576 7.80826C65.6255 7.90731 65.7741 7.85779 65.7741 7.75874C65.8236 7.56063 65.8236 7.31299 65.7246 7.11489C65.6751 6.91678 65.5265 6.71867 65.3779 6.57009C65.7741 6.61961 66.1703 6.7682 66.418 7.11489C66.517 7.21394 66.418 7.313 66.3684 7.41205C66.3189 7.5111 66.3189 7.56063 66.2694 7.65969C66.2199 7.85779 66.1703 8.00637 66.1703 8.20448C66.1703 8.50164 66.2199 8.7988 66.3189 9.04643C66.3684 9.19501 66.4675 9.29407 66.517 9.39313C66.6161 9.49218 66.7151 9.59123 66.8142 9.69028C66.9132 9.78934 67.0123 9.83887 67.1609 9.8884C67.2104 9.8884 67.3094 9.93792 67.359 9.8884C67.4085 9.8884 67.5076 9.88839 67.5571 9.83887C67.8047 9.73981 68.0028 9.54171 68.1019 9.3436C68.3495 8.84833 68.3495 8.25401 68.0524 7.75874C67.8047 7.31299 67.2599 6.91678 66.7151 7.01583C66.6161 6.86725 66.4675 6.7682 66.3189 6.61962C67.1113 6.7682 67.9038 7.01583 68.6962 7.26347C68.6962 7.36252 68.7457 7.46157 68.7953 7.56063C68.8448 7.65968 68.8943 7.75874 68.9438 7.85779C69.0924 8.10542 69.2905 8.30353 69.4886 8.45211C69.8848 8.74927 70.3801 8.99691 70.8754 8.84833C71.3211 8.69975 71.6183 8.30353 71.4697 7.80826C71.3211 7.26346 70.7763 7.01583 70.2315 6.81772C69.9839 6.76819 69.7363 6.66915 69.4886 6.66915C69.34 6.66915 69.241 6.66914 69.1419 6.71867C69.0429 6.7682 68.8943 6.81772 68.7953 6.86725C68.7457 6.91678 68.7457 6.91678 68.7457 6.9663C68.6962 6.9663 68.6467 7.01583 68.6467 7.06536C68.0028 6.81772 67.3094 6.66914 66.6161 6.52056C67.1113 6.37198 67.5076 6.17387 67.8542 5.87671C68.4981 5.72813 69.0924 5.53003 69.6867 5.28239C69.9839 5.18334 70.2811 5.03475 70.5782 4.88617C70.8754 4.73759 71.123 4.58901 71.3707 4.3909C71.7669 4.04422 72.1136 3.648 72.2621 3.20226C73.1041 2.70699 73.1041 2.16219 72.8565 1.56787ZM56.7602 3.54895C56.9583 3.15273 57.305 2.75651 57.7012 2.40983C57.8993 2.26125 58.147 2.11266 58.3946 2.01361C58.6422 1.91455 58.9394 1.8155 59.2366 1.8155C59.5337 1.76598 59.8309 1.8155 60.0785 1.86503C60.3262 1.91455 60.5738 2.06314 60.7719 2.21172C61.1681 2.55841 61.2672 3.05368 61.2176 3.54895C61.1681 3.99469 60.97 4.3909 60.7224 4.83664C60.5738 5.03475 60.4747 5.23286 60.2766 5.43097C60.128 5.62908 59.9299 5.77766 59.7814 5.92624C59.5832 6.07482 59.4347 6.2234 59.2366 6.32245C59.0384 6.47103 58.8403 6.57009 58.5927 6.66915C58.147 6.86725 57.6022 7.01583 57.1564 6.86725C57.1564 6.86725 57.1564 6.81773 57.1564 6.7682C57.7508 6.2234 58.246 5.62908 58.7908 5.03476C59.0384 4.73759 59.2861 4.44043 59.5337 4.09374C59.7814 3.79658 60.029 3.44989 60.2766 3.15273C60.3757 3.00415 60.128 2.9051 60.029 3.05368C59.7318 3.49942 59.3851 3.89563 59.0384 4.34137C58.4441 5.1338 57.7507 5.92624 57.0078 6.61962C56.4135 5.62908 56.2649 4.53949 56.7602 3.54895ZM47.8454 4.09374C47.8454 3.59847 47.8454 3.05368 47.9444 2.55841C48.0435 2.06314 48.1425 1.51834 48.4397 1.12212C48.5883 0.924014 48.7864 0.77544 49.034 0.725913C49.2817 0.725913 49.5293 0.824962 49.7274 1.02307C50.0246 1.32023 50.1731 1.81551 50.3217 2.21172C50.5693 3.20226 50.5693 4.1928 50.3712 5.18334C50.2722 5.67861 50.0741 6.17387 49.876 6.61962C49.6779 6.9663 49.3807 7.5111 48.935 7.46157C49.6283 5.57955 49.7769 3.49942 49.4798 1.51834C49.4798 1.36976 49.2321 1.36976 49.2817 1.51834C49.3807 2.26124 49.4302 3.00415 49.4302 3.79658C49.3807 4.98523 49.1826 6.12435 48.8359 7.26347C48.192 6.27293 47.8949 5.18333 47.8454 4.09374ZM37.7914 8.10542C38.1876 7.70921 38.7324 7.56063 39.2772 7.46157C39.4258 7.41205 39.5744 7.41205 39.7229 7.36252C39.822 7.36252 39.8715 7.36252 39.9706 7.31299C40.0201 7.31299 40.1687 7.26346 40.2677 7.31299C40.3668 7.36252 40.3173 7.61016 40.3173 7.65969C40.3173 7.80827 40.2677 7.95684 40.2182 8.05589C40.0201 8.55116 39.6239 8.94738 39.2277 9.29407C38.98 9.49218 38.6829 9.69029 38.3857 9.73981C38.1876 9.78934 37.7419 9.83887 37.5933 9.64076C38.0886 8.84833 38.8315 8.20448 39.7229 7.90732C39.8715 7.85779 39.822 7.65968 39.6734 7.70921C38.7819 8.00637 37.9895 8.6007 37.4942 9.39313C37.2466 8.94739 37.4447 8.40259 37.7914 8.10542ZM24.2705 3.8461C24.2705 3.1032 24.3201 2.31077 24.4191 1.56787C24.4191 1.41929 24.221 1.41929 24.221 1.56787C23.9239 3.54895 24.0724 5.62908 24.7658 7.5111C24.2705 7.56063 23.9734 7.01583 23.8248 6.66915C23.5772 6.2234 23.4286 5.72813 23.3295 5.23286C23.1314 4.24232 23.1314 3.25178 23.3791 2.26124C23.4781 1.8155 23.6267 1.36976 23.9734 1.0726C24.1715 0.924019 24.3696 0.775435 24.6668 0.775435C24.9144 0.775435 25.1125 0.973544 25.2611 1.17165C25.5583 1.56787 25.7068 2.11266 25.7564 2.60793C25.8554 3.1032 25.8554 3.648 25.8554 4.14327C25.8059 5.23286 25.5087 6.32245 25.0135 7.31299C24.5182 6.2234 24.3201 5.03475 24.2705 3.8461ZM16.5939 6.57009C15.851 5.87671 15.2071 5.08428 14.5633 4.29185C14.2166 3.84611 13.9194 3.44989 13.5727 3.00415C13.4737 2.85557 13.226 3.00415 13.3251 3.1032C13.5727 3.40036 13.8204 3.74705 14.068 4.04422C14.3156 4.34138 14.5633 4.68806 14.8109 4.98523C15.3062 5.57955 15.851 6.17387 16.4453 6.71867C16.4453 6.7682 16.4453 6.76819 16.4453 6.81772C15.95 6.9663 15.4548 6.81772 15.009 6.61962C14.8109 6.52056 14.5633 6.42151 14.3652 6.27293C14.1671 6.17388 13.9689 6.02529 13.8204 5.87671C13.6223 5.72813 13.4737 5.53002 13.3251 5.38144C13.1765 5.18333 13.0279 5.03476 12.8794 4.78712C12.6317 4.3909 12.4336 3.94516 12.3841 3.49942C12.3346 3.00415 12.4336 2.55841 12.8298 2.16219C13.0279 2.01361 13.226 1.86503 13.5232 1.8155C13.7708 1.76598 14.068 1.71645 14.3652 1.76597C14.6623 1.8155 14.9595 1.86503 15.2071 1.96409C15.4547 2.06314 15.7024 2.21171 15.9005 2.3603C16.3462 2.65746 16.6434 3.05367 16.8415 3.49942C17.3368 4.58901 17.1387 5.6786 16.5939 6.57009ZM5.30173 5.77766C5.2522 5.77766 5.20268 5.77766 5.15315 5.77766C4.5093 5.23286 4.06356 4.3909 3.71687 3.648C3.66735 3.49942 3.37018 3.59847 3.41971 3.74705C3.7664 4.3909 4.11309 5.08428 4.65788 5.67861C4.45977 5.62908 4.31119 5.57955 4.11308 5.53003C3.9645 5.4805 3.76639 5.38144 3.61781 5.33191C3.07302 5.1338 2.57775 4.9357 2.132 4.63854C1.29005 4.09374 0.646191 3.30131 0.794772 2.26124C0.844299 2.01361 0.893826 1.76598 1.04241 1.46882C1.09193 1.32024 1.19099 1.22118 1.29004 1.0726C1.3891 0.973546 1.53768 0.824966 1.63674 0.725913C1.73579 0.676386 1.78532 0.626857 1.88437 0.57733C1.98342 0.527803 2.08248 0.478278 2.18154 0.478278C2.37964 0.428751 2.57774 0.379218 2.77585 0.379218C3.17206 0.379218 3.56829 0.428746 3.86545 0.5278C4.45977 0.725908 4.95504 1.0726 5.35126 1.41929C5.797 1.86503 6.09415 2.31077 6.24273 2.85557C6.39132 3.35083 6.3418 3.89563 6.19322 4.3909C6.04464 4.88617 5.74747 5.38144 5.30173 5.77766C5.35125 5.77766 5.35125 5.77766 5.30173 5.77766ZM3.56828 7.41205C3.4197 7.46158 3.27112 7.56063 3.12254 7.61016C2.97396 7.65968 3.07302 7.85779 3.2216 7.80826L3.61781 7.65969L4.01402 7.5111C3.9645 7.65968 3.91497 7.80826 3.81592 7.95684C3.71686 8.10542 3.61781 8.20448 3.51875 8.30353C3.37017 8.45211 3.17206 8.55117 3.02348 8.65022C2.82538 8.74928 2.62728 8.7988 2.42917 8.7988C2.03295 8.7988 1.73578 8.45211 1.78531 8.05589C1.83484 7.61015 2.33012 7.36252 2.72633 7.21394C2.92444 7.16441 3.17207 7.06536 3.41971 7.06536C3.66734 7.06536 3.86544 7.06536 4.06355 7.21394H4.11308V7.26347L3.56828 7.41205ZM6.58943 8.15495C6.63896 8.45212 6.58942 8.74928 6.49037 8.99691C6.39132 9.19502 6.24274 9.44265 6.04463 9.64076C5.84652 9.78934 5.59889 9.88839 5.35126 9.69028C4.95504 9.39312 4.85599 8.7988 4.95505 8.35306C5.00457 8.15495 5.15315 7.85779 5.35126 7.65969C5.45031 7.56063 5.54937 7.46158 5.69795 7.41205C5.797 7.36252 5.94558 7.31299 6.09416 7.31299C6.04463 7.36252 6.04463 7.41205 5.9951 7.46157C5.84652 7.75873 5.74747 8.15495 5.89606 8.45211C5.94558 8.60069 6.14369 8.50164 6.09416 8.40259C5.99511 8.10543 6.09415 7.80826 6.24273 7.5111C6.29226 7.46158 6.29227 7.41205 6.34179 7.36252C6.39132 7.46157 6.44084 7.56063 6.49037 7.70921C6.5399 7.85779 6.58943 8.00637 6.58943 8.15495ZM7.53044 7.5111C7.57996 7.16441 7.82761 6.81772 8.1743 6.61962C8.22382 6.61962 8.22381 6.57009 8.22381 6.52056C8.32287 6.52056 8.42192 6.52056 8.52098 6.47103C8.07523 6.71867 7.77807 7.11489 7.53044 7.5111ZM11.3935 6.32245C11.3935 6.32245 11.3935 6.27293 11.344 6.27293C11.0964 6.12435 10.8488 5.92624 10.6506 5.72813C10.4525 5.53002 10.2544 5.33191 10.0563 5.08428C10.3039 5.33191 10.6011 5.53003 10.8487 5.77766C10.9973 5.87671 11.0964 5.97576 11.245 6.07482C11.3935 6.17387 11.4926 6.27293 11.6412 6.37198L11.3935 6.32245ZM11.8888 9.44265C11.7898 9.73981 11.6412 10.037 11.4431 10.2846C11.344 10.3837 11.245 10.5322 11.1459 10.6313C11.0469 10.7304 10.8983 10.8294 10.7992 10.8789C10.5021 11.0275 10.2049 11.1266 9.95725 10.978C9.80867 10.9285 9.70963 10.8294 9.61057 10.7304C9.51152 10.6313 9.41246 10.4827 9.31341 10.3341C9.1153 10.037 9.01625 9.64076 9.01625 9.29407C9.01625 9.09596 9.06578 8.94738 9.11531 8.74928C9.16483 8.55117 9.26389 8.40259 9.36294 8.25401C9.41247 8.15495 9.46199 8.10543 9.51152 8.00637C9.56104 7.90732 9.66009 7.85779 9.70962 7.75874C9.8582 7.61016 10.0068 7.46158 10.2049 7.41205C10.5516 7.26347 11.0469 7.21394 11.245 7.61016C11.2945 7.65968 11.344 7.65969 11.3935 7.65969C11.3935 7.65969 11.3935 7.65968 11.3935 7.70921C11.344 7.75873 11.2945 7.80826 11.1954 7.85779C10.9478 8.10542 10.7497 8.40259 10.6011 8.69975C10.4525 9.04644 10.3535 9.44265 10.2544 9.83887C10.2049 9.98745 10.403 10.037 10.4525 9.8884C10.5516 9.49218 10.6011 9.14549 10.7992 8.7988C10.8487 8.65022 10.9478 8.50164 11.0469 8.35306C11.1459 8.20448 11.245 8.10542 11.3935 7.95684C11.4431 7.90732 11.4926 7.85779 11.5421 7.80826C11.9383 8.254 12.0374 8.89785 11.8888 9.44265ZM19.5655 7.95684C19.4664 7.75873 19.4169 7.5111 19.516 7.36252C19.5655 7.26347 19.6645 7.26347 19.7636 7.26347C19.8131 7.56063 19.8626 7.80826 19.9617 8.10542C20.0112 8.20448 20.0112 8.35306 20.0608 8.45211C19.8627 8.30353 19.6645 8.15495 19.5655 7.95684ZM19.1693 9.59123C19.1197 9.54171 19.0702 9.54171 19.0207 9.49218C18.8721 9.29407 18.9712 9.09596 19.1197 8.99691C19.3178 8.84833 19.5655 8.84833 19.8131 8.89786C19.5655 9.09597 19.3178 9.29407 19.1693 9.5417C19.1693 9.5417 19.1693 9.54171 19.1693 9.59123ZM20.2589 9.3436C20.1598 9.54171 19.9617 9.64076 19.7636 9.69028C19.615 9.69028 19.516 9.69028 19.3674 9.69028C19.5655 9.39312 19.8626 9.14549 20.1598 8.94738C20.1598 8.94738 20.1598 8.94738 20.2093 8.94738C20.3084 9.04644 20.3579 9.24454 20.2589 9.3436ZM20.3084 8.40259L20.2589 8.30353C20.2093 8.15495 20.1598 8.0559 20.1598 7.90732C20.1103 7.75874 20.1103 7.56063 20.0608 7.41205C20.2093 7.56063 20.3084 7.80826 20.3084 8.00637C20.3579 8.15495 20.3084 8.30354 20.3084 8.40259ZM23.8248 9.78934L23.6762 9.73981C23.6762 9.69029 23.6762 9.64076 23.5772 9.59123C23.3295 9.49218 23.1314 9.3436 22.9333 9.19502C22.7847 9.04644 22.5866 8.7988 22.5866 8.60069C22.5866 8.50164 22.6362 8.40259 22.7847 8.45211C22.9333 8.45211 23.0324 8.55117 23.1314 8.60069C23.3295 8.74928 23.4781 8.94738 23.6267 9.19502C23.7753 9.3436 23.8743 9.59123 23.8248 9.78934C23.8743 9.78934 23.8743 9.78934 23.8248 9.78934ZM24.8153 11.2751C24.6172 11.3247 24.1715 11.2751 24.1715 11.0275C24.1715 10.9285 24.3201 10.8789 24.4191 10.8294C24.5677 10.7799 24.7163 10.7304 24.8649 10.7304C25.2116 10.6808 25.5582 10.6808 25.9049 10.7304H25.9545C25.6573 10.978 25.3106 11.2256 24.8153 11.2751ZM29.0251 10.978C29.0251 10.9285 28.9756 10.8789 28.9261 10.8789C28.2822 10.7799 27.5888 10.3837 27.3412 9.83887C27.2917 9.73981 27.2422 9.5417 27.4403 9.5417C27.5889 9.5417 27.7374 9.64076 27.886 9.69028C28.1832 9.83887 28.4308 9.98745 28.6784 10.1856C28.9261 10.4332 29.1242 10.6808 29.2728 10.978C29.1737 10.978 29.0746 10.978 29.0251 10.978ZM26.6478 12.6124C25.5582 13.4048 24.5677 14.4449 23.7257 15.5345C23.2305 16.1783 22.7352 16.8222 22.2895 17.466C22.1904 17.5651 22.3885 17.7137 22.4876 17.5651C23.7257 15.8812 24.9639 14.1477 26.6478 12.9095C26.3011 14.742 25.2611 16.426 23.7753 17.5651C23.5772 17.7137 23.3295 17.9118 23.0819 18.0108C22.9828 18.0603 22.8343 18.1099 22.7352 18.1594C22.5866 18.2089 22.438 18.2089 22.339 18.0603C22.0914 17.6146 22.1904 16.9212 22.2895 16.426C22.4876 15.4849 22.9828 14.5935 23.6267 13.8506C23.9734 13.4543 24.4191 13.1076 24.8649 12.8105C25.4097 12.5133 26.0535 12.1666 26.6974 12.3647C26.6974 12.3647 26.6974 12.3647 26.7469 12.3647C26.6478 12.5133 26.6478 12.5629 26.6478 12.6124ZM31.9472 11.5723C31.9472 11.7209 31.8482 11.8199 31.7986 11.9685C31.6501 12.2162 31.3529 12.4143 31.0062 12.4638C30.8576 12.5133 30.6595 12.5133 30.5109 12.4638C30.3624 12.4638 30.1642 12.3647 30.0652 12.2657C29.8176 12.0181 30.2138 11.8199 30.4119 11.7209C30.5605 11.6218 30.7586 11.5723 30.9567 11.5228C31.0557 11.5228 31.1548 11.4733 31.2538 11.4733C31.3529 11.4733 31.4519 11.4237 31.551 11.4237C31.6005 11.4237 31.6501 11.4237 31.6501 11.3742C31.6996 11.3742 31.7491 11.3742 31.7986 11.3742C31.8482 11.3742 31.8977 11.3742 31.8977 11.3742C31.9472 11.4733 31.9472 11.5228 31.9472 11.5723ZM35.1169 10.7304L34.9188 10.8294C34.8693 10.8294 34.8693 10.8789 34.8693 10.9285C34.0274 10.978 33.1854 10.7304 32.5911 10.1856C32.5415 10.136 32.4425 10.037 32.4425 9.93792C32.492 9.83887 32.5911 9.78934 32.6901 9.78934C32.8882 9.73981 33.1359 9.78934 33.334 9.83887C33.5321 9.88839 33.7302 9.93792 33.8788 9.98745C34.0769 10.037 34.2255 10.136 34.374 10.2351C34.5722 10.3341 34.7207 10.4827 34.9188 10.5818C34.9684 10.6313 35.0179 10.6808 35.1169 10.7304ZM31.9967 17.8127C32.0958 17.8127 32.1453 17.8127 32.2444 17.8127C32.4425 17.7632 32.6406 17.7137 32.7892 17.5651C33.0863 17.8127 33.1359 18.2584 32.8387 18.5061C32.6901 18.6051 32.4425 18.7042 32.2939 18.6547C32.0958 18.6547 31.9967 18.4566 31.8977 18.308C31.8977 18.308 31.8977 18.2584 31.8482 18.2584C31.9472 18.1594 31.9967 18.0108 31.9967 17.8127ZM32.8882 17.0203C32.8387 17.2184 32.6901 17.367 32.492 17.466C32.2939 17.5651 32.0958 17.6146 31.8977 17.5651C31.6996 17.5155 31.5015 17.367 31.6005 17.1689V17.1193C31.6005 17.1193 31.6501 17.1193 31.6501 17.0698C31.7986 16.8717 31.8482 16.6241 31.8482 16.3764C32.0958 16.3269 32.2939 16.2278 32.4425 16.0297C32.492 16.1783 32.6406 16.3269 32.7892 16.426V16.4755C32.9378 16.6241 32.9378 16.8222 32.8882 17.0203ZM32.1453 15.0392C32.1453 15.0887 32.1948 15.0887 32.2444 15.1382C32.2444 15.1382 32.2444 15.1878 32.2939 15.1878C32.6406 15.5345 32.2939 16.1783 31.8482 16.1783C31.6005 16.1783 31.4024 16.0297 31.3529 15.7821C31.3034 15.5345 31.4024 15.3364 31.551 15.1878C31.6501 15.0392 31.8977 14.9401 32.1453 15.0392ZM30.5109 15.4849C30.5109 15.3364 30.5605 15.1878 30.6595 15.0392C30.7586 14.9401 30.9071 14.8411 31.0557 14.7916C31.2043 14.742 31.3529 14.8411 31.452 14.9401C31.2538 15.0887 31.1053 15.2868 31.0557 15.5345C30.9567 15.6335 30.8576 15.7326 30.7091 15.7326C30.6595 15.7326 30.61 15.7326 30.5605 15.683C30.5109 15.6335 30.5109 15.5345 30.5109 15.4849ZM30.6595 16.9212C30.5605 16.8222 30.5109 16.7231 30.5109 16.5745C30.5109 16.3764 30.5605 16.2278 30.7091 16.0793C30.7091 16.0297 30.7091 16.0297 30.7091 15.9802C30.8576 15.9802 30.9567 15.9307 31.0557 15.8316C31.1053 16.0793 31.2538 16.2774 31.5015 16.3764C31.5015 16.4259 31.5015 16.4259 31.5015 16.4755C31.6005 16.5745 31.551 16.7231 31.452 16.8222C31.3529 16.9212 31.2043 16.9707 31.0557 17.0203C30.9567 16.9707 30.8081 17.0203 30.6595 16.9212ZM31.0062 18.2089C30.8576 18.1099 30.7091 18.0108 30.7091 17.8127C30.6595 17.6641 30.709 17.466 30.8081 17.367C30.8576 17.3174 30.8576 17.2679 30.8081 17.2184C30.9071 17.2184 31.0062 17.2184 31.1548 17.2184C31.2538 17.2184 31.3529 17.1689 31.452 17.1193C31.3529 17.3174 31.452 17.5651 31.6501 17.7136C31.6996 17.7632 31.7491 17.7632 31.7986 17.8127V17.8622C31.8482 18.0603 31.7491 18.2089 31.6005 18.2584C31.4024 18.308 31.1548 18.308 31.0062 18.2089ZM31.452 19.249C31.3034 19.1995 31.1548 19.1004 31.1053 19.0014C31.0557 18.8528 31.1053 18.6547 31.1548 18.5061C31.3529 18.5556 31.5015 18.5061 31.6996 18.407C31.7986 18.5556 31.8977 18.7537 32.0958 18.8032C32.0958 18.8032 32.0958 18.8032 32.0958 18.8528C32.0463 19.1499 31.6996 19.2985 31.452 19.249ZM32.7892 19.9919C32.6901 20.1405 32.492 20.1405 32.3434 20.19C32.1949 20.19 31.9967 20.19 31.8977 20.0414C31.7986 19.9424 31.7986 19.7443 31.8482 19.5957C31.8482 19.5461 31.8482 19.4966 31.8482 19.4471C31.8977 19.4471 31.9472 19.3976 31.9967 19.348C32.0463 19.2985 32.0958 19.249 32.1453 19.1995C32.1453 19.1995 32.1453 19.1995 32.1949 19.249C32.393 19.348 32.5911 19.4966 32.8387 19.4966C32.8387 19.4966 32.8387 19.4966 32.8387 19.5462C32.9378 19.6452 32.8882 19.8433 32.7892 19.9919ZM33.1359 19.1995C32.8882 19.348 32.5415 19.1499 32.3434 19.0014H32.2939C32.2939 18.9518 32.2939 18.9518 32.2939 18.9023V18.8528C32.4425 18.8528 32.5911 18.8528 32.6901 18.8032C32.8882 18.7537 33.0368 18.6547 33.1359 18.5061C33.1359 18.5061 33.1359 18.5061 33.1854 18.5556C33.2349 18.6051 33.334 18.6547 33.3835 18.6547C33.3835 18.8528 33.334 19.1004 33.1359 19.1995ZM33.7797 18.2584C33.7302 18.3575 33.6311 18.407 33.5321 18.4566C33.433 18.5061 33.334 18.407 33.2349 18.3575H33.1854C33.2349 18.2089 33.2349 18.0603 33.2349 17.9118C33.2349 17.8622 33.1854 17.7632 33.1854 17.7136C33.2349 17.7632 33.2845 17.7632 33.3835 17.7632C33.5321 17.7632 33.6311 17.7632 33.7797 17.7136H33.8292C33.8292 17.7136 33.8292 17.7632 33.8788 17.7632C33.8788 17.8127 33.9283 17.8622 33.9283 17.9118C33.9283 18.0603 33.8788 18.1594 33.7797 18.2584ZM33.5816 15.1878C33.7797 14.8906 34.2255 14.8906 34.374 15.1878C34.4731 15.3364 34.4731 15.5345 34.4731 15.7326C34.4236 15.8812 34.3245 16.0297 34.1759 16.0297C34.0769 16.0297 33.9778 16.0297 33.9283 16.0297C33.8788 16.0297 33.8292 16.0297 33.7797 15.9802H33.7302C33.7302 15.9307 33.6807 15.9307 33.6807 15.8812C33.6807 15.683 33.6311 15.4354 33.5816 15.1878C33.5321 15.2373 33.5816 15.2373 33.5816 15.1878ZM33.5816 16.1288C33.6311 16.2278 33.7797 16.2278 33.8788 16.2774C33.8788 16.2774 33.8788 16.3269 33.9283 16.3269C34.275 16.525 34.3245 16.9212 34.1264 17.2184C34.0274 17.367 33.8788 17.466 33.6807 17.5155C33.4826 17.5651 33.2349 17.5651 33.1854 17.3174C33.1854 17.2679 33.1359 17.2184 33.0863 17.2184C33.1359 17.1193 33.1854 17.0698 33.1854 16.9707C33.2349 16.7726 33.1854 16.5745 33.0863 16.426C33.2349 16.426 33.3835 16.3764 33.4825 16.2774C33.4825 16.2774 33.5321 16.1783 33.5816 16.1288ZM33.433 15.584C33.4826 15.7326 33.433 15.9307 33.3835 16.0793C33.2845 16.2278 33.1359 16.2774 32.9378 16.2278C32.7397 16.1783 32.6406 16.0297 32.6406 15.8316C32.6406 15.7821 32.6406 15.7821 32.5911 15.7326C32.6406 15.6335 32.6406 15.5345 32.6406 15.3859C32.6901 15.3859 32.6901 15.3364 32.6901 15.3364C32.6901 15.3364 32.6901 15.3364 32.6901 15.2868C32.6901 15.2868 32.6901 15.2373 32.7396 15.2373C32.7396 15.2373 32.7396 15.2373 32.7396 15.1878L32.7892 15.1382C32.7892 15.1382 32.8387 15.0887 32.8387 15.0392C32.9378 14.9897 33.0863 15.0392 33.1359 15.0887C33.2845 15.2373 33.3835 15.3859 33.433 15.584ZM34.4731 8.55116C35.1169 8.60069 35.6122 8.94738 36.0084 9.44265C36.3056 9.83887 36.5037 10.2846 36.8504 10.6808C36.8009 10.7304 36.7513 10.7304 36.6523 10.7304H36.6028C36.4542 10.6808 36.2561 10.5322 36.157 10.4332C36.0084 10.2351 35.8599 9.98744 35.6617 9.78934C35.216 9.39312 34.6712 9.14549 34.2255 8.84833C34.1759 8.7988 34.0769 8.74927 34.0273 8.69975C33.9283 8.65022 33.9778 8.6007 34.0273 8.50164C34.1264 8.40259 34.2255 8.30353 34.374 8.25401C34.6217 8.15495 34.8693 8.10543 35.1169 8.15495C35.6617 8.20448 36.1075 8.50164 36.4542 8.89786C36.8009 9.3436 36.8999 9.88839 36.8999 10.4332C36.6028 10.037 36.3551 9.59123 36.058 9.19502C35.6617 8.69975 35.117 8.35306 34.4236 8.35306C34.3245 8.30353 34.3245 8.55116 34.4731 8.55116ZM43.9823 14.2468C43.4375 14.8411 42.645 15.1878 41.8526 15.2373C40.9116 15.2868 39.9706 14.8906 39.2277 14.3458C38.8315 14.0487 38.5343 13.6524 38.4352 13.2067C38.4848 13.2562 38.5838 13.2562 38.6334 13.3058C39.1286 13.5534 39.6734 13.6524 40.2182 13.7515C40.8125 13.8505 41.4069 13.9496 42.0507 14.0487C42.645 14.1477 43.2889 14.1972 43.9327 14.1972C43.9327 14.2468 43.9823 14.2468 43.9823 14.2468ZM38.3857 12.8105C38.7324 12.1171 39.7725 12.3152 40.3668 12.5133C41.2088 12.761 41.9517 13.2067 42.6946 13.6029C42.9422 13.702 43.1403 13.8506 43.3879 13.9496C42.4469 13.9001 41.5059 13.7515 40.5649 13.6029C39.822 13.4543 39.0296 13.3058 38.3857 12.9095C38.3857 12.86 38.3362 12.8105 38.2867 12.86C38.3362 12.86 38.3857 12.86 38.3857 12.8105ZM38.7324 10.8294C38.7324 10.7799 38.7324 10.7799 38.6829 10.7304L38.4848 10.6313C38.5343 10.5818 38.6334 10.5322 38.6829 10.4827C38.8315 10.3341 39.0296 10.2351 39.2277 10.136C39.3763 10.037 39.5744 9.98745 39.7229 9.8884C39.9211 9.83887 40.0696 9.78934 40.2677 9.73981C40.4659 9.69029 40.7135 9.64076 40.9116 9.69028C41.0106 9.69028 41.1097 9.73981 41.1592 9.83887C41.2088 9.93792 41.1097 10.037 41.0106 10.0865C40.4659 10.6313 39.5744 10.8789 38.7324 10.8294ZM43.1403 11.7209C43.3879 11.8199 43.7346 12.0181 43.487 12.2657C43.3879 12.3647 43.2394 12.4143 43.0413 12.4638C42.8927 12.4638 42.6946 12.4638 42.546 12.4638C42.1993 12.4143 41.9517 12.2162 41.7536 11.9685C41.6545 11.8695 41.605 11.7209 41.605 11.5723C41.605 11.5228 41.605 11.4237 41.6545 11.4237C41.704 11.4237 41.7536 11.3742 41.7536 11.4237C41.8031 11.4733 41.8526 11.4733 41.9021 11.4237C41.9021 11.4237 41.9517 11.4733 42.0012 11.4733C42.1002 11.4733 42.1993 11.4733 42.2984 11.5228C42.3974 11.5228 42.4965 11.5723 42.5955 11.5723C42.7936 11.5723 42.9917 11.6218 43.1403 11.7209ZM46.9539 12.4143C47.5977 12.2162 48.2416 12.5133 48.7864 12.86C49.2321 13.1572 49.6779 13.5039 50.0246 13.9001C50.6684 14.643 51.1637 15.5345 51.3618 16.4755C51.4608 16.9707 51.6094 17.6146 51.3122 18.1099C51.2132 18.2584 51.0646 18.2584 50.916 18.2089C50.7675 18.1594 50.6684 18.1099 50.5693 18.0603C50.3217 17.9118 50.0741 17.7632 49.876 17.6146C48.3902 16.4755 47.3501 14.7916 47.0034 12.9591C48.6378 14.1972 49.9255 15.9307 51.1637 17.6146C51.2627 17.7136 51.4608 17.6146 51.3618 17.5155C50.8665 16.8717 50.4208 16.2278 49.9255 15.584C49.0835 14.4944 48.093 13.5039 47.0034 12.6619C46.9539 12.5133 46.9539 12.4638 46.9539 12.4143ZM44.6756 10.8294C44.6261 10.8294 44.5766 10.8789 44.5766 10.9285C44.5271 10.9285 44.428 10.9285 44.3785 10.978C44.5271 10.6808 44.7252 10.4332 44.9728 10.1856C45.2204 9.98745 45.4681 9.78934 45.7652 9.69028C45.9138 9.64076 46.0624 9.5417 46.211 9.5417C46.4091 9.5417 46.3596 9.73981 46.31 9.83887C46.0129 10.2846 45.3195 10.7304 44.6756 10.8294ZM48.7369 10.6313C48.8854 10.6313 49.034 10.6808 49.1826 10.7304C49.2816 10.7799 49.4302 10.8294 49.4302 10.9285C49.3807 11.1761 48.9845 11.2256 48.7864 11.1761C48.3406 11.1266 47.9444 10.8789 47.7463 10.5818H47.7958C48.093 10.5818 48.4397 10.5818 48.7369 10.6313ZM49.9255 9.69028L49.7769 9.73981H49.7274C49.7274 9.54171 49.8264 9.3436 49.975 9.14549C50.1236 8.94739 50.2722 8.74927 50.4703 8.55116C50.5694 8.45211 50.7179 8.40259 50.817 8.40259C50.9656 8.40259 51.0151 8.45211 51.0151 8.55116C51.0151 8.74927 50.817 8.99691 50.6684 9.14549C50.5198 9.3436 50.2722 9.44265 50.0246 9.5417C49.9255 9.59123 49.876 9.64076 49.9255 9.69028ZM53.64 8.05589C53.7391 7.75873 53.7886 7.5111 53.8381 7.21394C53.9372 7.21394 54.0362 7.26346 54.0858 7.31299C54.1848 7.46157 54.1353 7.70921 54.0362 7.90732C53.9372 8.10543 53.7391 8.25401 53.541 8.40259C53.5905 8.30354 53.64 8.15495 53.64 8.05589ZM53.541 7.36252C53.541 7.5111 53.4914 7.65968 53.4419 7.85779C53.3924 8.00637 53.3924 8.10543 53.3429 8.25401L53.2933 8.35306C53.2438 8.20448 53.2438 8.10542 53.2438 7.95684C53.2933 7.75873 53.3428 7.56063 53.541 7.36252ZM53.8381 9.64076C53.64 9.59124 53.3924 9.49218 53.3429 9.29407C53.2933 9.14549 53.2933 8.99691 53.3924 8.84833C53.3924 8.84833 53.3924 8.84833 53.4419 8.84833C53.7886 9.04644 54.0362 9.29407 54.2343 9.59123C54.0858 9.64076 53.9372 9.64076 53.8381 9.64076ZM54.4324 8.89786C54.6306 8.99691 54.6801 9.24455 54.5315 9.39313C54.482 9.44265 54.4324 9.49218 54.3829 9.49218V9.44265C54.2343 9.19502 53.9867 8.94738 53.7391 8.7988C53.9867 8.7988 54.2839 8.7988 54.4324 8.89786ZM62.0596 7.75874C62.1091 7.80826 62.1586 7.85779 62.2082 7.90732C62.3072 8.00637 62.4558 8.15495 62.5549 8.30353C62.6539 8.45211 62.753 8.6007 62.8025 8.74928C62.9511 9.09596 63.0501 9.44265 63.1492 9.83887C63.1987 9.98745 63.3473 9.93792 63.3473 9.78934C63.2482 9.39312 63.1987 8.99691 63.0006 8.65022C62.852 8.35306 62.6539 8.05589 62.4063 7.80826C62.3568 7.75873 62.3072 7.70921 62.2082 7.65969C62.2082 7.65969 62.2082 7.65968 62.2082 7.61016C62.2577 7.61016 62.3072 7.61015 62.3568 7.56063C62.5549 7.21394 63.0501 7.21394 63.3968 7.36252C63.5949 7.46157 63.7435 7.56063 63.8921 7.70921C63.9416 7.75873 64.0407 7.85779 64.0902 7.95684C64.1397 8.0559 64.1892 8.10542 64.2388 8.20448C64.3378 8.35306 64.3874 8.55117 64.4864 8.69975C64.5359 8.89785 64.5855 9.04644 64.5855 9.24455C64.5855 9.59123 64.4864 9.98744 64.2883 10.2846C64.1892 10.4332 64.0902 10.5818 63.9911 10.6808C63.8921 10.7799 63.7435 10.8789 63.6445 10.9285C63.3473 11.077 63.0501 10.978 62.8025 10.8294C62.7034 10.7799 62.5549 10.6808 62.4558 10.5818C62.3568 10.4827 62.2577 10.3837 62.1587 10.2351C61.9605 9.98745 61.812 9.69029 61.7129 9.39313C61.5148 8.7988 61.6634 8.20448 62.0596 7.75874ZM62.2082 6.27293L61.9605 6.32245C62.1091 6.2234 62.2577 6.12435 62.3568 6.02529C62.5053 5.92624 62.6044 5.82718 62.753 5.72813C63.0006 5.48049 63.2978 5.28239 63.5454 5.03476C63.3473 5.28239 63.1492 5.4805 62.9511 5.67861C62.753 5.87672 62.5053 6.02529 62.2577 6.2234C62.2082 6.2234 62.2082 6.27293 62.2082 6.27293ZM66.0713 7.46157C65.8236 7.06536 65.5265 6.71867 65.0807 6.47103C65.1798 6.47103 65.2788 6.47104 65.3779 6.52056C65.3779 6.57009 65.3779 6.57009 65.4274 6.61962C65.7741 6.7682 66.0218 7.06536 66.0713 7.46157ZM67.2104 7.36252C67.2599 7.41205 67.3094 7.46158 67.3094 7.5111C67.458 7.75874 67.5076 8.10543 67.458 8.40259C67.4085 8.55117 67.6066 8.60069 67.6561 8.45211C67.7552 8.10542 67.7057 7.75873 67.5571 7.46157C67.5571 7.41205 67.5076 7.36252 67.458 7.31299C67.6066 7.31299 67.7057 7.313 67.8542 7.41205C67.9533 7.46158 68.1019 7.56063 68.2009 7.65969C68.399 7.85779 68.5476 8.10542 68.5972 8.35306C68.6962 8.7988 68.6467 9.44265 68.2009 9.69028C67.9533 9.83887 67.7057 9.78934 67.5076 9.64076C67.3094 9.49218 67.1113 9.24455 67.0618 8.99691C66.9628 8.74928 66.9132 8.45212 66.9628 8.15495C66.9628 8.00637 67.0123 7.85779 67.0618 7.70921C67.1113 7.56063 67.2104 7.46157 67.2104 7.36252ZM69.5382 7.11489H69.5877C69.7858 7.01583 69.9839 6.9663 70.2315 6.9663C70.4792 6.9663 70.6773 7.06536 70.9249 7.11489C71.3211 7.26347 71.8164 7.5111 71.8659 7.95684C71.9154 8.35306 71.6183 8.69975 71.2221 8.69975C71.024 8.69975 70.8259 8.65022 70.6277 8.55116C70.4296 8.45211 70.2811 8.30353 70.1325 8.20448C70.0334 8.10542 69.9344 8.00637 69.8353 7.85779C69.7363 7.70921 69.6372 7.56063 69.6372 7.41205L70.0334 7.56063L70.4296 7.70921C70.5782 7.75873 70.6773 7.56063 70.5287 7.5111C70.3801 7.46158 70.2315 7.36252 70.083 7.31299L69.6372 7.11489C69.5382 7.16441 69.5382 7.16441 69.5382 7.11489C69.5382 7.16441 69.5382 7.16441 69.5382 7.11489ZM71.4202 4.53949C70.9744 4.83665 70.4296 5.03475 69.9344 5.23286C69.7858 5.28239 69.5877 5.38145 69.4391 5.43097C69.2905 5.4805 69.0924 5.53002 68.8943 5.57955C69.4391 5.03475 69.7858 4.34138 70.1325 3.648C70.182 3.49942 69.8848 3.40037 69.8353 3.54895C69.4886 4.29185 69.0429 5.13381 68.399 5.67861C68.3495 5.67861 68.3 5.67861 68.2505 5.67861C68.2009 5.67861 68.2009 5.6786 68.2009 5.72813C67.7552 5.33191 67.458 4.83664 67.3094 4.34137C67.1609 3.8461 67.1113 3.30131 67.2599 2.80604C67.4085 2.26125 67.7057 1.76597 68.1514 1.36976C68.5476 1.02307 69.0429 0.676386 69.6372 0.478278C69.9344 0.379224 70.3306 0.329696 70.7268 0.329696C70.9249 0.329696 71.123 0.379221 71.3211 0.428748C71.4202 0.478275 71.5192 0.478273 71.6183 0.5278C71.7173 0.577327 71.8164 0.626856 71.8659 0.676383C72.0145 0.775437 72.1136 0.874489 72.2126 1.02307C72.3117 1.12212 72.4107 1.27071 72.4602 1.41929C72.6088 1.66692 72.7079 1.96409 72.7079 2.21172C72.8565 3.20226 72.2621 3.99469 71.4202 4.53949Z" fill="#EBE5E4"/>
<path d="M43.4874 3.25183C43.5369 3.30136 43.6359 3.30136 43.6855 3.35089C43.6359 3.44994 43.5864 3.549 43.5369 3.64805C43.4874 3.89568 43.5864 4.24237 43.7845 4.39095C43.834 4.44048 43.8836 4.44048 43.9331 4.44048C43.8836 4.49001 43.8836 4.58906 43.8836 4.63859C43.8836 4.88622 43.9826 5.18338 44.2303 5.33196C44.1807 5.38149 44.0817 5.48054 44.0322 5.53007C43.8836 5.67865 43.735 5.97581 43.9331 6.17392C44.1312 6.3225 44.3788 6.17392 44.4779 6.02534C44.5769 5.87676 44.676 5.72817 44.7255 5.57959C44.775 5.62912 44.7751 5.67865 44.8246 5.67865C44.8741 5.77771 44.9732 5.82723 45.0722 5.87676C45.2208 5.97581 45.4684 6.07486 45.6665 6.07486C45.8646 6.02534 46.0132 5.87676 45.9637 5.67865C45.9142 5.48055 45.6665 5.43101 45.5675 5.23291C45.6665 5.18338 45.7656 5.13386 45.8151 5.0348C45.8646 4.88622 45.8646 4.73764 45.8646 4.63859C45.9637 4.58906 46.0627 4.53954 46.1618 4.44048C46.3104 4.24237 46.3104 3.94521 46.1618 3.7471C46.1618 3.7471 46.1123 3.69758 46.0627 3.69758C46.0627 3.69758 46.0627 3.69758 46.0132 3.64805C46.1123 3.549 46.1618 3.40042 46.1618 3.30136C46.1618 3.15278 46.0627 3.0042 45.9637 2.95468C46.1123 2.85562 46.2113 2.70704 46.2113 2.55846C46.2113 2.2613 45.9637 2.11272 45.7656 2.01366C45.7161 2.01366 45.7161 2.01366 45.6665 2.01366L45.617 1.96414C45.7161 1.86509 45.7161 1.76603 45.7161 1.66698C45.6665 1.51839 45.617 1.41934 45.4684 1.36981C45.3198 1.32028 45.1713 1.27076 45.0227 1.27076C44.9732 1.27076 44.9732 1.27076 44.9236 1.32029C44.9236 1.27076 44.8741 1.22123 44.8741 1.17171C44.775 1.02313 44.5769 0.924072 44.3788 0.924072C44.1807 0.924072 43.9826 1.07266 43.9331 1.22124C43.834 1.41934 43.8836 1.61745 44.0322 1.76603H43.9826C43.834 1.81555 43.6855 1.91461 43.5864 2.06319C43.5369 2.21177 43.5369 2.31083 43.6359 2.45941C43.5369 2.50893 43.4874 2.55846 43.4378 2.60798C43.2397 2.70704 43.2397 3.10325 43.4874 3.25183ZM44.0817 1.91461C44.1312 1.91461 44.1312 1.91461 44.1807 1.91461C44.2303 1.91461 44.2303 1.91461 44.2303 1.91461H44.2798C44.2798 1.91461 44.2798 1.91461 44.3293 1.91461C44.2798 1.91461 44.2303 1.91461 44.1807 2.01366V2.06319V2.11271L44.1312 2.16224H44.0817C44.0817 2.16224 44.0817 2.16224 44.0322 2.16224C44.0322 2.16224 44.0321 2.16224 43.9826 2.16224C43.9826 2.16224 43.9826 2.16224 43.9331 2.16224C43.9331 2.16224 43.9331 2.11272 43.9331 2.16224C43.9331 2.11272 43.9331 2.11271 43.9826 2.11271C43.9826 2.11271 43.9826 2.11272 44.0322 2.06319L44.0817 2.01366C44.0817 2.01366 44.0817 2.01366 44.1312 2.01366C44.0321 1.91461 44.0322 1.91461 44.0817 1.91461C44.0322 1.91461 44.0322 1.91461 44.0817 1.91461ZM44.7255 1.41934C44.7255 1.41934 44.7255 1.46887 44.7255 1.41934C44.7255 1.46887 44.7255 1.51839 44.7255 1.51839V1.56792C44.7255 1.56792 44.676 1.61745 44.676 1.66698C44.676 1.61745 44.5769 1.56792 44.5274 1.61745H44.4779C44.4779 1.61745 44.4779 1.61745 44.4284 1.61745H44.3788C44.3788 1.61745 44.3788 1.61745 44.3293 1.61745C44.3293 1.61745 44.3293 1.61745 44.2798 1.61745C44.2798 1.61745 44.2303 1.61745 44.2303 1.56792C44.2303 1.56792 44.1807 1.5184 44.2303 1.56792C44.2303 1.56792 44.2303 1.51839 44.1807 1.51839V1.46887V1.41934V1.36981C44.1807 1.36981 44.1807 1.36982 44.2303 1.32029H44.2798H44.3293C44.3788 1.32029 44.3788 1.32029 44.4284 1.32029C44.4284 1.32029 44.4284 1.32029 44.4779 1.32029C44.4779 1.32029 44.4779 1.32029 44.5274 1.32029C44.5769 1.32029 44.5769 1.36981 44.6265 1.36981C44.6265 1.36981 44.6265 1.41934 44.676 1.41934V1.46887C44.7255 1.36982 44.7255 1.41934 44.7255 1.41934ZM44.6265 4.14332C44.4779 3.99474 44.5274 3.7471 44.676 3.59852C44.676 3.59852 44.676 3.59852 44.676 3.549H44.7255C44.8246 3.549 44.9236 3.54899 44.9732 3.49947C45.0227 3.59852 45.0722 3.69757 45.1713 3.7471C45.2208 3.79663 45.2703 3.79663 45.3198 3.84615C45.3198 3.89568 45.3198 3.89569 45.3198 3.94521C45.3694 3.99474 45.3198 4.04426 45.3198 4.14332C45.2703 4.14332 45.2208 4.19284 45.2208 4.24237C45.0227 4.34142 44.775 4.2919 44.6265 4.14332ZM44.4284 3.20231C44.2798 3.0042 44.3293 2.75656 44.5274 2.60798L44.5769 2.55846C44.6265 2.55846 44.6265 2.55846 44.676 2.60798C44.775 2.60798 44.8741 2.60799 45.0227 2.55846C45.0227 2.65751 45.0722 2.75657 45.1713 2.80609C45.1713 2.85562 45.2208 2.85562 45.2208 2.85562V2.90515C45.2208 3.05373 45.1713 3.15278 45.0722 3.25183C44.8246 3.40041 44.5274 3.35089 44.4284 3.20231ZM44.8741 2.01366C44.9236 2.06319 44.9236 2.06319 44.8741 2.01366C44.9236 2.06319 44.9236 2.06319 44.9236 2.06319C44.9236 2.11272 44.9732 2.11271 45.0227 2.11271C45.0227 2.16224 44.9732 2.21177 44.9732 2.2613H44.9236H44.8741H44.8246C44.8246 2.2613 44.8246 2.2613 44.7751 2.2613H44.7255C44.7255 2.2613 44.7255 2.2613 44.7255 2.21177C44.7255 2.21177 44.7255 2.21177 44.7255 2.16224V2.11271C44.7255 2.11271 44.7255 2.11272 44.7255 2.06319V2.01366C44.7255 2.01366 44.7255 1.96414 44.7751 1.96414C44.7751 1.96414 44.7751 1.96414 44.8246 1.96414C44.8246 1.96414 44.8246 1.96414 44.8741 1.96414H44.9236C44.8246 1.96414 44.8246 1.96413 44.8741 2.01366C44.8246 1.96413 44.8246 1.96413 44.8741 2.01366C44.8246 1.96413 44.8246 1.96413 44.8741 2.01366C44.8246 1.96413 44.8741 1.96413 44.8741 2.01366ZM45.4684 1.7165C45.4684 1.7165 45.4684 1.76603 45.4684 1.7165C45.4684 1.76603 45.4684 1.76603 45.4684 1.7165C45.4684 1.76603 45.4684 1.76603 45.4684 1.7165C45.4684 1.76603 45.4684 1.76603 45.4189 1.76603C45.4189 1.76603 45.3694 1.76603 45.4189 1.76603H45.3694C45.3198 1.76603 45.3198 1.76603 45.2703 1.76603C45.2208 1.76603 45.2208 1.76603 45.1713 1.76603C45.1217 1.76603 45.1217 1.76603 45.1217 1.76603C45.1217 1.76603 45.1217 1.76603 45.0722 1.76603C45.0722 1.76603 45.0722 1.76603 45.0722 1.7165C45.0722 1.7165 45.0722 1.66698 45.0227 1.66698C45.0722 1.61745 45.0722 1.5184 45.0722 1.46887C45.0722 1.46887 45.1217 1.51839 45.1713 1.51839H45.2208C45.2208 1.51839 45.2208 1.51839 45.2703 1.51839C45.2703 1.51839 45.3198 1.51839 45.3694 1.51839C45.4189 1.51839 45.4189 1.51839 45.4684 1.51839H45.518C45.518 1.51839 45.518 1.5184 45.518 1.56792C45.4684 1.66698 45.4684 1.66698 45.4684 1.7165C45.4684 1.66698 45.4684 1.66698 45.4684 1.7165ZM45.617 2.80609C45.4684 2.80609 45.3198 2.75657 45.2703 2.65751C45.2208 2.60799 45.1713 2.50893 45.1713 2.40988C45.1713 2.40988 45.1713 2.40987 45.1713 2.36035C45.2208 2.31082 45.2208 2.2613 45.2208 2.16224C45.2703 2.06319 45.4189 2.06319 45.4684 2.16224C45.5179 2.21177 45.518 2.21177 45.5675 2.16224C45.7161 2.21177 45.9142 2.36035 45.8646 2.55846C45.9142 2.70704 45.7656 2.80609 45.617 2.80609ZM45.9142 3.44994C45.8646 3.549 45.7656 3.64805 45.617 3.69758C45.5179 3.69758 45.4189 3.69758 45.3198 3.64805C45.2208 3.59852 45.1713 3.49947 45.1713 3.40041C45.2703 3.30136 45.3198 3.15278 45.3694 3.0042C45.4684 3.05373 45.5675 3.05373 45.7161 3.0042H45.7656C45.7656 3.05373 45.7656 3.10325 45.8151 3.15278C45.9142 3.20231 45.9637 3.30136 45.9142 3.44994ZM45.7161 4.44048H45.6665C45.6665 4.44048 45.617 4.44048 45.617 4.39095C45.6665 4.2919 45.7161 4.14332 45.6665 3.99474C45.7161 3.99474 45.8151 3.99474 45.8646 3.94521H45.9142H45.9637C45.9637 3.94521 45.9637 3.94521 46.0132 3.94521H46.0627H46.1123C46.1123 3.94521 46.1123 3.94521 46.1123 3.99474C46.1123 3.99474 46.1123 3.99474 46.1123 4.04427V4.09379C46.1123 4.14331 46.1123 4.14332 46.1123 4.19285C46.1123 4.19285 46.1123 4.19284 46.1123 4.24237C46.1123 4.24237 46.1123 4.24237 46.1123 4.2919C46.1123 4.2919 46.1123 4.34142 46.0627 4.34142C46.0627 4.34142 46.0627 4.39095 46.0627 4.34142C46.0627 4.34142 46.0627 4.34143 46.0627 4.39095C46.0627 4.39095 46.0627 4.39096 46.0627 4.44048C46.0627 4.44048 46.0132 4.44048 46.0132 4.49C46.0132 4.49 46.0132 4.49 45.9637 4.49C45.9637 4.49 45.9637 4.49 45.9142 4.49C45.7656 4.44048 45.7656 4.44048 45.7161 4.44048ZM45.617 4.63859C45.617 4.73764 45.617 4.88622 45.5675 4.98527C45.4684 5.08433 45.3198 5.08433 45.2208 5.08433C45.0722 5.0348 44.9732 4.98527 44.9236 4.83669C44.8741 4.73764 44.8741 4.58906 44.9236 4.49H44.9732C45.0722 4.49 45.2208 4.49001 45.3198 4.39095C45.3694 4.44048 45.4189 4.49001 45.4684 4.53953C45.5179 4.58906 45.5675 4.63859 45.617 4.63859ZM44.8246 5.38149C44.8741 5.38149 44.8741 5.33196 44.9236 5.33196C44.9236 5.28243 44.9732 5.28243 44.9732 5.23291C45.1217 5.33196 45.2703 5.33196 45.4189 5.33196C45.4189 5.33196 45.4189 5.38149 45.4189 5.43102C45.5179 5.5796 45.6665 5.62912 45.7656 5.72818C45.8151 5.7777 45.8151 5.82723 45.7656 5.87676C45.7161 5.92628 45.617 5.92628 45.518 5.87676C45.3694 5.82723 45.2208 5.72818 45.0722 5.62912C44.9732 5.5796 44.9236 5.43102 44.8246 5.38149ZM44.3293 5.62912C44.3788 5.5796 44.4284 5.53007 44.5274 5.48054H44.5769C44.5274 5.62912 44.4779 5.7777 44.3788 5.87676C44.3293 5.92628 44.2798 5.97581 44.2303 6.02534C44.1807 6.02534 44.1312 6.07486 44.0817 6.07486C44.0322 6.02534 44.1312 5.87675 44.1807 5.82723C44.2303 5.72817 44.2798 5.67865 44.3293 5.62912ZM44.1312 4.58906C44.1312 4.58906 44.1312 4.53953 44.1807 4.53953C44.1807 4.53953 44.1807 4.53953 44.2303 4.53953C44.3293 4.49001 44.4284 4.44048 44.4779 4.39095C44.5274 4.44048 44.5769 4.49 44.676 4.49C44.6265 4.63858 44.5769 4.78717 44.6265 4.93575C44.6265 4.98528 44.676 5.0348 44.7255 5.08433C44.7255 5.08433 44.676 5.08433 44.6265 5.08433C44.5274 5.13385 44.4779 5.18338 44.3788 5.28244C44.2798 5.28244 44.2303 5.23291 44.1807 5.13385C44.1312 5.0348 44.0817 4.93575 44.0817 4.78717C44.1312 4.68811 44.1312 4.63858 44.1312 4.58906ZM43.9331 3.40041C43.9826 3.35089 43.9826 3.35089 43.9331 3.40041C44.0321 3.35089 44.0817 3.30136 44.1312 3.25183C44.1312 3.25183 44.1312 3.25184 44.1312 3.20231C44.1807 3.30136 44.2798 3.40041 44.4284 3.49947C44.3293 3.59852 44.2798 3.79663 44.2798 3.94521C44.2798 4.04427 44.3293 4.09379 44.3293 4.19285C44.3293 4.19285 44.3293 4.19285 44.2798 4.19285C44.2303 4.2919 44.1312 4.2919 44.0322 4.2919C43.9331 4.2919 43.834 4.19284 43.7845 4.09379C43.6855 3.84615 43.7845 3.549 43.9331 3.40041ZM43.5369 2.85562C43.5369 2.80609 43.5369 2.80609 43.5369 2.80609C43.5369 2.80609 43.5369 2.80609 43.5369 2.75656V2.70704L43.5864 2.65751C43.5864 2.65751 43.5864 2.65751 43.6359 2.65751C43.6359 2.65751 43.6359 2.65751 43.6855 2.65751C43.735 2.65751 43.735 2.65751 43.7845 2.65751H43.834C43.8836 2.65751 43.8836 2.65751 43.9331 2.60798C43.9826 2.60798 44.0321 2.60799 44.1312 2.55846C44.1807 2.50893 44.2303 2.4594 44.2798 2.40988C44.2798 2.4594 44.3293 2.50893 44.3293 2.50893C44.1807 2.60798 44.0817 2.8061 44.0817 2.95468C44.0817 3.0042 44.0817 3.05372 44.0817 3.10325C44.0322 3.10325 43.9826 3.10325 43.9331 3.10325C43.9331 3.10325 43.9331 3.10325 43.8836 3.10325C43.8836 3.10325 43.8836 3.10325 43.834 3.10325C43.834 3.10325 43.834 3.10325 43.7845 3.10325C43.7845 3.10325 43.7845 3.10325 43.735 3.10325C43.735 3.10325 43.6855 3.10325 43.735 3.10325C43.735 3.10325 43.735 3.10325 43.6855 3.10325C43.6855 3.10325 43.6855 3.10325 43.6359 3.10325C43.6359 3.10325 43.6359 3.10325 43.5864 3.10325C43.5864 3.10325 43.5864 3.10326 43.5369 3.05373C43.5369 3.05373 43.5369 3.05373 43.5369 3.0042C43.5369 3.0042 43.5369 3.0042 43.5369 2.95468C43.5369 2.95468 43.5369 2.95467 43.5369 2.90515C43.5369 2.90515 43.5369 2.90514 43.5369 2.85562C43.5369 2.90514 43.5369 2.90514 43.5369 2.85562Z" fill="#EBE5E4"/>
</svg>
