<svg width="32" height="32" viewBox="0 0 32 32" fill="none" xmlns="http://www.w3.org/2000/svg">
<rect width="32" height="32" rx="5" fill="#3D2800"/>
<path d="M23.762 11.2915C23.2053 11.5381 22.6073 11.7048 21.9787 11.7801C22.6273 11.392 23.1126 10.7811 23.344 10.0615C22.7346 10.4235 22.0676 10.6783 21.372 10.8148C20.9043 10.3154 20.2847 9.98435 19.6095 9.87312C18.9344 9.76188 18.2414 9.87666 17.6382 10.1996C17.0349 10.5226 16.5552 11.0357 16.2734 11.6593C15.9917 12.2828 15.9237 12.982 16.08 13.6481C14.8451 13.5861 13.6371 13.2652 12.5343 12.7061C11.4315 12.147 10.4586 11.3622 9.67866 10.4028C9.412 10.8628 9.25866 11.3961 9.25866 11.9641C9.25837 12.4755 9.38429 12.979 9.62525 13.43C9.86621 13.8809 10.2148 14.2655 10.64 14.5495C10.1468 14.5338 9.66458 14.4005 9.23333 14.1608V14.2008C9.23328 14.918 9.48135 15.6131 9.93545 16.1681C10.3896 16.7232 11.0217 17.1041 11.7247 17.2461C11.2672 17.3699 10.7876 17.3882 10.322 17.2995C10.5203 17.9165 10.9067 18.4562 11.4269 18.8427C11.9472 19.2293 12.5753 19.4436 13.2233 19.4555C12.1232 20.3191 10.7646 20.7875 9.366 20.7855C9.11825 20.7855 8.87072 20.7711 8.62466 20.7421C10.0443 21.6549 11.6969 22.1393 13.3847 22.1375C19.098 22.1375 22.2213 17.4055 22.2213 13.3015C22.2213 13.1681 22.218 13.0335 22.212 12.9001C22.8195 12.4608 23.3439 11.9167 23.7607 11.2935L23.762 11.2915Z" fill="white"/>
</svg>
