<svg width="33" height="33" viewBox="0 0 33 33" fill="none" xmlns="http://www.w3.org/2000/svg">
<g clip-path="url(#clip0)">
<path d="M29.9614 5.03613C28.3049 3.2395 26.032 2.25 23.5608 2.25C21.7136 2.25 20.022 2.83398 18.5327 3.9856C17.7812 4.56689 17.1003 5.27808 16.5 6.10815C15.8999 5.27832 15.2188 4.56689 14.467 3.9856C12.978 2.83398 11.2864 2.25 9.43921 2.25C6.96802 2.25 4.69482 3.2395 3.03833 5.03613C1.40161 6.81177 0.5 9.23755 0.5 11.8669C0.5 14.5732 1.50854 17.0505 3.67383 19.6633C5.61084 22.0005 8.39478 24.373 11.6187 27.1204C12.7195 28.0586 13.9673 29.1221 15.2629 30.2549C15.6052 30.5547 16.0444 30.7197 16.5 30.7197C16.9553 30.7197 17.3948 30.5547 17.7366 30.2554C19.0322 29.1223 20.2808 28.0583 21.3821 27.1196C24.6055 24.3728 27.3894 22.0005 29.3264 19.6631C31.4917 17.0505 32.5 14.5732 32.5 11.8667C32.5 9.23755 31.5984 6.81177 29.9614 5.03613Z" fill="#E5BDA7"/>
</g>
<defs>
<clipPath id="clip0">
<rect width="32" height="32" fill="white" transform="translate(0.5 0.5)"/>
</clipPath>
</defs>
</svg>
