<svg width="33" height="32" viewBox="0 0 33 32" fill="none" xmlns="http://www.w3.org/2000/svg">
<g clip-path="url(#clip0)">
<path d="M31.6372 13.9185C31.6365 13.9177 31.6358 13.917 31.635 13.9163L18.5816 0.863281C18.0252 0.306641 17.2854 0 16.4986 0C15.7117 0 14.972 0.306396 14.4153 0.863037L1.36869 13.9094C1.36429 13.9138 1.3599 13.9185 1.3555 13.9229C0.212923 15.072 0.214877 16.9365 1.36112 18.0828C1.8848 18.6067 2.57645 18.9102 3.31595 18.9419C3.34598 18.9448 3.37625 18.9463 3.40677 18.9463H3.92703V28.5525C3.92703 30.4534 5.47367 32 7.37503 32H12.482C12.9995 32 13.4195 31.5803 13.4195 31.0625V23.5312C13.4195 22.6638 14.125 21.9583 14.9925 21.9583H18.0047C18.8721 21.9583 19.5777 22.6638 19.5777 23.5312V31.0625C19.5777 31.5803 19.9973 32 20.5152 32H25.6221C27.5235 32 29.0701 30.4534 29.0701 28.5525V18.9463H29.5525C30.3391 18.9463 31.0789 18.6399 31.6358 18.0833C32.7832 16.9351 32.7837 15.0674 31.6372 13.9185Z" fill="#E5BDA7"/>
</g>
<defs>
<clipPath id="clip0">
<rect width="32" height="32" fill="white" transform="translate(0.5)"/>
</clipPath>
</defs>
</svg>
