<svg width="33" height="32" viewBox="0 0 33 32" fill="none" xmlns="http://www.w3.org/2000/svg">
<g clip-path="url(#clip0)">
<path d="M24.6854 13.1795C24.679 13.1721 24.6729 13.1648 24.6667 13.1572C24.5178 12.9738 24.3256 12.9377 24.2244 12.9325C24.1231 12.9271 23.9282 12.9436 23.7614 13.1107L14.5284 22.358C14.1842 22.7027 13.6341 22.7282 13.2594 22.4171L9.37352 19.1903C9.14483 19.0004 8.81458 19.0025 8.58839 19.195C8.58552 19.1975 8.5827 19.1998 8.5797 19.2023L0.5 25.9125V27.9111C0.5 30.1659 2.33432 32.0002 4.58907 32.0002H28.4109C30.6657 32.0002 32.5 30.1658 32.5 27.9111V22.2188L24.6854 13.1795Z" fill="#E5BDA7"/>
<path d="M10.5739 5.82227C9.10725 5.82227 7.91406 7.01546 7.91406 8.48202C7.91406 9.94859 9.10731 11.1418 10.5739 11.1418C12.0405 11.1418 13.2336 9.94859 13.2336 8.48202C13.2336 7.01539 12.0405 5.82227 10.5739 5.82227Z" fill="#E5BDA7"/>
<path d="M28.411 0H4.58907C2.33444 0 0.5 1.83432 0.5 4.08907V23.4621L7.37151 17.7553C8.29689 16.9718 9.64421 16.9649 10.5776 17.74L13.802 20.4175L22.4274 11.7787C22.9261 11.2794 23.6169 11.014 24.3209 11.0498C25.0202 11.0857 25.6749 11.4158 26.1196 11.9561L32.4999 19.3364V4.08907C32.5001 1.83432 30.6656 0 28.411 0ZM10.5734 13.0263C8.06745 13.0263 6.02876 10.9876 6.02876 8.48177C6.02876 5.97589 8.06758 3.93719 10.5734 3.93719C13.0793 3.93719 15.118 5.97595 15.118 8.48177C15.118 10.9876 13.0793 13.0263 10.5734 13.0263Z" fill="#E5BDA7"/>
</g>
<defs>
<clipPath id="clip0">
<rect width="32" height="32" fill="white" transform="translate(0.5)"/>
</clipPath>
</defs>
</svg>
