<svg width="33" height="32" viewBox="0 0 33 32" fill="none" xmlns="http://www.w3.org/2000/svg">
<g clip-path="url(#clip0)">
<path d="M29.2957 27.4476C34.0138 22.0056 33.4347 13.7991 28.1117 9.03613C30.8458 18.617 23.6161 28.1874 13.6552 28.1874C13.4635 28.1874 14.6207 28.1941 10.0625 28.166C12.5556 30.6474 15.8761 31.9999 19.3425 31.9999C19.3515 31.9999 31.5579 31.9374 31.5651 31.9374C32.3984 31.9334 32.8135 30.9192 32.2191 30.3326L29.2957 27.4476Z" fill="#E5BDA7"/>
<path d="M13.6563 26.3125C20.9103 26.3125 26.8118 20.4106 26.8118 13.1562C26.8118 5.90188 20.9103 0 13.6563 0C6.4022 0 0.500762 5.90188 0.500762 13.1562C0.500762 16.3499 1.63126 19.3704 3.70307 21.7602L0.7797 24.6452C0.1872 25.23 0.597637 26.2459 1.43376 26.25C1.4402 26.2501 13.6499 26.3125 13.6563 26.3125ZM8.06282 8.5H19.3122C19.8299 8.5 20.2496 8.91975 20.2496 9.4375C20.2496 9.95525 19.8299 10.375 19.3122 10.375H8.06282C7.54507 10.375 7.12539 9.95525 7.12539 9.4375C7.12539 8.91975 7.54514 8.5 8.06282 8.5ZM8.06282 12.25H19.3122C19.8299 12.25 20.2496 12.6698 20.2496 13.1875C20.2496 13.7052 19.8299 14.125 19.3122 14.125H8.06282C7.54507 14.125 7.12539 13.7052 7.12539 13.1875C7.12539 12.6698 7.54514 12.25 8.06282 12.25ZM7.12539 16.9375C7.12539 16.4198 7.54507 16 8.06282 16H19.3122C19.8299 16 20.2496 16.4198 20.2496 16.9375C20.2496 17.4552 19.8299 17.875 19.3122 17.875H8.06282C7.54514 17.875 7.12539 17.4552 7.12539 16.9375Z" fill="#E5BDA7"/>
</g>
<defs>
<clipPath id="clip0">
<rect width="32" height="32" fill="white" transform="translate(0.5)"/>
</clipPath>
</defs>
</svg>
