<svg width="32" height="32" viewBox="0 0 32 32" fill="none" xmlns="http://www.w3.org/2000/svg">
<g clip-path="url(#clip0)">
<path d="M17.1804 17.5573C15.5759 18.804 13.3262 18.804 11.7217 17.5573C8.13557 14.7704 5.10851 10.938 5.01666 6.21964C5.01666 3.98875 6.44613 2.12917 8.40323 1.53906C4.94969 0.315836 1.2276 2.94972 1.2679 6.73884C1.37137 12.0509 4.77924 16.3655 8.8166 19.5031C9.71986 20.205 10.8046 20.5558 11.8894 20.5557C12.9742 20.5558 14.0589 20.205 14.9622 19.5031C15.7835 18.8648 16.5787 18.1778 17.3254 17.4437C17.2772 17.4817 17.2289 17.5197 17.1804 17.5573V17.5573Z" fill="#BEC5BF"/>
<path d="M11.8904 21.8057C11.8903 21.8057 11.8906 21.8057 11.8893 21.8057C10.5052 21.8057 9.14191 21.3386 8.05027 20.4902C2.15965 16.1522 -2.89718 7.25732 1.92673 1.97887C4.58735 -0.890999 9.48849 -0.523932 11.8899 2.45965C14.2917 -0.52337 19.1922 -0.891624 21.8529 1.97899C26.6747 7.25819 21.6259 16.145 15.7295 20.4902C14.6379 21.3385 13.2745 21.8057 11.8904 21.8057ZM11.8897 19.3065H11.8904C12.734 19.3065 13.5311 19.0335 14.1958 18.5169C17.3599 16.0579 21.1528 12.0173 21.2617 6.72762C21.2372 2.96529 16.9875 1.20169 14.268 3.58646C13.5508 4.21382 13.1394 5.00131 13.1394 5.74694C13.1394 6.43709 12.58 6.99653 11.8898 6.99653C11.1997 6.99653 10.6402 6.43709 10.6402 5.74694C10.6402 5.00131 10.2289 4.21388 9.5116 3.5864C6.79506 1.20131 2.53978 2.96686 2.51797 6.72762C2.62688 12.0174 6.41975 16.0579 9.58383 18.5169C10.2487 19.0336 11.0461 19.3066 11.8897 19.3065Z" fill="#345E4C"/>
<path d="M30.759 31.9888H26.5154C25.3999 31.9888 24.3571 31.5522 23.5793 30.7593C22.277 29.4221 22.3655 28.0629 22.3868 26.3356C22.3867 25.4036 21.5811 24.6162 20.6274 24.6162C19.7027 24.6162 18.9504 25.3763 18.9504 26.3106V27.7952C18.9504 30.1075 17.0725 31.9888 14.7642 31.9888C12.456 31.9888 10.5781 30.1075 10.5781 27.7952V24.8661C10.5781 24.176 11.1376 23.6165 11.8277 23.6165C12.5179 23.6165 13.0773 24.176 13.0773 24.8661V27.7952C13.1635 30.0412 16.3663 30.0387 16.4512 27.7952V26.3107C16.4512 23.9983 18.3246 22.1171 20.6274 22.1171C22.8835 22.0682 24.9349 24.0742 24.8859 26.3357C24.886 26.3356 24.886 27.8201 24.886 27.8201C24.886 28.7563 25.6017 29.4897 26.5155 29.4897H30.759C32.4079 29.5471 32.4203 31.9259 30.759 31.9888Z" fill="#AB4C3C"/>
</g>
<defs>
<clipPath id="clip0">
<rect width="32" height="32" fill="white"/>
</clipPath>
</defs>
</svg>
