<svg width="32" height="32" viewBox="0 0 32 32" fill="none" xmlns="http://www.w3.org/2000/svg">
<path d="M6.95319 30.724C3.75756 30.4469 1.25 27.7655 1.25 24.4981V13.9811C1.25 12.0317 2.15962 10.1938 3.70969 9.01159L12.2097 2.52853C14.4482 0.821219 17.5518 0.821219 19.7903 2.52853L20.3653 2.96709C18.8303 2.81559 17.2511 3.23109 15.9598 4.21603L5.85075 11.9263C5.31462 12.3352 5 12.9708 5 13.6451V26.1855C5 27.9729 5.75044 29.5848 6.95319 30.724V30.724Z" fill="#BEC5BF"/>
<path d="M24.5 31.9973H7.5C3.3645 31.9973 0 28.6328 0 24.4973V13.9804C0 11.6559 1.10344 9.42662 2.95163 8.01693L11.4516 1.53387C14.1297 -0.508687 17.8703 -0.508687 20.5484 1.53387L23.25 3.59262V1.99731C23.25 1.30694 23.8096 0.747312 24.5 0.747312C25.1904 0.747312 25.75 1.30694 25.75 1.99731V6.11675C25.75 6.59193 25.4806 7.026 25.0547 7.23693C24.6288 7.44781 24.1203 7.39893 23.7423 7.111L19.0326 3.52206C17.2469 2.16006 14.753 2.16006 12.9677 3.52175L4.46769 10.0048C3.23563 10.9445 2.5 12.4307 2.5 13.9804V24.4973C2.5 27.2543 4.743 29.4973 7.5 29.4973H24.5C27.257 29.4973 29.5 27.2543 29.5 24.4973V13.9804C29.5 12.4117 28.7727 10.9204 27.5544 9.99118C27.0055 9.57249 26.8999 8.78812 27.3186 8.23925C27.7373 7.69031 28.5217 7.58475 29.0706 8.00343C30.9049 9.40243 32 11.6368 32 13.9804V24.4973C32 28.6328 28.6355 31.9973 24.5 31.9973V31.9973Z" fill="#345E4C"/>
<path d="M15.0625 15.998C15.0625 16.861 14.3629 17.5605 13.5 17.5605C12.6371 17.5605 11.9375 16.861 11.9375 15.998C11.9375 15.1351 12.6371 14.4355 13.5 14.4355C14.3629 14.4355 15.0625 15.1351 15.0625 15.998ZM18.5 14.4356C17.6371 14.4356 16.9375 15.1352 16.9375 15.9981C16.9375 16.861 17.6371 17.5606 18.5 17.5606C19.3629 17.5606 20.0625 16.861 20.0625 15.9981C20.0625 15.1351 19.3629 14.4356 18.5 14.4356V14.4356ZM13.5 19.4356C12.6371 19.4356 11.9375 20.1352 11.9375 20.9981C11.9375 21.861 12.6371 22.5606 13.5 22.5606C14.3629 22.5606 15.0625 21.861 15.0625 20.9981C15.0625 20.1351 14.3629 19.4356 13.5 19.4356ZM18.5 19.4356C17.6371 19.4356 16.9375 20.1352 16.9375 20.9981C16.9375 21.861 17.6371 22.5606 18.5 22.5606C19.3629 22.5606 20.0625 21.861 20.0625 20.9981C20.0625 20.1351 19.3629 19.4356 18.5 19.4356Z" fill="#AB4C3C"/>
</svg>
