<svg width="33" height="32" viewBox="0 0 33 32" fill="none" xmlns="http://www.w3.org/2000/svg">
<g clip-path="url(#clip0)">
<path d="M5.5625 24.5V7.5C5.5625 4.04819 8.36069 1.25 11.8125 1.25H8C4.54819 1.25 1.75 4.04819 1.75 7.5V24.5C1.75 27.9518 4.54819 30.75 8 30.75H11.8125C8.36069 30.75 5.5625 27.9518 5.5625 24.5Z" fill="#BEC5BF"/>
<path d="M25 32H8C3.8645 32 0.5 28.6355 0.5 24.5V7.5C0.5 3.3645 3.8645 0 8 0H25C29.1355 0 32.5 3.3645 32.5 7.5V24.5C32.5 28.6355 29.1355 32 25 32ZM8 2.5C5.243 2.5 3 4.743 3 7.5V24.5C3 27.257 5.243 29.5 8 29.5H25C27.757 29.5 30 27.257 30 24.5V7.5C30 4.743 27.757 2.5 25 2.5H8ZM21.25 11.875C22.1129 11.875 22.8125 11.1754 22.8125 10.3125C22.8125 9.44956 22.1129 8.75 21.25 8.75C20.3871 8.75 19.6875 9.44956 19.6875 10.3125C19.6875 11.1754 20.3871 11.875 21.25 11.875Z" fill="#345E4C"/>
<path d="M27.2595 17.4956C26.7395 17.0418 25.9499 17.0952 25.4958 17.6154L23.3806 20.0386C22.6374 20.8469 21.9392 20.9026 21.0552 20.2216C21.0552 20.2216 15.242 14.7164 15.2129 14.6933C13.5355 13.3666 11.1637 13.4417 9.57342 14.8719C9.54755 14.8951 5.90205 18.7684 5.90205 18.7684C5.42905 19.2712 5.45317 20.0623 5.95598 20.5353C6.45892 21.0084 7.24998 20.9841 7.72292 20.4813L11.2795 16.7006C11.9481 16.1274 12.919 16.0961 13.6233 16.6243C13.6233 16.6243 19.4342 22.1273 19.4633 22.1504C20.3293 22.8351 21.327 23.1873 22.25 23.1873C22.9915 23.163 24.1604 22.8924 25.2357 21.7147C25.242 21.7078 25.2482 21.7009 25.2543 21.6939L27.3793 19.2594C27.8332 18.7393 27.7797 17.9496 27.2595 17.4956V17.4956Z" fill="#AB4C3C"/>
</g>
<defs>
<clipPath id="clip0">
<rect width="32" height="32" fill="white" transform="translate(0.5)"/>
</clipPath>
</defs>
</svg>
