<svg width="33" height="32" viewBox="0 0 33 32" fill="none" xmlns="http://www.w3.org/2000/svg">
<g clip-path="url(#clip0)">
<path d="M5.6875 16.1449C5.61531 8.62369 11.2123 2.34119 18.4666 1.37838C17.8241 1.29413 17.1679 1.25 16.5 1.25C8.33488 1.25 1.67219 7.96531 1.75069 16.1449L1.75 30.75L1.9945 30.5055C3.01412 29.4859 4.33131 28.8374 5.68694 28.5984L5.6875 16.1449Z" fill="#BEC5BF"/>
<path d="M1.74976 32C1.58869 32 1.42632 31.9689 1.27163 31.9048C0.804569 31.7113 0.500006 31.2555 0.500006 30.7499L0.500694 16.1509C0.461194 11.8637 2.11001 7.81562 5.14382 4.75256C8.17926 1.68781 12.2123 0 16.5 0C20.8196 0 24.8589 1.67631 27.8736 4.72019C30.898 7.77375 32.5408 11.8354 32.4993 16.1569C32.4584 20.4128 30.7661 24.4001 27.734 27.3843C24.7097 30.3609 20.6993 32 16.4413 32C16.4362 32 16.4308 32 16.4258 32C13.907 32.0001 11.5024 31.4351 9.27901 30.3209C7.15444 29.2561 4.58226 29.6855 2.87838 31.3894L2.63388 31.6339C2.39482 31.873 2.07501 32 1.74976 32V32ZM6.82919 27.2407C8.04307 27.2407 9.26426 27.5171 10.3991 28.0858C12.2715 29.0242 14.2996 29.5 16.427 29.5H16.4399C23.8474 29.5005 29.9286 23.5052 29.9994 16.1329C30.0344 12.4836 28.6487 9.05531 26.0974 6.47944C23.5558 3.91325 20.1474 2.5 16.5 2.5C12.8846 2.5 9.48232 3.92475 6.92001 6.51181C4.35782 9.09875 2.96588 12.5156 3.00063 16.1329C3.00063 16.1369 3.00069 16.1409 3.00069 16.1449L3.00013 28.2117C4.18463 27.5712 5.50238 27.2407 6.82919 27.2407V27.2407Z" fill="#345E4C"/>
<path d="M12.75 16C12.75 16.8629 12.0504 17.5625 11.1875 17.5625C10.3246 17.5625 9.625 16.8629 9.625 16C9.625 15.1371 10.3246 14.4375 11.1875 14.4375C12.0504 14.4375 12.75 15.1371 12.75 16ZM16.5625 14.4375C15.6996 14.4375 15 15.1371 15 16C15 16.8629 15.6996 17.5625 16.5625 17.5625C17.4254 17.5625 18.125 16.8629 18.125 16C18.125 15.1371 17.4254 14.4375 16.5625 14.4375ZM21.9375 14.4375C21.0746 14.4375 20.375 15.1371 20.375 16C20.375 16.8629 21.0746 17.5625 21.9375 17.5625C22.8004 17.5625 23.5 16.8629 23.5 16C23.5 15.1371 22.8004 14.4375 21.9375 14.4375Z" fill="#AB4C3C"/>
</g>
<defs>
<clipPath id="clip0">
<rect width="32" height="32" fill="white" transform="translate(0.5)"/>
</clipPath>
</defs>
</svg>
