<svg width="56" height="56" viewBox="0 0 56 56" fill="none" xmlns="http://www.w3.org/2000/svg">
<rect width="56" height="56" fill="white" fill-opacity="0.1"/>
<path d="M42.85 28.6148C42.7826 28.7806 42.6861 28.933 42.565 29.0648L36.565 35.0648C36.4256 35.2054 36.2597 35.317 36.0769 35.3931C35.8941 35.4693 35.698 35.5085 35.5 35.5085C35.302 35.5085 35.1059 35.4693 34.9231 35.3931C34.7403 35.317 34.5744 35.2054 34.435 35.0648C34.2944 34.9253 34.1828 34.7594 34.1067 34.5767C34.0305 34.3939 33.9913 34.1978 33.9913 33.9998C33.9913 33.8018 34.0305 33.6057 34.1067 33.4229C34.1828 33.2401 34.2944 33.0742 34.435 32.9348L37.885 29.4998H14.5C14.1022 29.4998 13.7206 29.3418 13.4393 29.0605C13.158 28.7791 13 28.3976 13 27.9998C13 27.602 13.158 27.2204 13.4393 26.9391C13.7206 26.6578 14.1022 26.4998 14.5 26.4998H37.885L34.435 23.0648C34.1525 22.7823 33.9939 22.3992 33.9939 21.9998C33.9939 21.6003 34.1525 21.2172 34.435 20.9348C34.7175 20.6523 35.1005 20.4937 35.5 20.4937C35.8995 20.4937 36.2825 20.6523 36.565 20.9348L42.565 26.9348C42.6906 27.0631 42.7877 27.2164 42.85 27.3848C42.9509 27.5739 43.0025 27.7854 43 27.9998V28.1498C43.0157 28.2743 43.0157 28.4003 43 28.5248C42.9564 28.5643 42.9054 28.5949 42.85 28.6148Z" fill="#EBE5E4"/>
</svg>
