<svg width="56" height="56" viewBox="0 0 56 56" fill="none" xmlns="http://www.w3.org/2000/svg">
<rect width="56" height="56" transform="translate(56 56) rotate(-180)" fill="white" fill-opacity="0.1"/>
<path d="M13.15 27.3852C13.2174 27.2194 13.3139 27.067 13.435 26.9352L19.435 20.9352C19.5744 20.7946 19.7403 20.683 19.9231 20.6069C20.1059 20.5307 20.302 20.4915 20.5 20.4915C20.698 20.4915 20.8941 20.5307 21.0769 20.6069C21.2597 20.683 21.4256 20.7946 21.565 20.9352C21.7056 21.0747 21.8172 21.2406 21.8933 21.4233C21.9695 21.6061 22.0087 21.8022 22.0087 22.0002C22.0087 22.1982 21.9695 22.3943 21.8933 22.5771C21.8172 22.7599 21.7056 22.9258 21.565 23.0652L18.115 26.5002H41.5C41.8978 26.5002 42.2794 26.6582 42.5607 26.9395C42.842 27.2209 43 27.6024 43 28.0002C43 28.398 42.842 28.7796 42.5607 29.0609C42.2794 29.3422 41.8978 29.5002 41.5 29.5002H18.115L21.565 32.9352C21.8475 33.2177 22.0061 33.6008 22.0061 34.0002C22.0061 34.3997 21.8475 34.7828 21.565 35.0652C21.2825 35.3477 20.8995 35.5063 20.5 35.5063C20.1005 35.5063 19.7175 35.3477 19.435 35.0652L13.435 29.0652C13.3094 28.9369 13.2123 28.7836 13.15 28.6152V28.6152C13.0491 28.4261 12.9975 28.2146 13 28.0002V27.8502C12.9843 27.7257 12.9843 27.5997 13 27.4752C13.0436 27.4357 13.0946 27.4051 13.15 27.3852V27.3852Z" fill="#EBE5E4"/>
</svg>
