<svg width="27" height="27" viewBox="0 0 27 27" fill="none" xmlns="http://www.w3.org/2000/svg">
<path d="M24.9557 13.3152L14.095 2.4625C14.0168 2.38415 13.9239 2.32199 13.8217 2.27958C13.7194 2.23716 13.6098 2.21533 13.4991 2.21533C13.3884 2.21533 13.2788 2.23716 13.1766 2.27958C13.0743 2.32199 12.9814 2.38415 12.9032 2.4625L2.04258 13.3152C1.72617 13.6316 1.54688 14.0614 1.54688 14.5097C1.54688 15.4404 2.30361 16.1972 3.23437 16.1972H4.37871V23.9412C4.37871 24.4079 4.75576 24.785 5.22246 24.785H11.8116V18.8787H14.7647V24.785H21.7758C22.2425 24.785 22.6195 24.4079 22.6195 23.9412V16.1972H23.7639C24.2121 16.1972 24.6419 16.0205 24.9583 15.7015C25.6148 15.0423 25.6148 13.9744 24.9557 13.3152V13.3152Z" fill="#EBE5E4"/>
</svg>
