<svg width="27" height="27" viewBox="0 0 27 27" fill="none" xmlns="http://www.w3.org/2000/svg">
<path d="M21.9375 2.95312H19.0898V1.89844C19.0898 1.78242 18.9949 1.6875 18.8789 1.6875H17.4023C17.2863 1.6875 17.1914 1.78242 17.1914 1.89844V2.95312H13.1836V1.89844C13.1836 1.78242 13.0887 1.6875 12.9727 1.6875H11.4961C11.3801 1.6875 11.2852 1.78242 11.2852 1.89844V2.95312H8.4375C7.9708 2.95312 7.59375 3.33018 7.59375 3.79688V6.96094H5.0625C4.5958 6.96094 4.21875 7.33799 4.21875 7.80469V24.4688C4.21875 24.9354 4.5958 25.3125 5.0625 25.3125H18.5625C19.0292 25.3125 19.4062 24.9354 19.4062 24.4688V21.9375H21.9375C22.4042 21.9375 22.7812 21.5604 22.7812 21.0938V3.79688C22.7812 3.33018 22.4042 2.95312 21.9375 2.95312ZM17.5078 12.8145H13.5527V8.85938H13.558L17.5078 12.8092V12.8145ZM20.8828 20.0391H19.4062V12.0234L14.3438 6.96094H9.49219V4.85156H11.2852V5.69531C11.2852 5.81133 11.3801 5.90625 11.4961 5.90625H12.9727C13.0887 5.90625 13.1836 5.81133 13.1836 5.69531V4.85156H17.1914V5.69531C17.1914 5.81133 17.2863 5.90625 17.4023 5.90625H18.8789C18.9949 5.90625 19.0898 5.81133 19.0898 5.69531V4.85156H20.8828V20.0391Z" fill="#EBE5E4"/>
</svg>
