<svg width="27" height="27" viewBox="0 0 27 27" fill="none" xmlns="http://www.w3.org/2000/svg">
<path d="M2 5.00793C2 4.21018 2.3029 3.4451 2.84207 2.881C3.38124 2.31691 4.1125 2 4.875 2H22.125C22.8875 2 23.6188 2.31691 24.1579 2.881C24.6971 3.4451 25 4.21018 25 5.00793V17.0397C25 17.8374 24.6971 18.6025 24.1579 19.1666C23.6188 19.7307 22.8875 20.0476 22.125 20.0476H8.34513C7.96391 20.0477 7.59833 20.2062 7.32881 20.4883L3.22762 24.7791C3.12719 24.8844 2.99914 24.9562 2.85968 24.9854C2.72022 25.0146 2.57562 24.9998 2.44419 24.943C2.31275 24.8861 2.20039 24.7898 2.12132 24.6661C2.04225 24.5424 2.00003 24.397 2 24.2482V5.00793ZM12.3414 9.1679C12.2466 9.01995 12.1372 8.88283 12.0151 8.75883C11.8229 8.55184 11.5939 8.38629 11.3409 8.27154L11.3294 8.26552C10.9889 8.10015 10.618 8.01492 10.2426 8.01587C8.8655 8.01587 7.75 9.13782 7.75 10.523C7.75 11.9066 8.8655 13.0286 10.2426 13.0286C10.7357 13.0286 11.1942 12.8857 11.5809 12.6376C11.384 13.2226 11.0203 13.8467 10.4166 14.4724C10.3597 14.5305 10.3148 14.6001 10.2846 14.677C10.2544 14.7539 10.2396 14.8365 10.2411 14.9196C10.2426 15.0028 10.2603 15.0847 10.2932 15.1604C10.3261 15.2361 10.3735 15.3039 10.4324 15.3597C10.6811 15.6004 11.0749 15.5928 11.315 15.3447C13.2326 13.3459 13.2844 11.1968 12.6677 9.77099C12.5771 9.56025 12.4679 9.35884 12.3414 9.16941V9.1679ZM17.8125 12.6376C17.617 13.2226 17.2519 13.8467 16.6481 14.4724C16.5913 14.5306 16.5465 14.6003 16.5165 14.6773C16.4864 14.7542 16.4718 14.8368 16.4734 14.92C16.475 15.0031 16.4929 15.085 16.5259 15.1606C16.5589 15.2363 16.6064 15.304 16.6654 15.3597C16.9126 15.6004 17.3065 15.5928 17.5466 15.3447C19.4642 13.3459 19.5159 11.1968 18.9007 9.77099C18.8096 9.56021 18.6999 9.3588 18.5729 9.16941C18.4783 9.02091 18.3689 8.88329 18.2466 8.75883C18.0545 8.55181 17.8255 8.38625 17.5724 8.27154L17.5609 8.26552C17.2209 8.10036 16.8505 8.01514 16.4756 8.01587C15.0999 8.01587 13.983 9.13782 13.983 10.523C13.983 11.9066 15.0999 13.0286 16.4756 13.0286C16.9687 13.0286 17.4273 12.8857 17.8139 12.6376H17.8125Z" fill="#EBE5E4"/>
</svg>
